<svg width="135" height="107" fill="none" xmlns="http://www.w3.org/2000/svg"><path d="M3.118 106.038C-2.78 98.55 9.622 82.144 16.16 73.026c9.532-13.293 18.767-24.527 32.232-35.131 16.453-12.958 37.17-22.208 55.091-22.632 6.703-.159 19.293-2.148 23.612 1.799 1.069.978 4.169 2.43 1.527.241-3.657-3.03-8.342-6.31-14.099-6.584-6.464-.307-16.05 2.745-23.079 5.783-5.257 2.272-14.933 4.826-19.514 8.27-9.922 7.458-18.765 13.397-29.496 19.139-6.067 3.246-11.819 7.521-17.064 12.175-3.623 3.215-5.27 6.497-7.778 10.157-2.269 3.31-5.31 5.685-7.333 9.024-2.444 4.032-5.473 8.858-5.479 12.737-.004 2.333-2.198 4.961-1.872 7.13.2 1.339 1.197 2.94.696 4.505-2.766 8.633 6.582-11.901 7.524-13.987 2.596-5.748 3.844-11.696 7.087-17.373 1.208-2.117 2.457-5.98 4.357-7.823 5.892-5.72 13.411-11.706 19.965-16.867 20.873-16.439 47.6-30.202 70.341-30.431 3.946-.04 6.489 2.603 10.009 3.428 1.575.369 2.578 1.315 4.019 1.708 1.378.375-3.227-5.682-3.967-6.622-1.895-2.406-5.32-4.417-2.843-8.59 2.757-4.647 2.331 3.176 2.474 5.632.314 5.383 12.364 13.389-3.342 14.544-3.287.242-5.932-.585-9.186-.346-3.165.233.613-.572 1.917-.848 4.426-.938 8.366-.09 12.664-1.01 3.914-.837 3.468-1.21 6.909-.508 4.203.857 1.577-6.146.978-6.907-1.594-2.024-6.709-11.54-9.821-10.434" stroke="#fff" stroke-width="1.5" stroke-linecap="round"/></svg>