<svg width="28" height="48" fill="none" xmlns="http://www.w3.org/2000/svg"><path d="M1.48 26.833c3.837 3.858 7.642 7.307 12.473 9.88 3.869 2.061 3.443-.478 3.864-3.752 1.174-9.144 3.467-17.688 6.785-26.282.153-.395 2.406-8.327 1.962-4.742-.367 2.967-1.503 6.02-2.286 8.904-2.527 9.314-5.72 18.44-7.693 27.907-.51 2.444-.64 5.062-1.51 7.415-.584 1.58-.91 1.056-1.827-.207-3.55-4.887-5.498-10.561-8.885-15.558-1.036-1.528-5.383-5.94-1.418-1.97 2.07 2.07 4.292 3.975 6.4 6.006.753.725 1.852 1.546 2.22 2.586.296.833.535 1.41 1.204 2.001a32.69 32.69 0 0 1 1.693 1.604c.122.123.819 1.21.997.973 1.005-1.344.762-4.699.995-6.265.622-4.192 2.018-8.201 1.924-12.464-.052-2.359.476-4.757 1.061-7.03.862-3.352 1.77-6.646 3.98-9.325" stroke="#A9D18E" stroke-width="1.5" stroke-linecap="round"/></svg>