<svg width="306" height="436" fill="none" xmlns="http://www.w3.org/2000/svg"><mask id="a" maskUnits="userSpaceOnUse" x="42.138" y="0" width="254" height="44" fill="#000"><path fill="#fff" d="M42.138 0h254v44h-254z"/><path d="M43.138 43.75V1h17.38c1.992.733 3.761 2.015 5.306 3.848 1.545 1.832 2.317 4.05 2.317 6.656 0 4.601-1.504 7.818-4.513 9.65v.244c3.74 2.076 5.611 5.334 5.611 9.771 0 5.09-2.582 9.283-7.745 12.581H43.138Zm8.294-25.1h6.037c1.789-1.1 2.683-2.769 2.683-5.008 0-2.24-.833-4.01-2.5-5.313h-6.22v10.32Zm0 18.016h6.281c.732-.53 1.382-1.364 1.951-2.504.61-1.14.915-2.28.915-3.42 0-1.14-.244-2.178-.732-3.115-.488-.936-1.097-1.628-1.83-2.076h-6.585v11.115ZM70.64 1h16.222c2.561.855 4.737 2.443 6.525 4.764 1.83 2.28 2.745 5.089 2.745 8.428 0 5.455-2.155 9.466-6.465 12.03l6.16 17.528h-8.538l-5.184-15.573h-3.232V43.75H70.64V1Zm8.233 7.329v13.008h5.245c.69-.163 1.443-.855 2.256-2.077.854-1.262 1.28-2.727 1.28-4.397 0-1.669-.365-3.135-1.097-4.397-.691-1.262-1.382-1.975-2.073-2.137h-5.61Z"/><path d="m115.661 43.75-1.281-6.779h-9.635l-1.281 6.78H95.17L103.403 1h12.624l7.806 42.75h-8.172Zm-6.22-34.81-2.379 14.229-1.341 7.268h7.623l-1.403-7.268-2.378-14.23h-.122Zm14.894 34.81V1h8.355v42.75h-8.355Zm30.212 0-11.404-23.635-.305.123.366 7.206V43.75h-7.684V1h6.159L152.9 25.55l.305-.121-.671-7.512V1h7.684v42.75h-5.671ZM166.925 1h14.636v7.329h-11.709l-.183.366 9.758 17.833c1.992 3.583 2.988 6.31 2.988 8.184 0 4.112-1.362 7.125-4.086 9.038h-16.161v-7.084h12.624l.183-.367-10.977-19.726c-1.586-2.85-2.379-5.17-2.379-6.962 0-4.234 1.769-7.105 5.306-8.611Z"/><path d="M190.507 8.329h-9.208V1h26.711v7.329h-9.209V43.75h-8.294V8.33Z"/><path d="M226.235 1c2.846 2.32 4.96 5.435 6.343 9.344a36.014 36.014 0 0 1 2.073 12.092c0 4.112-.671 8.02-2.012 11.726-1.342 3.705-3.476 6.901-6.404 9.588h-12.562c-2.928-2.687-5.062-5.883-6.404-9.588-1.342-3.705-2.012-7.614-2.012-11.726 0-4.153.691-8.183 2.073-12.092 1.382-3.909 3.497-7.023 6.343-9.344h12.562Zm-8.477 35.666h4.391c1.017-1.18 1.871-3.094 2.562-5.74.731-2.688 1.097-5.518 1.097-8.49 0-2.972-.345-5.76-1.036-8.367-.692-2.646-1.545-4.56-2.562-5.74h-4.452c-1.016 1.18-1.89 3.094-2.622 5.74-.691 2.606-1.037 5.395-1.037 8.367 0 2.972.346 5.802 1.037 8.49.732 2.646 1.606 4.56 2.622 5.74ZM236.358 1h16.222c2.561.855 4.737 2.443 6.525 4.764 1.83 2.28 2.745 5.089 2.745 8.428 0 5.455-2.155 9.466-6.465 12.03l6.16 17.528h-8.538l-5.184-15.573h-3.232V43.75h-8.233V1Zm8.233 7.329v13.008h5.245c.691-.163 1.443-.855 2.256-2.077.854-1.262 1.281-2.727 1.281-4.397 0-1.669-.366-3.135-1.098-4.397-.691-1.262-1.382-1.975-2.073-2.137h-5.611Zm34.166 15.878 3.232-13.375L284.611 1h7.623l2.745 42.75h-7.989l-1.159-23.33h-.305l-4.391 17.223h-5.001l-4.391-17.222h-.304l-1.159 23.33h-7.989L265.035 1h7.623l2.623 9.832 3.232 13.375h.244Z"/></mask><path d="M43.138 43.75V1h17.38c1.992.733 3.761 2.015 5.306 3.848 1.545 1.832 2.317 4.05 2.317 6.656 0 4.601-1.504 7.818-4.513 9.65v.244c3.74 2.076 5.611 5.334 5.611 9.771 0 5.09-2.582 9.283-7.745 12.581H43.138Zm8.294-25.1h6.037c1.789-1.1 2.683-2.769 2.683-5.008 0-2.24-.833-4.01-2.5-5.313h-6.22v10.32Zm0 18.016h6.281c.732-.53 1.382-1.364 1.951-2.504.61-1.14.915-2.28.915-3.42 0-1.14-.244-2.178-.732-3.115-.488-.936-1.097-1.628-1.83-2.076h-6.585v11.115ZM70.64 1h16.222c2.561.855 4.737 2.443 6.525 4.764 1.83 2.28 2.745 5.089 2.745 8.428 0 5.455-2.155 9.466-6.465 12.03l6.16 17.528h-8.538l-5.184-15.573h-3.232V43.75H70.64V1Zm8.233 7.329v13.008h5.245c.69-.163 1.443-.855 2.256-2.077.854-1.262 1.28-2.727 1.28-4.397 0-1.669-.365-3.135-1.097-4.397-.691-1.262-1.382-1.975-2.073-2.137h-5.61Z" fill="#fff"/><path d="m115.661 43.75-1.281-6.779h-9.635l-1.281 6.78H95.17L103.403 1h12.624l7.806 42.75h-8.172Zm-6.22-34.81-2.379 14.229-1.341 7.268h7.623l-1.403-7.268-2.378-14.23h-.122Zm14.894 34.81V1h8.355v42.75h-8.355Zm30.212 0-11.404-23.635-.305.123.366 7.206V43.75h-7.684V1h6.159L152.9 25.55l.305-.121-.671-7.512V1h7.684v42.75h-5.671ZM166.925 1h14.636v7.329h-11.709l-.183.366 9.758 17.833c1.992 3.583 2.988 6.31 2.988 8.184 0 4.112-1.362 7.125-4.086 9.038h-16.161v-7.084h12.624l.183-.367-10.977-19.726c-1.586-2.85-2.379-5.17-2.379-6.962 0-4.234 1.769-7.105 5.306-8.611Z" fill="#fff"/><path d="M190.507 8.329h-9.208V1h26.711v7.329h-9.209V43.75h-8.294V8.33Z" fill="#fff"/><path d="M226.235 1c2.846 2.32 4.96 5.435 6.343 9.344a36.014 36.014 0 0 1 2.073 12.092c0 4.112-.671 8.02-2.012 11.726-1.342 3.705-3.476 6.901-6.404 9.588h-12.562c-2.928-2.687-5.062-5.883-6.404-9.588-1.342-3.705-2.012-7.614-2.012-11.726 0-4.153.691-8.183 2.073-12.092 1.382-3.909 3.497-7.023 6.343-9.344h12.562Zm-8.477 35.666h4.391c1.017-1.18 1.871-3.094 2.562-5.74.731-2.688 1.097-5.518 1.097-8.49 0-2.972-.345-5.76-1.036-8.367-.692-2.646-1.545-4.56-2.562-5.74h-4.452c-1.016 1.18-1.89 3.094-2.622 5.74-.691 2.606-1.037 5.395-1.037 8.367 0 2.972.346 5.802 1.037 8.49.732 2.646 1.606 4.56 2.622 5.74ZM236.358 1h16.222c2.561.855 4.737 2.443 6.525 4.764 1.83 2.28 2.745 5.089 2.745 8.428 0 5.455-2.155 9.466-6.465 12.03l6.16 17.528h-8.538l-5.184-15.573h-3.232V43.75h-8.233V1Zm8.233 7.329v13.008h5.245c.691-.163 1.443-.855 2.256-2.077.854-1.262 1.281-2.727 1.281-4.397 0-1.669-.366-3.135-1.098-4.397-.691-1.262-1.382-1.975-2.073-2.137h-5.611Zm34.166 15.878 3.232-13.375L284.611 1h7.623l2.745 42.75h-7.989l-1.159-23.33h-.305l-4.391 17.223h-5.001l-4.391-17.222h-.304l-1.159 23.33h-7.989L265.035 1h7.623l2.623 9.832 3.232 13.375h.244Z" fill="#fff"/><path d="M43.138 43.75V1h17.38c1.992.733 3.761 2.015 5.306 3.848 1.545 1.832 2.317 4.05 2.317 6.656 0 4.601-1.504 7.818-4.513 9.65v.244c3.74 2.076 5.611 5.334 5.611 9.771 0 5.09-2.582 9.283-7.745 12.581H43.138Zm8.294-25.1h6.037c1.789-1.1 2.683-2.769 2.683-5.008 0-2.24-.833-4.01-2.5-5.313h-6.22v10.32Zm0 18.016h6.281c.732-.53 1.382-1.364 1.951-2.504.61-1.14.915-2.28.915-3.42 0-1.14-.244-2.178-.732-3.115-.488-.936-1.097-1.628-1.83-2.076h-6.585v11.115ZM70.64 1h16.222c2.561.855 4.737 2.443 6.525 4.764 1.83 2.28 2.745 5.089 2.745 8.428 0 5.455-2.155 9.466-6.465 12.03l6.16 17.528h-8.538l-5.184-15.573h-3.232V43.75H70.64V1Zm8.233 7.329v13.008h5.245c.69-.163 1.443-.855 2.256-2.077.854-1.262 1.28-2.727 1.28-4.397 0-1.669-.365-3.135-1.097-4.397-.691-1.262-1.382-1.975-2.073-2.137h-5.61Z" stroke="#FFEC44" stroke-width=".4" mask="url(#a)"/><path d="m115.661 43.75-1.281-6.779h-9.635l-1.281 6.78H95.17L103.403 1h12.624l7.806 42.75h-8.172Zm-6.22-34.81-2.379 14.229-1.341 7.268h7.623l-1.403-7.268-2.378-14.23h-.122Zm14.894 34.81V1h8.355v42.75h-8.355Zm30.212 0-11.404-23.635-.305.123.366 7.206V43.75h-7.684V1h6.159L152.9 25.55l.305-.121-.671-7.512V1h7.684v42.75h-5.671ZM166.925 1h14.636v7.329h-11.709l-.183.366 9.758 17.833c1.992 3.583 2.988 6.31 2.988 8.184 0 4.112-1.362 7.125-4.086 9.038h-16.161v-7.084h12.624l.183-.367-10.977-19.726c-1.586-2.85-2.379-5.17-2.379-6.962 0-4.234 1.769-7.105 5.306-8.611Z" stroke="#FFEC44" stroke-width=".4" mask="url(#a)"/><path d="M190.507 8.329h-9.208V1h26.711v7.329h-9.209V43.75h-8.294V8.33Z" stroke="#FFEC44" stroke-width=".4" mask="url(#a)"/><path d="M226.235 1c2.846 2.32 4.96 5.435 6.343 9.344a36.014 36.014 0 0 1 2.073 12.092c0 4.112-.671 8.02-2.012 11.726-1.342 3.705-3.476 6.901-6.404 9.588h-12.562c-2.928-2.687-5.062-5.883-6.404-9.588-1.342-3.705-2.012-7.614-2.012-11.726 0-4.153.691-8.183 2.073-12.092 1.382-3.909 3.497-7.023 6.343-9.344h12.562Zm-8.477 35.666h4.391c1.017-1.18 1.871-3.094 2.562-5.74.731-2.688 1.097-5.518 1.097-8.49 0-2.972-.345-5.76-1.036-8.367-.692-2.646-1.545-4.56-2.562-5.74h-4.452c-1.016 1.18-1.89 3.094-2.622 5.74-.691 2.606-1.037 5.395-1.037 8.367 0 2.972.346 5.802 1.037 8.49.732 2.646 1.606 4.56 2.622 5.74ZM236.358 1h16.222c2.561.855 4.737 2.443 6.525 4.764 1.83 2.28 2.745 5.089 2.745 8.428 0 5.455-2.155 9.466-6.465 12.03l6.16 17.528h-8.538l-5.184-15.573h-3.232V43.75h-8.233V1Zm8.233 7.329v13.008h5.245c.691-.163 1.443-.855 2.256-2.077.854-1.262 1.281-2.727 1.281-4.397 0-1.669-.366-3.135-1.098-4.397-.691-1.262-1.382-1.975-2.073-2.137h-5.611Zm34.166 15.878 3.232-13.375L284.611 1h7.623l2.745 42.75h-7.989l-1.159-23.33h-.305l-4.391 17.223h-5.001l-4.391-17.222h-.304l-1.159 23.33h-7.989L265.035 1h7.623l2.623 9.832 3.232 13.375h.244Z" stroke="#FFEC44" stroke-width=".4" mask="url(#a)"/><mask id="b" maskUnits="userSpaceOnUse" x="42.284" y="19.911" width="254" height="45" fill="#000"><path fill="#fff" d="M42.284 19.911h254v45h-254z"/><path d="M43.284 63.661v-42.75h17.38c1.993.733 3.761 2.015 5.306 3.848 1.545 1.832 2.318 4.05 2.318 6.657 0 4.6-1.504 7.817-4.513 9.649v.244c3.74 2.077 5.61 5.334 5.61 9.772 0 5.089-2.581 9.282-7.745 12.58H43.285Zm8.294-25.1h6.037c1.79-1.1 2.684-2.769 2.684-5.008 0-2.24-.834-4.01-2.5-5.313h-6.22v10.32Zm0 18.016h6.281c.732-.53 1.383-1.364 1.952-2.504.61-1.14.915-2.28.915-3.42 0-1.14-.244-2.178-.732-3.115-.488-.936-1.098-1.628-1.83-2.076h-6.586v11.115Zm19.209-35.666h16.222c2.56.855 4.736 2.443 6.525 4.764 1.83 2.28 2.744 5.089 2.744 8.428 0 5.455-2.155 9.466-6.464 12.03l6.16 17.528h-8.538l-5.184-15.573H79.02v15.573h-8.233v-42.75Zm8.233 7.329v13.008h5.244c.691-.163 1.444-.855 2.257-2.076.853-1.263 1.28-2.728 1.28-4.398 0-1.669-.365-3.135-1.097-4.397-.691-1.262-1.383-1.974-2.074-2.137h-5.61Z"/><path d="m115.808 63.661-1.281-6.779h-9.636l-1.28 6.78h-8.294l8.233-42.75h12.623l7.806 42.75h-8.171Zm-6.221-34.81-2.378 14.23-1.342 7.267h7.623l-1.403-7.268-2.378-14.23h-.122Zm14.895 34.81v-42.75h8.354v42.75h-8.354Zm30.211 0-11.404-23.634-.305.122.366 7.206v16.306h-7.684v-42.75h6.159l11.222 24.55.305-.121-.671-7.512V20.911h7.684v42.75h-5.672Zm12.379-42.75h14.636v7.329h-11.709l-.183.366 9.757 17.833c1.993 3.583 2.989 6.31 2.989 8.184 0 4.112-1.362 7.125-4.086 9.038h-16.161v-7.084h12.624l.183-.366-10.978-19.727c-1.585-2.85-2.378-5.17-2.378-6.962 0-4.234 1.768-7.104 5.306-8.61Z"/><path d="M190.654 28.24h-9.209v-7.33h26.711v7.329h-9.208V63.66h-8.294V28.24Z"/><path d="M226.382 20.911c2.846 2.32 4.96 5.435 6.342 9.344a36.015 36.015 0 0 1 2.074 12.092c0 4.112-.671 8.021-2.013 11.726-1.342 3.705-3.476 6.901-6.403 9.588h-12.563c-2.927-2.687-5.062-5.883-6.403-9.588-1.342-3.705-2.013-7.614-2.013-11.726 0-4.153.691-8.183 2.074-12.092 1.382-3.909 3.496-7.023 6.342-9.344h12.563Zm-8.477 35.666h4.391c1.016-1.18 1.87-3.094 2.561-5.74.732-2.688 1.098-5.518 1.098-8.49 0-2.972-.346-5.76-1.037-8.367-.691-2.646-1.545-4.56-2.561-5.74h-4.452c-1.016 1.18-1.891 3.094-2.622 5.74-.692 2.606-1.037 5.395-1.037 8.367 0 2.972.345 5.802 1.037 8.49.731 2.646 1.606 4.56 2.622 5.74Zm18.6-35.666h16.222c2.561.855 4.736 2.443 6.525 4.764 1.829 2.28 2.744 5.089 2.744 8.428 0 5.455-2.155 9.466-6.464 12.03l6.159 17.528h-8.538l-5.183-15.573h-3.232v15.573h-8.233v-42.75Zm8.233 7.329v13.008h5.244c.691-.163 1.444-.855 2.257-2.076.853-1.263 1.28-2.728 1.28-4.398 0-1.669-.366-3.135-1.097-4.397-.692-1.262-1.383-1.974-2.074-2.137h-5.61Zm34.165 15.878 3.232-13.374 2.623-9.833h7.623l2.744 42.75h-7.989l-1.159-23.33h-.305l-4.39 17.223h-5.001l-4.391-17.222h-.305l-1.159 23.33h-7.989l2.745-42.75h7.623l2.622 9.832 3.232 13.374h.244Z"/></mask><path d="M43.284 63.661v-42.75h17.38c1.993.733 3.761 2.015 5.306 3.848 1.545 1.832 2.318 4.05 2.318 6.657 0 4.6-1.504 7.817-4.513 9.649v.244c3.74 2.077 5.61 5.334 5.61 9.772 0 5.089-2.581 9.282-7.745 12.58H43.285Zm8.294-25.1h6.037c1.79-1.1 2.684-2.769 2.684-5.008 0-2.24-.834-4.01-2.5-5.313h-6.22v10.32Zm0 18.016h6.281c.732-.53 1.383-1.364 1.952-2.504.61-1.14.915-2.28.915-3.42 0-1.14-.244-2.178-.732-3.115-.488-.936-1.098-1.628-1.83-2.076h-6.586v11.115Zm19.209-35.666h16.222c2.56.855 4.736 2.443 6.525 4.764 1.83 2.28 2.744 5.089 2.744 8.428 0 5.455-2.155 9.466-6.464 12.03l6.16 17.528h-8.538l-5.184-15.573H79.02v15.573h-8.233v-42.75Zm8.233 7.329v13.008h5.244c.691-.163 1.444-.855 2.257-2.076.853-1.263 1.28-2.728 1.28-4.398 0-1.669-.365-3.135-1.097-4.397-.691-1.262-1.383-1.974-2.074-2.137h-5.61Z" fill="#fff"/><path d="m115.808 63.661-1.281-6.779h-9.636l-1.28 6.78h-8.294l8.233-42.75h12.623l7.806 42.75h-8.171Zm-6.221-34.81-2.378 14.23-1.342 7.267h7.623l-1.403-7.268-2.378-14.23h-.122Zm14.895 34.81v-42.75h8.354v42.75h-8.354Zm30.211 0-11.404-23.634-.305.122.366 7.206v16.306h-7.684v-42.75h6.159l11.222 24.55.305-.121-.671-7.512V20.911h7.684v42.75h-5.672Zm12.379-42.75h14.636v7.329h-11.709l-.183.366 9.757 17.833c1.993 3.583 2.989 6.31 2.989 8.184 0 4.112-1.362 7.125-4.086 9.038h-16.161v-7.084h12.624l.183-.366-10.978-19.727c-1.585-2.85-2.378-5.17-2.378-6.962 0-4.234 1.768-7.104 5.306-8.61Z" fill="#fff"/><path d="M190.654 28.24h-9.209v-7.33h26.711v7.329h-9.208V63.66h-8.294V28.24Z" fill="#fff"/><path d="M226.382 20.911c2.846 2.32 4.96 5.435 6.342 9.344a36.015 36.015 0 0 1 2.074 12.092c0 4.112-.671 8.021-2.013 11.726-1.342 3.705-3.476 6.901-6.403 9.588h-12.563c-2.927-2.687-5.062-5.883-6.403-9.588-1.342-3.705-2.013-7.614-2.013-11.726 0-4.153.691-8.183 2.074-12.092 1.382-3.909 3.496-7.023 6.342-9.344h12.563Zm-8.477 35.666h4.391c1.016-1.18 1.87-3.094 2.561-5.74.732-2.688 1.098-5.518 1.098-8.49 0-2.972-.346-5.76-1.037-8.367-.691-2.646-1.545-4.56-2.561-5.74h-4.452c-1.016 1.18-1.891 3.094-2.622 5.74-.692 2.606-1.037 5.395-1.037 8.367 0 2.972.345 5.802 1.037 8.49.731 2.646 1.606 4.56 2.622 5.74Zm18.6-35.666h16.222c2.561.855 4.736 2.443 6.525 4.764 1.829 2.28 2.744 5.089 2.744 8.428 0 5.455-2.155 9.466-6.464 12.03l6.159 17.528h-8.538l-5.183-15.573h-3.232v15.573h-8.233v-42.75Zm8.233 7.329v13.008h5.244c.691-.163 1.444-.855 2.257-2.076.853-1.263 1.28-2.728 1.28-4.398 0-1.669-.366-3.135-1.097-4.397-.692-1.262-1.383-1.974-2.074-2.137h-5.61Zm34.165 15.878 3.232-13.374 2.623-9.833h7.623l2.744 42.75h-7.989l-1.159-23.33h-.305l-4.39 17.223h-5.001l-4.391-17.222h-.305l-1.159 23.33h-7.989l2.745-42.75h7.623l2.622 9.832 3.232 13.374h.244Z" fill="#fff"/><path d="M43.284 63.661v-42.75h17.38c1.993.733 3.761 2.015 5.306 3.848 1.545 1.832 2.318 4.05 2.318 6.657 0 4.6-1.504 7.817-4.513 9.649v.244c3.74 2.077 5.61 5.334 5.61 9.772 0 5.089-2.581 9.282-7.745 12.58H43.285Zm8.294-25.1h6.037c1.79-1.1 2.684-2.769 2.684-5.008 0-2.24-.834-4.01-2.5-5.313h-6.22v10.32Zm0 18.016h6.281c.732-.53 1.383-1.364 1.952-2.504.61-1.14.915-2.28.915-3.42 0-1.14-.244-2.178-.732-3.115-.488-.936-1.098-1.628-1.83-2.076h-6.586v11.115Zm19.209-35.666h16.222c2.56.855 4.736 2.443 6.525 4.764 1.83 2.28 2.744 5.089 2.744 8.428 0 5.455-2.155 9.466-6.464 12.03l6.16 17.528h-8.538l-5.184-15.573H79.02v15.573h-8.233v-42.75Zm8.233 7.329v13.008h5.244c.691-.163 1.444-.855 2.257-2.076.853-1.263 1.28-2.728 1.28-4.398 0-1.669-.365-3.135-1.097-4.397-.691-1.262-1.383-1.974-2.074-2.137h-5.61Z" stroke="#FFEC44" mask="url(#b)"/><path d="m115.808 63.661-1.281-6.779h-9.636l-1.28 6.78h-8.294l8.233-42.75h12.623l7.806 42.75h-8.171Zm-6.221-34.81-2.378 14.23-1.342 7.267h7.623l-1.403-7.268-2.378-14.23h-.122Zm14.895 34.81v-42.75h8.354v42.75h-8.354Zm30.211 0-11.404-23.634-.305.122.366 7.206v16.306h-7.684v-42.75h6.159l11.222 24.55.305-.121-.671-7.512V20.911h7.684v42.75h-5.672Zm12.379-42.75h14.636v7.329h-11.709l-.183.366 9.757 17.833c1.993 3.583 2.989 6.31 2.989 8.184 0 4.112-1.362 7.125-4.086 9.038h-16.161v-7.084h12.624l.183-.366-10.978-19.727c-1.585-2.85-2.378-5.17-2.378-6.962 0-4.234 1.768-7.104 5.306-8.61Z" stroke="#FFEC44" mask="url(#b)"/><path d="M190.654 28.24h-9.209v-7.33h26.711v7.329h-9.208V63.66h-8.294V28.24Z" stroke="#FFEC44" mask="url(#b)"/><path d="M226.382 20.911c2.846 2.32 4.96 5.435 6.342 9.344a36.015 36.015 0 0 1 2.074 12.092c0 4.112-.671 8.021-2.013 11.726-1.342 3.705-3.476 6.901-6.403 9.588h-12.563c-2.927-2.687-5.062-5.883-6.403-9.588-1.342-3.705-2.013-7.614-2.013-11.726 0-4.153.691-8.183 2.074-12.092 1.382-3.909 3.496-7.023 6.342-9.344h12.563Zm-8.477 35.666h4.391c1.016-1.18 1.87-3.094 2.561-5.74.732-2.688 1.098-5.518 1.098-8.49 0-2.972-.346-5.76-1.037-8.367-.691-2.646-1.545-4.56-2.561-5.74h-4.452c-1.016 1.18-1.891 3.094-2.622 5.74-.692 2.606-1.037 5.395-1.037 8.367 0 2.972.345 5.802 1.037 8.49.731 2.646 1.606 4.56 2.622 5.74Zm18.6-35.666h16.222c2.561.855 4.736 2.443 6.525 4.764 1.829 2.28 2.744 5.089 2.744 8.428 0 5.455-2.155 9.466-6.464 12.03l6.159 17.528h-8.538l-5.183-15.573h-3.232v15.573h-8.233v-42.75Zm8.233 7.329v13.008h5.244c.691-.163 1.444-.855 2.257-2.076.853-1.263 1.28-2.728 1.28-4.398 0-1.669-.366-3.135-1.097-4.397-.692-1.262-1.383-1.974-2.074-2.137h-5.61Zm34.165 15.878 3.232-13.374 2.623-9.833h7.623l2.744 42.75h-7.989l-1.159-23.33h-.305l-4.39 17.223h-5.001l-4.391-17.222h-.305l-1.159 23.33h-7.989l2.745-42.75h7.623l2.622 9.832 3.232 13.374h.244Z" stroke="#FFEC44" mask="url(#b)"/><path d="M43.284 84.743V41.408h17.441c2 .743 3.774 2.043 5.324 3.9 1.55 1.857 2.326 4.106 2.326 6.748 0 4.664-1.51 7.924-4.529 9.781v.248c3.754 2.105 5.63 5.407 5.63 9.905 0 5.16-2.59 9.41-7.772 12.754h-18.42ZM51.607 59.3h6.058c1.795-1.114 2.693-2.806 2.693-5.076 0-2.27-.836-4.066-2.51-5.386h-6.241V59.3Zm0 18.263h6.303c.735-.536 1.387-1.382 1.958-2.538.612-1.156.918-2.311.918-3.467 0-1.156-.244-2.208-.734-3.157-.49-.95-1.102-1.651-1.836-2.105h-6.61v11.267Zm19.275-36.155h16.279c2.57.866 4.752 2.476 6.548 4.829 1.835 2.31 2.753 5.159 2.753 8.543 0 5.53-2.162 9.596-6.486 12.196l6.18 17.767H87.59l-5.202-15.786h-3.243v15.787h-8.262V41.407Zm8.262 7.429v13.186h5.263c.693-.165 1.448-.867 2.264-2.105.857-1.28 1.285-2.765 1.285-4.457 0-1.692-.367-3.178-1.101-4.457-.694-1.28-1.388-2.002-2.081-2.167h-5.63Z" fill="#FFEC44"/><path d="m116.06 84.743-1.286-6.871h-9.669l-1.285 6.871h-8.322l8.261-43.335h12.668l7.833 43.335h-8.2Zm-6.242-35.287-2.387 14.424-1.346 7.367h7.649l-1.407-7.367-2.387-14.424h-.122Zm14.946 35.287V41.408h8.384v43.335h-8.384Zm30.316 0-11.443-23.958-.306.124.367 7.305v16.53h-7.711V41.407h6.181l11.26 24.887.306-.124-.673-7.615V41.408h7.711v43.335h-5.692Zm12.422-43.335h14.687v7.429h-11.75l-.183.371 9.791 18.077c1.999 3.632 2.999 6.398 2.999 8.296 0 4.169-1.367 7.223-4.1 9.162h-16.217v-7.18h12.667l.184-.372-11.016-19.997c-1.591-2.889-2.386-5.241-2.386-7.057 0-4.293 1.774-7.202 5.324-8.73Z" fill="#FFEC44"/><path d="M191.166 48.837h-9.24v-7.43h26.804v7.43h-9.241v35.906h-8.323V48.837Z" fill="#FFEC44"/><path d="M227.018 41.408c2.856 2.352 4.978 5.51 6.365 9.472a36.837 36.837 0 0 1 2.08 12.258c0 4.168-.673 8.13-2.019 11.886-1.346 3.756-3.488 6.995-6.426 9.72h-12.606c-2.938-2.725-5.08-5.964-6.426-9.72-1.346-3.756-2.019-7.718-2.019-11.886 0-4.21.693-8.296 2.08-12.258 1.387-3.962 3.509-7.12 6.365-9.472h12.606Zm-8.506 36.154h4.406c1.02-1.197 1.877-3.136 2.57-5.82.735-2.723 1.102-5.592 1.102-8.605 0-3.012-.347-5.84-1.04-8.48-.694-2.684-1.551-4.623-2.571-5.82h-4.467c-1.02 1.197-1.897 3.136-2.631 5.82-.694 2.64-1.041 5.468-1.041 8.48 0 3.013.347 5.882 1.041 8.606.734 2.683 1.611 4.622 2.631 5.82Zm18.664-36.154h16.279c2.57.866 4.753 2.476 6.548 4.829 1.836 2.31 2.753 5.159 2.753 8.543 0 5.53-2.162 9.596-6.486 12.196l6.18 17.767h-8.567l-5.202-15.786h-3.243v15.787h-8.262V41.407Zm8.262 7.429v13.186h5.263c.693-.165 1.448-.867 2.264-2.105.857-1.28 1.285-2.765 1.285-4.457 0-1.692-.367-3.178-1.101-4.457-.694-1.28-1.387-2.002-2.081-2.167h-5.63Zm34.284 16.096 3.244-13.558 2.631-9.967h7.65L296 84.743h-8.016l-1.163-23.648h-.306l-4.406 17.458h-5.018l-4.406-17.459h-.306l-1.163 23.65h-8.017l2.754-43.336h7.65l2.631 9.967 3.243 13.558h.245Z" fill="#FFEC44"/><path d="M237.176 41.408h16.279c2.57.866 4.753 2.476 6.548 4.829 1.836 2.31 2.753 5.159 2.753 8.543 0 5.53-2.162 9.596-6.486 12.196l6.18 17.767h-8.567l-5.202-15.786h-3.243v15.787h-8.262V41.407Zm8.262 7.429v13.186h5.263c.693-.165 1.448-.867 2.264-2.105.857-1.28 1.285-2.765 1.285-4.457 0-1.692-.367-3.178-1.101-4.457-.694-1.28-1.387-2.002-2.081-2.167h-5.63Zm34.284 16.096 3.244-13.558 2.631-9.967h7.65L296 84.743h-8.016l-1.163-23.648h-.306l-4.406 17.458h-5.018l-4.406-17.459h-.306l-1.163 23.65h-8.017l2.754-43.336h7.65l2.631 9.967 3.243 13.558h.245Z" fill="#FFEC44"/><path d="M9.97 107.5c1.611-1.116 15.21-42.755 23.15-51.76 5.835-6.62 11.024-1.018 13.958 4.847 3.807 7.613 7.205 12.285 11.934 17.672 3.066 3.494 7.95 7.778 12.726 8.69 3.826.73 9.595.615 12.58-2.272 2.777-2.686 6.602-7.007 6.783-11.033.08-1.786-.196-3.667-2.553-2.2-1.038.647-2.11 1.831-2.764 2.825-.875 1.332-1.299 2.207-1.973 3.82-1.243 2.977-1.571 6.673-1.571 9.977 0 1.996-.552 5.011 2.078 6.226 1.32.439 2.635.385 3.885-1.069.779-.906.971-2.071.929-3.21-.092-2.44-4.663-3.065-6.746-2.427-.986.276-1.15.702 0 1.219.744.334 1.75.572 2.555.572.989 0 2.053-.05 3.035-.2 1.549-.236 3.15-.846 4.53-1.59 1.883-.869 2.249-1.351 2.62-1.435.023-.023-1.115 1.806-1.129 2.653-.175 1.557.262 3.12.98 3.864 4.141 3.536 7.71-6.622 4.24-6.929 0 0-1.253.111-1.983.496-.731.385-1.351.907-.7 1.09 1.11.314 3.302.505 4.79.26.495-.123 1.664-.482 2.221-.743.729-.343 1.674-.735 2.293-1.103.258-.153-.765 1.317-.992 2.326-.635 2.826-.124 5.222 2.355 5.157 1.907 0 3.322-1.84 3.919-3.445.354-.95.483-3.223-.674-3.731-.63-.277-2.997-.692-3.493.796-.33.991 1.626.988 2.552.988.927 0 3.086-.245 3.086-.245s.859-.18 2.335-.386c2.886-.4 7.394-.8 7.394-.8s-3.156-1.075-3.63-.191c-.835 1.56 1.831 1.397 3.005 2.686 1.926 2.116-5.765 6.923-5.765 2.506 0-1.625 4.648-1.081 6.093-1.136 1.483-.056 2.69-.391 4.321-1.011 1.957-.745 4.159-3.877 4.744-5.485.364-1 .731-2.777.902-4.53.056-.582.147-2.273-.171-2.485-.439-.292-1.128 2.359-1.316 3.508-.397 2.44-.863 5.985-.863 8.46 0 1.574-.163 2.95 1.156 4.255.751.743 2.192.607 3.452.122 1.882-.725 3.281-2.036 4.14-3.14.901-1.159 2.03-2.4 1.94-3.912-.066-1.11-1.312-1.526-2.693-.391-.882.726-1.631 1.985-1.081 5.096.705 2.099 1.413 2.98 2.572 3.248 1.9.438 3.1-.515 3.974-1.626.872-1.109 1.495-2.826 1.495-4.218V86.37c0-.977-.398-1.043-.812-.715-1.243.983 1.17 2.109 2.259 2.357.627.143 1.324.305 2.163.305 1.036 0 1.224-.305 1.568-.925.23-.182.223-1.377 0-1.599-.501-.494-1.182.658-1.348.854-.697.828-1.129 2.075-1.505 3.102-.273.744-.694 1.756-.694 2.624 0 1.298.353 1.626.791 2.064 1.188.877 2.368.585 3.654 0 1.608-.73 2.484-1.169 3.946-2.064 3.946-2.32 23.801-14.456 31.011-9.896 5.804 2.877 14.944-3.728 28.115-7.535 5.852-1.692 10.419-2.748 23.309 2.334m-110.308 4.539h8.7" stroke="#FC4545" stroke-width=".8" stroke-linecap="round"/><path d="M39.135 66.935c-6.029-6.769-21.528 7.791-23.79 10.4-4.452 5.133-8.687 10.41-10.45 17.102-.794 3.01-1.417 6.421 1.83 8.086 3.893 1.996 8.854 1.423 12.93.455 8.956-2.129 20.267-7.678 19.329-18.465-.448-5.142-2.885-10.14-8.641-10.14-7.905 0-16.592 5.09-22.583 9.772-5.798 4.531-10.053 14.362-3.318 20.022 3.05 2.562 7.195 3.095 11.032 3.113 6.997.033 14.39-1.103 20.04-5.578 4.405-3.489 7.998-8.647 6.422-14.486-1.527-5.658-5.633-11.23-10.128-14.876-2.861-2.32-6.28-4.07-9.804-5.103-3.226-.945-8.463-2.257-11.744-.756-5.445 2.49-.99 15.454.625 18.335 5.08 9.067 14.216 14.438 23.961 17.189 2.358.665 13.19 3.776 15.3.108.959-1.669-1-4.984-1.724-6.4-1.514-2.965-3.829-5.168-6.335-7.308-5.505-4.702-11.79-6.187-19.028-5.946-4.54.15-8.772.45-12.26 3.762-2.964 2.812-3.483 6.69-4.116 10.443-.615 3.647-2 10.392.258 13.903 1.884 2.929 6.365.99 8.641-.108 9.15-4.417 16.069-12.424 21.872-20.563 3.963-5.558 8.588-12.297 9.697-19.264.247-1.556.572-5.53-1.401-6.443-1.996-.925-5.369 1.798-6.615 2.746Zm0 0c-5.252 3.99-9.986 8.86-14.438 13.708-3.43 3.735-6.645 7.669-8.835 12.28-.722 1.522-4.45 9.171-1.465 10.422 2.02.847 4.881.355 6.896-.043 5.467-1.082 10.831-3.216 15.428-6.4 3.124-2.164 6.648-5.013 7.908-8.778 1.221-3.648-.531-7.908-2.305-11.049-3.23-5.72-8.896-9.501-15.472-9.794-6.675-.298-25.543 2.04-19.221 13.34.568 1.015 1.882 3.028 3.06 3.395 2.88.896 8.306.006 10.515-.303 5.298-.741 15.76-2.718 21.031-3.806 3.026-.624 10.57-1.011 8.62-3.416-.853-1.052-2.34-1.612-3.62-1.86-1.995-.383-3.88-.09-5.861.26-5.304.938-10.584 2-15.903 2.854-4.437.713-8.893 1.37-13.36 1.86-.636.07-1.155-.028-1.638.432-3.052 2.906-8.748 6.817-8.748 11.46 0 1.148.204 1.35 1.379 1.6 5.758 1.227 11.806.481 17.626.216" stroke="#FC4545" stroke-width=".8" stroke-linecap="round"/><path d="M245.5 82.5c12 8 35.5 28.5 45 43.5 19.633 31 17 60 8 75.5-9.662 16.64-39.5 29-86 22.5-49.25-6.884-99.069-13.287-132.5-9.5-46 5.211-57.5 27.5-66 47C6.708 278.228 2.918 322 14 365c10.052 39-4.5 46.5-9.5 70" stroke="#FC4545" stroke-width=".8"/></svg>