<svg width="1262" height="1013" fill="none" xmlns="http://www.w3.org/2000/svg"><path d="M991.001 311c9.499 4.5 9.619 8.5 37.499 58.5 14.5 26 54.82 137.086 91.91 97 45.71-49.407 131.26-27.407 139.09 33.925 7.83 61.332-32.23 78.451-32.23 107.711-4.66 37.742 1.12 24.39-8.48 44.527-13.57 5.937 5.51.848-3.82 15.266 3.82 5.513 3.82 9.329 0 13.146 4.25 7.209 0 9.329-5.08 11.874-4.24 17.386-24.61 19.394-40.89 14.644-20.36-5.937-14.5-39.664-48.59-39.664-67.85-19.507-68.08-86.932-49-72.938S1026 672.5 953.5 724c-87.084 61.859-160 69.958-287.5 84-50.472 3.672-108.5 9-186 0-50.66-5.883-47.437-8.727-84-17.584-64.204-15.554-92.47-28.46-135.3-39.062C182.5 724 119.774 770.5 115 831.5c-4.5 57.5-11.5 151.5 0 180" stroke="#FC4545" stroke-width="2" stroke-linecap="round"/><path d="M1172.56 613.226c.89-4.476 1.28-7.101 1.28-9.588v-14.942c0-2.752.22-5.908 0-8.257-.59-6.291-.73-7.864-1.97-15.335-.59-2.3-1.18-6.291-1.58-8.65-.55-3.271-.94-4.935-1.97-9.044-.4-1.572-1.46-4.726-1.98-5.898 0 0-1.78-4.555-2.36-6.291-1.19-3.539-3.31-7.864-5.14-11.796-2.36-5.111-3.55-7.864-6.31-12.582-1.84-3.146-4.09-6.775-5.53-9.437-.85-1.587-1.97-4.325-3.94-6.291-.4-.393-1.98-1.868-3.95-.393-1.18 1.179-.79 3.539 1.18 5.111.86.912 2.32 1.674 3.56 2.359 2.1 1.165 3.15 1.967 6.71 3.539 3.94 1.478 7.24 1.478 11.55 1.478 2.82 0 5.26-.273 7.71-1.825 2.68-1.699 2.74-3.167 2.74-6.486 0-1.559-2.9-4.878-4.22-2.635-1.23 2.085-.81 4.643-.81 7.094 0 1.04-.06 2.833.73 3.624.46.454 1.68 2.232 2.12 2.407 2.74 1.095 4.91 1.469 7.88 1.469 2.42 0 6.42-1.078 8.06-2.99 1.15-1.328 2.59-5.48 1.73-7.398-.6-1.351-2.75-1.481-3.94 0-1.14 1.415-.72 5.12-.53 6.74.3 2.727 2.76 4.985 5.06 6.131 4.93 2.457 10.07-1.711 11.65-6.822.87-2.826.79-5.112-.79-5.505-1.92-.477-2.95 2.237-3.01 3.687-.22 5.855 3.4 7.322 7.89 6.157 3.41-.884 5.26-2.354 7.1-3.192 2.39-1.09 4.99-2.438 4.99-5.079 0-3.366-3.65-.394-4.99 2.114-2.24 4.177-4.3 7.865-6.31 11.326-3.21 5.539-5.42 11.538-7.25 17.622-.95 3.146-1.71 5.819-2.47 8.678-1.13 4.263-2.22 8.44-2.77 12.821-.51 4.067-1.16 8.279-1.86 12.317-.64 3.595-.79 6.684-1.19 10.616-.59 5.898-1.04 10.452-1.04 15.883 0 5.221.45 9.848 1.38 14.938.42 2.291.45 2.994 1.63 6.926.71 2.359 2.01 4.218 3.16 6.291 2.77 3.932 2.77 3.146 4 4.581.38.59.21.456-.5.456h-14.21c-2.67 0-7.5 0-12.63.619-2.78.336-8.37.814-8.29 2.36.16 2.883 8.29 2.163 16.78 2.163 7.3 0 12.1-.946 16.38 0 1.09.243 4.15 1.087 2.37 2.865-1.11 1.1-2.37 1.207-5.53 1.656-2.76.393-4.45.537-7.09.928-6.13.645-3.96.252-9.49 1.038-3.55.505-5.13.786-7.89 1.966-1.58.786-2.37 1.296-2.37 1.966 0 2.157 10.98 2.226 12.94 2.226h9.16c1.92 0 6.52.138 7.5 2.099.94 2.965-.25 3.862-2.76 5.112-2.7 1.344-4.34 1.394-7.9 2.359-2.54.691-6.71 1.18-9.23 2.718-2.61 1.214-2.33 4.312.05 4.561 1.24.13 6.39 1.217 6.58 2.762" stroke="#ACACAC" stroke-width="2" stroke-linecap="round"/><path d="M152.286 334.526c-23.756-26.584-84.838 30.602-93.752 40.847-17.546 20.163-34.235 40.889-41.187 67.172-3.128 11.823-5.583 25.218 7.218 31.761 15.338 7.839 34.892 5.587 50.953 1.783 35.295-8.359 79.873-30.155 76.174-72.522-1.763-20.197-11.37-39.828-34.054-39.828-31.152 0-65.388 19.996-88.997 38.384-22.848 17.796-39.62 56.408-13.077 78.637 12.017 10.065 28.355 12.158 43.479 12.229 27.574.128 56.708-4.333 78.976-21.91 17.358-13.701 31.518-33.96 25.307-56.897-6.017-22.222-22.198-44.106-39.913-58.426-11.276-9.115-24.753-15.987-38.639-20.041-12.713-3.711-33.35-8.867-46.282-2.972-21.456 9.781-3.898 60.698 2.463 72.013 20.023 35.614 56.027 56.707 94.432 67.512 9.29 2.614 51.981 14.833 60.294.424 3.78-6.552-3.944-19.575-6.794-25.136-5.967-11.644-15.089-20.295-24.967-28.703-21.694-18.468-46.464-24.299-74.985-23.354-17.89.593-34.572 1.772-48.32 14.776-11.677 11.047-13.726 26.28-16.22 41.017-2.424 14.322-7.878 40.814 1.02 54.605 7.423 11.506 25.081 3.891 34.053-.425 36.056-17.346 63.324-48.796 86.194-80.76 15.621-21.831 33.848-48.299 38.215-75.665.975-6.111 2.255-21.718-5.52-25.306-7.867-3.631-21.158 7.065-26.071 10.785Zm0 0c-20.695 15.67-39.354 34.799-56.897 53.84-13.518 14.672-26.188 30.122-34.817 48.235-2.847 5.976-17.536 36.017-5.775 40.932 7.958 3.326 19.236 1.396 27.175-.17 21.547-4.25 42.687-12.63 60.803-25.136 12.311-8.499 26.198-19.687 31.166-34.478 4.812-14.328-2.095-31.057-9.086-43.395-12.732-22.468-35.059-37.317-60.974-38.469-26.305-1.169-100.665 8.015-75.75 52.396 2.239 3.987 7.416 11.892 12.06 13.333 11.348 3.52 32.735.024 41.441-1.189 20.877-2.911 62.109-10.674 82.883-14.946 11.924-2.453 41.651-3.974 33.968-13.418-3.361-4.131-9.218-6.334-14.266-7.303-7.862-1.509-15.293-.357-23.099 1.019-20.903 3.684-41.709 7.854-62.672 11.209-17.484 2.8-35.045 5.383-52.65 7.304-2.506.273-4.551-.108-6.455 1.698C27.313 397.4 4.863 412.762 4.863 430.996c0 4.512.807 5.301 5.435 6.284 22.694 4.823 46.527 1.892 69.466.85" stroke="#FC4545" stroke-width="2.5" stroke-linecap="round"/><mask id="a" maskUnits="userSpaceOnUse" x="198.484" y="0" width="995" height="170" fill="#000"><path fill="#fff" d="M198.484 0h995v170h-995z"/><path d="M199.484 168.907V1h68.496c7.851 2.878 14.82 7.916 20.909 15.112 6.088 7.196 9.133 15.91 9.133 26.145 0 18.07-5.929 30.703-17.785 37.9v.959c14.74 8.155 22.111 20.948 22.111 38.378 0 19.989-10.174 36.46-30.523 49.413h-72.341Zm32.686-98.585h23.793c7.05-4.318 10.575-10.874 10.575-19.67 0-8.795-3.285-15.75-9.854-20.868H232.17v40.538Zm0 70.76h24.754c2.884-2.079 5.448-5.357 7.691-9.834 2.403-4.478 3.605-8.955 3.605-13.433 0-4.477-.961-8.555-2.884-12.233-1.923-3.678-4.326-6.396-7.21-8.155H232.17v43.655ZM307.87 1h63.929c10.094 3.358 18.666 9.595 25.716 18.71 7.21 8.955 10.815 19.989 10.815 33.101 0 21.428-8.491 37.18-25.475 47.254l24.274 68.842h-33.647l-20.429-61.166h-12.738v61.166H307.87V1Zm32.445 28.784v51.092h20.669c2.724-.64 5.688-3.358 8.893-8.156 3.364-4.957 5.047-10.714 5.047-17.27 0-6.556-1.442-12.313-4.326-17.27-2.724-4.958-5.448-7.756-8.172-8.396h-22.111Z"/><path d="m485.294 168.907-5.047-26.625h-37.973l-5.047 26.625h-32.686L436.987 1h49.749l30.763 167.907h-32.205ZM460.78 32.183l-9.373 55.889-5.287 28.544h30.042l-5.528-28.544-9.373-55.89h-.481Zm58.698 136.724V1h32.927v167.907h-32.927Zm119.063 0-44.943-92.829-1.202.48 1.442 28.304v64.045h-30.282V1h24.274l44.222 96.427 1.201-.48-2.643-29.504V1h30.282v167.907h-22.351ZM687.323 1h57.681v28.784h-46.145l-.721 1.44 38.454 70.04c7.851 14.073 11.777 24.787 11.777 32.143 0 16.151-5.368 27.984-16.103 35.5h-63.689v-27.825h49.75l.721-1.439-43.261-77.477c-6.249-11.194-9.373-20.309-9.373-27.345 0-16.63 6.97-27.904 20.909-33.821Z"/><path d="M780.26 29.784h-36.291V1h105.268v28.784h-36.291v139.123H780.26V29.784Z"/><path d="M921.062 1c11.215 9.115 19.547 21.348 24.995 36.7 5.447 15.351 8.171 31.182 8.171 47.493 0 16.151-2.644 31.503-7.931 46.055-5.288 14.552-13.699 27.105-25.235 37.659h-49.51c-11.536-10.554-19.948-23.107-25.235-37.659-5.287-14.552-7.931-29.904-7.931-46.055 0-16.31 2.724-32.142 8.171-47.493 5.448-15.352 13.78-27.585 24.995-36.7h49.51Zm-33.407 140.082h17.304c4.006-4.637 7.37-12.153 10.094-22.547 2.884-10.554 4.326-21.668 4.326-33.342 0-11.673-1.362-22.627-4.086-32.861-2.723-10.395-6.088-17.91-10.094-22.548h-17.544c-4.006 4.638-7.451 12.153-10.335 22.547-2.724 10.235-4.085 21.189-4.085 32.862 0 11.674 1.361 22.788 4.085 33.342 2.884 10.394 6.329 17.91 10.335 22.547ZM960.955 1h63.925c10.1 3.358 18.67 9.595 25.72 18.71 7.21 8.955 10.82 19.989 10.82 33.101 0 21.428-8.5 37.18-25.48 47.254l24.27 68.842h-33.64l-20.43-61.166h-12.739v61.166h-32.446V1Zm32.446 28.784v51.092h20.669c2.72-.64 5.69-3.358 8.89-8.156 3.37-4.957 5.05-10.714 5.05-17.27 0-6.556-1.44-12.313-4.33-17.27-2.72-4.958-5.44-7.756-8.17-8.396h-22.109ZM1128.05 92.15l12.73-52.531L1151.12 1h30.04l10.81 167.907h-31.48l-4.57-91.63h-1.2l-17.3 67.643h-19.71l-17.3-67.642h-1.2l-4.57 91.629h-31.49L1073.97 1h30.04l10.34 38.619 12.73 52.53h.97Z"/></mask><path d="M199.484 168.907V1h68.496c7.851 2.878 14.82 7.916 20.909 15.112 6.088 7.196 9.133 15.91 9.133 26.145 0 18.07-5.929 30.703-17.785 37.9v.959c14.74 8.155 22.111 20.948 22.111 38.378 0 19.989-10.174 36.46-30.523 49.413h-72.341Zm32.686-98.585h23.793c7.05-4.318 10.575-10.874 10.575-19.67 0-8.795-3.285-15.75-9.854-20.868H232.17v40.538Zm0 70.76h24.754c2.884-2.079 5.448-5.357 7.691-9.834 2.403-4.478 3.605-8.955 3.605-13.433 0-4.477-.961-8.555-2.884-12.233-1.923-3.678-4.326-6.396-7.21-8.155H232.17v43.655ZM307.87 1h63.929c10.094 3.358 18.666 9.595 25.716 18.71 7.21 8.955 10.815 19.989 10.815 33.101 0 21.428-8.491 37.18-25.475 47.254l24.274 68.842h-33.647l-20.429-61.166h-12.738v61.166H307.87V1Zm32.445 28.784v51.092h20.669c2.724-.64 5.688-3.358 8.893-8.156 3.364-4.957 5.047-10.714 5.047-17.27 0-6.556-1.442-12.313-4.326-17.27-2.724-4.958-5.448-7.756-8.172-8.396h-22.111Z" fill="#fff"/><path d="m485.294 168.907-5.047-26.625h-37.973l-5.047 26.625h-32.686L436.987 1h49.749l30.763 167.907h-32.205ZM460.78 32.183l-9.373 55.889-5.287 28.544h30.042l-5.528-28.544-9.373-55.89h-.481Zm58.698 136.724V1h32.927v167.907h-32.927Zm119.063 0-44.943-92.829-1.202.48 1.442 28.304v64.045h-30.282V1h24.274l44.222 96.427 1.201-.48-2.643-29.504V1h30.282v167.907h-22.351ZM687.323 1h57.681v28.784h-46.145l-.721 1.44 38.454 70.04c7.851 14.073 11.777 24.787 11.777 32.143 0 16.151-5.368 27.984-16.103 35.5h-63.689v-27.825h49.75l.721-1.439-43.261-77.477c-6.249-11.194-9.373-20.309-9.373-27.345 0-16.63 6.97-27.904 20.909-33.821Z" fill="#fff"/><path d="M780.26 29.784h-36.291V1h105.268v28.784h-36.291v139.123H780.26V29.784Z" fill="#fff"/><path d="M921.062 1c11.215 9.115 19.547 21.348 24.995 36.7 5.447 15.351 8.171 31.182 8.171 47.493 0 16.151-2.644 31.503-7.931 46.055-5.288 14.552-13.699 27.105-25.235 37.659h-49.51c-11.536-10.554-19.948-23.107-25.235-37.659-5.287-14.552-7.931-29.904-7.931-46.055 0-16.31 2.724-32.142 8.171-47.493 5.448-15.352 13.78-27.585 24.995-36.7h49.51Zm-33.407 140.082h17.304c4.006-4.637 7.37-12.153 10.094-22.547 2.884-10.554 4.326-21.668 4.326-33.342 0-11.673-1.362-22.627-4.086-32.861-2.723-10.395-6.088-17.91-10.094-22.548h-17.544c-4.006 4.638-7.451 12.153-10.335 22.547-2.724 10.235-4.085 21.189-4.085 32.862 0 11.674 1.361 22.788 4.085 33.342 2.884 10.394 6.329 17.91 10.335 22.547ZM960.955 1h63.925c10.1 3.358 18.67 9.595 25.72 18.71 7.21 8.955 10.82 19.989 10.82 33.101 0 21.428-8.5 37.18-25.48 47.254l24.27 68.842h-33.64l-20.43-61.166h-12.739v61.166h-32.446V1Zm32.446 28.784v51.092h20.669c2.72-.64 5.69-3.358 8.89-8.156 3.37-4.957 5.05-10.714 5.05-17.27 0-6.556-1.44-12.313-4.33-17.27-2.72-4.958-5.44-7.756-8.17-8.396h-22.109ZM1128.05 92.15l12.73-52.531L1151.12 1h30.04l10.81 167.907h-31.48l-4.57-91.63h-1.2l-17.3 67.643h-19.71l-17.3-67.642h-1.2l-4.57 91.629h-31.49L1073.97 1h30.04l10.34 38.619 12.73 52.53h.97Z" fill="#fff"/><path d="M199.484 168.907V1h68.496c7.851 2.878 14.82 7.916 20.909 15.112 6.088 7.196 9.133 15.91 9.133 26.145 0 18.07-5.929 30.703-17.785 37.9v.959c14.74 8.155 22.111 20.948 22.111 38.378 0 19.989-10.174 36.46-30.523 49.413h-72.341Zm32.686-98.585h23.793c7.05-4.318 10.575-10.874 10.575-19.67 0-8.795-3.285-15.75-9.854-20.868H232.17v40.538Zm0 70.76h24.754c2.884-2.079 5.448-5.357 7.691-9.834 2.403-4.478 3.605-8.955 3.605-13.433 0-4.477-.961-8.555-2.884-12.233-1.923-3.678-4.326-6.396-7.21-8.155H232.17v43.655ZM307.87 1h63.929c10.094 3.358 18.666 9.595 25.716 18.71 7.21 8.955 10.815 19.989 10.815 33.101 0 21.428-8.491 37.18-25.475 47.254l24.274 68.842h-33.647l-20.429-61.166h-12.738v61.166H307.87V1Zm32.445 28.784v51.092h20.669c2.724-.64 5.688-3.358 8.893-8.156 3.364-4.957 5.047-10.714 5.047-17.27 0-6.556-1.442-12.313-4.326-17.27-2.724-4.958-5.448-7.756-8.172-8.396h-22.111Z" stroke="#FFEC44" mask="url(#a)"/><path d="m485.294 168.907-5.047-26.625h-37.973l-5.047 26.625h-32.686L436.987 1h49.749l30.763 167.907h-32.205ZM460.78 32.183l-9.373 55.889-5.287 28.544h30.042l-5.528-28.544-9.373-55.89h-.481Zm58.698 136.724V1h32.927v167.907h-32.927Zm119.063 0-44.943-92.829-1.202.48 1.442 28.304v64.045h-30.282V1h24.274l44.222 96.427 1.201-.48-2.643-29.504V1h30.282v167.907h-22.351ZM687.323 1h57.681v28.784h-46.145l-.721 1.44 38.454 70.04c7.851 14.073 11.777 24.787 11.777 32.143 0 16.151-5.368 27.984-16.103 35.5h-63.689v-27.825h49.75l.721-1.439-43.261-77.477c-6.249-11.194-9.373-20.309-9.373-27.345 0-16.63 6.97-27.904 20.909-33.821Z" stroke="#FFEC44" mask="url(#a)"/><path d="M780.26 29.784h-36.291V1h105.268v28.784h-36.291v139.123H780.26V29.784Z" stroke="#FFEC44" mask="url(#a)"/><path d="M921.062 1c11.215 9.115 19.547 21.348 24.995 36.7 5.447 15.351 8.171 31.182 8.171 47.493 0 16.151-2.644 31.503-7.931 46.055-5.288 14.552-13.699 27.105-25.235 37.659h-49.51c-11.536-10.554-19.948-23.107-25.235-37.659-5.287-14.552-7.931-29.904-7.931-46.055 0-16.31 2.724-32.142 8.171-47.493 5.448-15.352 13.78-27.585 24.995-36.7h49.51Zm-33.407 140.082h17.304c4.006-4.637 7.37-12.153 10.094-22.547 2.884-10.554 4.326-21.668 4.326-33.342 0-11.673-1.362-22.627-4.086-32.861-2.723-10.395-6.088-17.91-10.094-22.548h-17.544c-4.006 4.638-7.451 12.153-10.335 22.547-2.724 10.235-4.085 21.189-4.085 32.862 0 11.674 1.361 22.788 4.085 33.342 2.884 10.394 6.329 17.91 10.335 22.547ZM960.955 1h63.925c10.1 3.358 18.67 9.595 25.72 18.71 7.21 8.955 10.82 19.989 10.82 33.101 0 21.428-8.5 37.18-25.48 47.254l24.27 68.842h-33.64l-20.43-61.166h-12.739v61.166h-32.446V1Zm32.446 28.784v51.092h20.669c2.72-.64 5.69-3.358 8.89-8.156 3.37-4.957 5.05-10.714 5.05-17.27 0-6.556-1.44-12.313-4.33-17.27-2.72-4.958-5.44-7.756-8.17-8.396h-22.109ZM1128.05 92.15l12.73-52.531L1151.12 1h30.04l10.81 167.907h-31.48l-4.57-91.63h-1.2l-17.3 67.643h-19.71l-17.3-67.642h-1.2l-4.57 91.629h-31.49L1073.97 1h30.04l10.34 38.619 12.73 52.53h.97Z" stroke="#FFEC44" mask="url(#a)"/><mask id="b" maskUnits="userSpaceOnUse" x="199.059" y="78.203" width="995" height="170" fill="#000"><path fill="#fff" d="M199.059 78.203h995v170h-995z"/><path d="M200.059 247.11V79.203h68.496c7.851 2.879 14.82 7.916 20.909 15.112 6.088 7.196 9.133 15.911 9.133 26.145 0 18.07-5.929 30.703-17.785 37.899v.96c14.74 8.155 22.111 20.948 22.111 38.378 0 19.989-10.174 36.46-30.523 49.413h-72.341Zm32.686-98.585h23.793c7.05-4.318 10.575-10.874 10.575-19.669 0-8.796-3.285-15.752-9.854-20.869h-24.514v40.538Zm0 70.76h24.754c2.884-2.078 5.448-5.357 7.691-9.834 2.403-4.478 3.605-8.955 3.605-13.433 0-4.477-.961-8.555-2.884-12.233-1.923-3.678-4.326-6.396-7.21-8.155h-25.956v43.655Zm75.7-140.082h63.929c10.094 3.358 18.666 9.595 25.716 18.71 7.21 8.955 10.815 19.989 10.815 33.101 0 21.429-8.492 37.18-25.475 47.254l24.274 68.842h-33.647l-20.429-61.166H340.89v61.166h-32.445V79.203Zm32.445 28.784v51.092h20.669c2.724-.64 5.688-3.358 8.893-8.156 3.364-4.957 5.047-10.714 5.047-17.27 0-6.556-1.442-12.313-4.326-17.27-2.724-4.958-5.448-7.756-8.172-8.396H340.89Z"/><path d="m485.869 247.11-5.047-26.625h-37.973l-5.047 26.625h-32.686l32.446-167.907h49.749l30.763 167.907h-32.205Zm-24.514-136.724-9.373 55.889-5.287 28.544h30.042l-5.528-28.544-9.373-55.889h-.481Zm58.698 136.724V79.203h32.926V247.11h-32.926Zm119.063 0-44.943-92.828-1.202.479 1.442 28.305v64.044h-30.282V79.203h24.274l44.221 96.427 1.202-.48-2.644-29.504V79.203h30.283V247.11h-22.351Zm48.782-167.907h57.681v28.784h-46.145l-.721 1.439 38.454 70.042c7.851 14.072 11.777 24.786 11.777 32.142 0 16.151-5.368 27.984-16.103 35.5h-63.689v-27.825h49.75l.721-1.439-43.261-77.477c-6.249-11.194-9.373-20.309-9.373-27.345 0-16.63 6.97-27.904 20.909-33.82Z"/><path d="M780.835 107.987h-36.291V79.203h105.268v28.784h-36.291V247.11h-32.686V107.987Z"/><path d="M921.636 79.203c11.216 9.115 19.548 21.348 24.995 36.7 5.448 15.351 8.172 31.183 8.172 47.493 0 16.152-2.644 31.503-7.931 46.055-5.288 14.552-13.699 27.105-25.236 37.659h-49.509c-11.536-10.554-19.948-23.107-25.235-37.659-5.288-14.552-7.931-29.903-7.931-46.055 0-16.31 2.724-32.142 8.171-47.493 5.448-15.352 13.779-27.585 24.995-36.7h49.509ZM888.23 219.285h17.304c4.005-4.637 7.37-12.153 10.094-22.547 2.884-10.554 4.326-21.668 4.326-33.342 0-11.673-1.362-22.627-4.086-32.861-2.723-10.395-6.088-17.91-10.094-22.548H888.23c-4.006 4.638-7.451 12.153-10.335 22.548-2.724 10.234-4.085 21.188-4.085 32.861 0 11.674 1.361 22.788 4.085 33.342 2.884 10.394 6.329 17.91 10.335 22.547Zm73.3-140.082h63.93c10.09 3.358 18.67 9.595 25.72 18.71 7.21 8.955 10.81 19.989 10.81 33.101 0 21.429-8.49 37.18-25.47 47.254l24.27 68.842h-33.65l-20.43-61.166h-12.734v61.166H961.53V79.203Zm32.446 28.784v51.092h20.664c2.73-.64 5.69-3.358 8.9-8.156 3.36-4.957 5.04-10.714 5.04-17.27 0-6.556-1.44-12.313-4.32-17.27-2.73-4.958-5.45-7.756-8.17-8.396h-22.114Zm134.644 62.366 12.74-52.531 10.33-38.619h30.04l10.82 167.907h-31.48l-4.57-91.629h-1.2l-17.31 67.642h-19.7l-17.31-67.642h-1.2l-4.57 91.629h-31.48l10.81-167.907h30.05l10.33 38.619 12.74 52.531h.96Z"/></mask><path d="M200.059 247.11V79.203h68.496c7.851 2.879 14.82 7.916 20.909 15.112 6.088 7.196 9.133 15.911 9.133 26.145 0 18.07-5.929 30.703-17.785 37.899v.96c14.74 8.155 22.111 20.948 22.111 38.378 0 19.989-10.174 36.46-30.523 49.413h-72.341Zm32.686-98.585h23.793c7.05-4.318 10.575-10.874 10.575-19.669 0-8.796-3.285-15.752-9.854-20.869h-24.514v40.538Zm0 70.76h24.754c2.884-2.078 5.448-5.357 7.691-9.834 2.403-4.478 3.605-8.955 3.605-13.433 0-4.477-.961-8.555-2.884-12.233-1.923-3.678-4.326-6.396-7.21-8.155h-25.956v43.655Zm75.7-140.082h63.929c10.094 3.358 18.666 9.595 25.716 18.71 7.21 8.955 10.815 19.989 10.815 33.101 0 21.429-8.492 37.18-25.475 47.254l24.274 68.842h-33.647l-20.429-61.166H340.89v61.166h-32.445V79.203Zm32.445 28.784v51.092h20.669c2.724-.64 5.688-3.358 8.893-8.156 3.364-4.957 5.047-10.714 5.047-17.27 0-6.556-1.442-12.313-4.326-17.27-2.724-4.958-5.448-7.756-8.172-8.396H340.89Z" fill="#fff"/><path d="m485.869 247.11-5.047-26.625h-37.973l-5.047 26.625h-32.686l32.446-167.907h49.749l30.763 167.907h-32.205Zm-24.514-136.724-9.373 55.889-5.287 28.544h30.042l-5.528-28.544-9.373-55.889h-.481Zm58.698 136.724V79.203h32.926V247.11h-32.926Zm119.063 0-44.943-92.828-1.202.479 1.442 28.305v64.044h-30.282V79.203h24.274l44.221 96.427 1.202-.48-2.644-29.504V79.203h30.283V247.11h-22.351Zm48.782-167.907h57.681v28.784h-46.145l-.721 1.439 38.454 70.042c7.851 14.072 11.777 24.786 11.777 32.142 0 16.151-5.368 27.984-16.103 35.5h-63.689v-27.825h49.75l.721-1.439-43.261-77.477c-6.249-11.194-9.373-20.309-9.373-27.345 0-16.63 6.97-27.904 20.909-33.82Z" fill="#fff"/><path d="M780.835 107.987h-36.291V79.203h105.268v28.784h-36.291V247.11h-32.686V107.987Z" fill="#fff"/><path d="M921.636 79.203c11.216 9.115 19.548 21.348 24.995 36.7 5.448 15.351 8.172 31.183 8.172 47.493 0 16.152-2.644 31.503-7.931 46.055-5.288 14.552-13.699 27.105-25.236 37.659h-49.509c-11.536-10.554-19.948-23.107-25.235-37.659-5.288-14.552-7.931-29.903-7.931-46.055 0-16.31 2.724-32.142 8.171-47.493 5.448-15.352 13.779-27.585 24.995-36.7h49.509ZM888.23 219.285h17.304c4.005-4.637 7.37-12.153 10.094-22.547 2.884-10.554 4.326-21.668 4.326-33.342 0-11.673-1.362-22.627-4.086-32.861-2.723-10.395-6.088-17.91-10.094-22.548H888.23c-4.006 4.638-7.451 12.153-10.335 22.548-2.724 10.234-4.085 21.188-4.085 32.861 0 11.674 1.361 22.788 4.085 33.342 2.884 10.394 6.329 17.91 10.335 22.547Zm73.3-140.082h63.93c10.09 3.358 18.67 9.595 25.72 18.71 7.21 8.955 10.81 19.989 10.81 33.101 0 21.429-8.49 37.18-25.47 47.254l24.27 68.842h-33.65l-20.43-61.166h-12.734v61.166H961.53V79.203Zm32.446 28.784v51.092h20.664c2.73-.64 5.69-3.358 8.9-8.156 3.36-4.957 5.04-10.714 5.04-17.27 0-6.556-1.44-12.313-4.32-17.27-2.73-4.958-5.45-7.756-8.17-8.396h-22.114Zm134.644 62.366 12.74-52.531 10.33-38.619h30.04l10.82 167.907h-31.48l-4.57-91.629h-1.2l-17.31 67.642h-19.7l-17.31-67.642h-1.2l-4.57 91.629h-31.48l10.81-167.907h30.05l10.33 38.619 12.74 52.531h.96Z" fill="#fff"/><path d="M200.059 247.11V79.203h68.496c7.851 2.879 14.82 7.916 20.909 15.112 6.088 7.196 9.133 15.911 9.133 26.145 0 18.07-5.929 30.703-17.785 37.899v.96c14.74 8.155 22.111 20.948 22.111 38.378 0 19.989-10.174 36.46-30.523 49.413h-72.341Zm32.686-98.585h23.793c7.05-4.318 10.575-10.874 10.575-19.669 0-8.796-3.285-15.752-9.854-20.869h-24.514v40.538Zm0 70.76h24.754c2.884-2.078 5.448-5.357 7.691-9.834 2.403-4.478 3.605-8.955 3.605-13.433 0-4.477-.961-8.555-2.884-12.233-1.923-3.678-4.326-6.396-7.21-8.155h-25.956v43.655Zm75.7-140.082h63.929c10.094 3.358 18.666 9.595 25.716 18.71 7.21 8.955 10.815 19.989 10.815 33.101 0 21.429-8.492 37.18-25.475 47.254l24.274 68.842h-33.647l-20.429-61.166H340.89v61.166h-32.445V79.203Zm32.445 28.784v51.092h20.669c2.724-.64 5.688-3.358 8.893-8.156 3.364-4.957 5.047-10.714 5.047-17.27 0-6.556-1.442-12.313-4.326-17.27-2.724-4.958-5.448-7.756-8.172-8.396H340.89Z" stroke="#FFEC44" stroke-width="2" mask="url(#b)"/><path d="m485.869 247.11-5.047-26.625h-37.973l-5.047 26.625h-32.686l32.446-167.907h49.749l30.763 167.907h-32.205Zm-24.514-136.724-9.373 55.889-5.287 28.544h30.042l-5.528-28.544-9.373-55.889h-.481Zm58.698 136.724V79.203h32.926V247.11h-32.926Zm119.063 0-44.943-92.828-1.202.479 1.442 28.305v64.044h-30.282V79.203h24.274l44.221 96.427 1.202-.48-2.644-29.504V79.203h30.283V247.11h-22.351Zm48.782-167.907h57.681v28.784h-46.145l-.721 1.439 38.454 70.042c7.851 14.072 11.777 24.786 11.777 32.142 0 16.151-5.368 27.984-16.103 35.5h-63.689v-27.825h49.75l.721-1.439-43.261-77.477c-6.249-11.194-9.373-20.309-9.373-27.345 0-16.63 6.97-27.904 20.909-33.82Z" stroke="#FFEC44" stroke-width="2" mask="url(#b)"/><path d="M780.835 107.987h-36.291V79.203h105.268v28.784h-36.291V247.11h-32.686V107.987Z" stroke="#FFEC44" stroke-width="2" mask="url(#b)"/><path d="M921.636 79.203c11.216 9.115 19.548 21.348 24.995 36.7 5.448 15.351 8.172 31.183 8.172 47.493 0 16.152-2.644 31.503-7.931 46.055-5.288 14.552-13.699 27.105-25.236 37.659h-49.509c-11.536-10.554-19.948-23.107-25.235-37.659-5.288-14.552-7.931-29.903-7.931-46.055 0-16.31 2.724-32.142 8.171-47.493 5.448-15.352 13.779-27.585 24.995-36.7h49.509ZM888.23 219.285h17.304c4.005-4.637 7.37-12.153 10.094-22.547 2.884-10.554 4.326-21.668 4.326-33.342 0-11.673-1.362-22.627-4.086-32.861-2.723-10.395-6.088-17.91-10.094-22.548H888.23c-4.006 4.638-7.451 12.153-10.335 22.548-2.724 10.234-4.085 21.188-4.085 32.861 0 11.674 1.361 22.788 4.085 33.342 2.884 10.394 6.329 17.91 10.335 22.547Zm73.3-140.082h63.93c10.09 3.358 18.67 9.595 25.72 18.71 7.21 8.955 10.81 19.989 10.81 33.101 0 21.429-8.49 37.18-25.47 47.254l24.27 68.842h-33.65l-20.43-61.166h-12.734v61.166H961.53V79.203Zm32.446 28.784v51.092h20.664c2.73-.64 5.69-3.358 8.9-8.156 3.36-4.957 5.04-10.714 5.04-17.27 0-6.556-1.44-12.313-4.32-17.27-2.73-4.958-5.45-7.756-8.17-8.396h-22.114Zm134.644 62.366 12.74-52.531 10.33-38.619h30.04l10.82 167.907h-31.48l-4.57-91.629h-1.2l-17.31 67.642h-19.7l-17.31-67.642h-1.2l-4.57 91.629h-31.48l10.81-167.907h30.05l10.33 38.619 12.74 52.531h.96Z" stroke="#FFEC44" stroke-width="2" mask="url(#b)"/><mask id="c" maskUnits="userSpaceOnUse" x="199.059" y="158.707" width="998" height="173" fill="#000"><path fill="#fff" d="M199.059 158.707h998v173h-998z"/><path d="M200.059 329.914V159.707h68.734c7.878 2.917 14.872 8.024 20.982 15.318 6.109 7.295 9.164 16.129 9.164 26.504 0 18.317-5.949 31.123-17.846 38.418v.973c14.791 8.267 22.187 21.235 22.187 38.904 0 20.263-10.209 36.959-30.628 50.09h-72.593Zm32.799-99.936h23.876c7.075-4.377 10.612-11.023 10.612-19.939 0-8.915-3.296-15.967-9.888-21.154h-24.6v41.093Zm0 71.73h24.841c2.894-2.107 5.466-5.431 7.717-9.969 2.412-4.539 3.618-9.078 3.618-13.617 0-4.539-.965-8.672-2.894-12.401-1.929-3.728-4.341-6.484-7.235-8.267h-26.047v44.254Zm75.964-142.001h64.151c10.129 3.404 18.731 9.726 25.806 18.965 7.235 9.078 10.852 20.263 10.852 33.556 0 21.721-8.521 37.688-25.564 47.901l24.359 69.785h-33.765l-20.499-62.004H341.38v62.004h-32.558V159.707Zm32.558 29.178v51.791h20.741c2.733-.648 5.707-3.404 8.923-8.267 3.376-5.025 5.065-10.861 5.065-17.507 0-6.646-1.448-12.482-4.342-17.507-2.733-5.025-5.466-7.862-8.199-8.51H341.38Z"/><path d="m486.863 329.914-5.065-26.99h-38.105l-5.065 26.99h-32.799l32.558-170.207h49.923l30.87 170.207h-32.317Zm-24.6-138.598-9.405 56.655-5.306 28.935h30.146l-5.547-28.935-9.405-56.655h-.483Zm58.903 138.598V159.707h33.04v170.207h-33.04Zm119.476 0-45.099-94.101-1.206.487 1.447 28.692v64.922h-30.388V159.707h24.359l44.375 97.747 1.206-.486-2.653-29.908v-67.353h30.388v170.207h-22.429Zm48.952-170.207h57.881v29.178H701.17l-.723 1.459 38.587 71c7.878 14.265 11.818 25.126 11.818 32.583 0 16.372-5.387 28.368-16.159 35.987h-63.91v-28.206h49.922l.724-1.459-43.411-78.538c-6.271-11.348-9.406-20.587-9.406-27.72 0-16.858 6.994-28.287 20.982-34.284Z"/><path d="M782.854 188.885h-36.417v-29.178H852.07v29.178h-36.417v141.029h-32.799V188.885Z"/><path d="M924.145 159.707c11.254 9.239 19.615 21.64 25.082 37.202 5.466 15.562 8.2 31.61 8.2 48.144 0 16.373-2.653 31.934-7.959 46.686-5.306 14.751-13.747 27.476-25.323 38.175h-49.682c-11.576-10.699-20.017-23.424-25.323-38.175-5.305-14.752-7.958-30.313-7.958-46.686 0-16.534 2.733-32.582 8.2-48.144 5.466-15.562 13.827-27.963 25.081-37.202h49.682Zm-33.523 142.001h17.364c4.02-4.701 7.396-12.32 10.129-22.857 2.895-10.698 4.342-21.964 4.342-33.798 0-11.833-1.367-22.937-4.1-33.312-2.734-10.536-6.11-18.155-10.13-22.856h-17.605c-4.02 4.701-7.476 12.32-10.37 22.856-2.734 10.375-4.1 21.479-4.1 33.312 0 11.834 1.366 23.1 4.1 33.798 2.894 10.537 6.35 18.156 10.37 22.857Zm73.555-142.001h64.153c10.13 3.404 18.73 9.726 25.8 18.965 7.24 9.078 10.86 20.263 10.86 33.556 0 21.721-8.52 37.688-25.57 47.901l24.36 69.785h-33.76l-20.5-62.004h-12.784v62.004h-32.559V159.707Zm32.559 29.178v51.791h20.744c2.73-.648 5.7-3.404 8.92-8.267 3.38-5.025 5.06-10.861 5.06-17.507 0-6.646-1.44-12.482-4.34-17.507-2.73-5.025-5.46-7.862-8.2-8.51h-22.184Zm135.114 63.22 12.78-53.251 10.37-39.147h30.15L1196 329.914h-31.59l-4.59-92.885h-1.2l-17.37 68.569h-19.77l-17.37-68.569h-1.2l-4.58 92.885h-31.6l10.85-170.207h30.15l10.37 39.147 12.78 53.251h.97Z"/><path d="M964.177 159.707h64.153c10.13 3.404 18.73 9.726 25.8 18.965 7.24 9.078 10.86 20.263 10.86 33.556 0 21.721-8.52 37.688-25.57 47.901l24.36 69.785h-33.76l-20.5-62.004h-12.784v62.004h-32.559V159.707Zm32.559 29.178v51.791h20.744c2.73-.648 5.7-3.404 8.92-8.267 3.38-5.025 5.06-10.861 5.06-17.507 0-6.646-1.44-12.482-4.34-17.507-2.73-5.025-5.46-7.862-8.2-8.51h-22.184Zm135.114 63.22 12.78-53.251 10.37-39.147h30.15L1196 329.914h-31.59l-4.59-92.885h-1.2l-17.37 68.569h-19.77l-17.37-68.569h-1.2l-4.58 92.885h-31.6l10.85-170.207h30.15l10.37 39.147 12.78 53.251h.97Z"/></mask><path d="M200.059 329.914V159.707h68.734c7.878 2.917 14.872 8.024 20.982 15.318 6.109 7.295 9.164 16.129 9.164 26.504 0 18.317-5.949 31.123-17.846 38.418v.973c14.791 8.267 22.187 21.235 22.187 38.904 0 20.263-10.209 36.959-30.628 50.09h-72.593Zm32.799-99.936h23.876c7.075-4.377 10.612-11.023 10.612-19.939 0-8.915-3.296-15.967-9.888-21.154h-24.6v41.093Zm0 71.73h24.841c2.894-2.107 5.466-5.431 7.717-9.969 2.412-4.539 3.618-9.078 3.618-13.617 0-4.539-.965-8.672-2.894-12.401-1.929-3.728-4.341-6.484-7.235-8.267h-26.047v44.254Zm75.964-142.001h64.151c10.129 3.404 18.731 9.726 25.806 18.965 7.235 9.078 10.852 20.263 10.852 33.556 0 21.721-8.521 37.688-25.564 47.901l24.359 69.785h-33.765l-20.499-62.004H341.38v62.004h-32.558V159.707Zm32.558 29.178v51.791h20.741c2.733-.648 5.707-3.404 8.923-8.267 3.376-5.025 5.065-10.861 5.065-17.507 0-6.646-1.448-12.482-4.342-17.507-2.733-5.025-5.466-7.862-8.199-8.51H341.38Z" fill="#FFEC44"/><path d="m486.863 329.914-5.065-26.99h-38.105l-5.065 26.99h-32.799l32.558-170.207h49.923l30.87 170.207h-32.317Zm-24.6-138.598-9.405 56.655-5.306 28.935h30.146l-5.547-28.935-9.405-56.655h-.483Zm58.903 138.598V159.707h33.04v170.207h-33.04Zm119.476 0-45.099-94.101-1.206.487 1.447 28.692v64.922h-30.388V159.707h24.359l44.375 97.747 1.206-.486-2.653-29.908v-67.353h30.388v170.207h-22.429Zm48.952-170.207h57.881v29.178H701.17l-.723 1.459 38.587 71c7.878 14.265 11.818 25.126 11.818 32.583 0 16.372-5.387 28.368-16.159 35.987h-63.91v-28.206h49.922l.724-1.459-43.411-78.538c-6.271-11.348-9.406-20.587-9.406-27.72 0-16.858 6.994-28.287 20.982-34.284Z" fill="#FFEC44"/><path d="M782.854 188.885h-36.417v-29.178H852.07v29.178h-36.417v141.029h-32.799V188.885Z" fill="#FFEC44"/><path d="M924.145 159.707c11.254 9.239 19.615 21.64 25.082 37.202 5.466 15.562 8.2 31.61 8.2 48.144 0 16.373-2.653 31.934-7.959 46.686-5.306 14.751-13.747 27.476-25.323 38.175h-49.682c-11.576-10.699-20.017-23.424-25.323-38.175-5.305-14.752-7.958-30.313-7.958-46.686 0-16.534 2.733-32.582 8.2-48.144 5.466-15.562 13.827-27.963 25.081-37.202h49.682Zm-33.523 142.001h17.364c4.02-4.701 7.396-12.32 10.129-22.857 2.895-10.698 4.342-21.964 4.342-33.798 0-11.833-1.367-22.937-4.1-33.312-2.734-10.536-6.11-18.155-10.13-22.856h-17.605c-4.02 4.701-7.476 12.32-10.37 22.856-2.734 10.375-4.1 21.479-4.1 33.312 0 11.834 1.366 23.1 4.1 33.798 2.894 10.537 6.35 18.156 10.37 22.857Zm73.555-142.001h64.153c10.13 3.404 18.73 9.726 25.8 18.965 7.24 9.078 10.86 20.263 10.86 33.556 0 21.721-8.52 37.688-25.57 47.901l24.36 69.785h-33.76l-20.5-62.004h-12.784v62.004h-32.559V159.707Zm32.559 29.178v51.791h20.744c2.73-.648 5.7-3.404 8.92-8.267 3.38-5.025 5.06-10.861 5.06-17.507 0-6.646-1.44-12.482-4.34-17.507-2.73-5.025-5.46-7.862-8.2-8.51h-22.184Zm135.114 63.22 12.78-53.251 10.37-39.147h30.15L1196 329.914h-31.59l-4.59-92.885h-1.2l-17.37 68.569h-19.77l-17.37-68.569h-1.2l-4.58 92.885h-31.6l10.85-170.207h30.15l10.37 39.147 12.78 53.251h.97Z" fill="#FFEC44"/><path d="M964.177 159.707h64.153c10.13 3.404 18.73 9.726 25.8 18.965 7.24 9.078 10.86 20.263 10.86 33.556 0 21.721-8.52 37.688-25.57 47.901l24.36 69.785h-33.76l-20.5-62.004h-12.784v62.004h-32.559V159.707Zm32.559 29.178v51.791h20.744c2.73-.648 5.7-3.404 8.92-8.267 3.38-5.025 5.06-10.861 5.06-17.507 0-6.646-1.44-12.482-4.34-17.507-2.73-5.025-5.46-7.862-8.2-8.51h-22.184Zm135.114 63.22 12.78-53.251 10.37-39.147h30.15L1196 329.914h-31.59l-4.59-92.885h-1.2l-17.37 68.569h-19.77l-17.37-68.569h-1.2l-4.58 92.885h-31.6l10.85-170.207h30.15l10.37 39.147 12.78 53.251h.97Z" fill="#FFEC44"/><path d="M200.059 329.914V159.707h68.734c7.878 2.917 14.872 8.024 20.982 15.318 6.109 7.295 9.164 16.129 9.164 26.504 0 18.317-5.949 31.123-17.846 38.418v.973c14.791 8.267 22.187 21.235 22.187 38.904 0 20.263-10.209 36.959-30.628 50.09h-72.593Zm32.799-99.936h23.876c7.075-4.377 10.612-11.023 10.612-19.939 0-8.915-3.296-15.967-9.888-21.154h-24.6v41.093Zm0 71.73h24.841c2.894-2.107 5.466-5.431 7.717-9.969 2.412-4.539 3.618-9.078 3.618-13.617 0-4.539-.965-8.672-2.894-12.401-1.929-3.728-4.341-6.484-7.235-8.267h-26.047v44.254Zm75.964-142.001h64.151c10.129 3.404 18.731 9.726 25.806 18.965 7.235 9.078 10.852 20.263 10.852 33.556 0 21.721-8.521 37.688-25.564 47.901l24.359 69.785h-33.765l-20.499-62.004H341.38v62.004h-32.558V159.707Zm32.558 29.178v51.791h20.741c2.733-.648 5.707-3.404 8.923-8.267 3.376-5.025 5.065-10.861 5.065-17.507 0-6.646-1.448-12.482-4.342-17.507-2.733-5.025-5.466-7.862-8.199-8.51H341.38Z" stroke="#FFEC44" stroke-width="2" mask="url(#c)"/><path d="m486.863 329.914-5.065-26.99h-38.105l-5.065 26.99h-32.799l32.558-170.207h49.923l30.87 170.207h-32.317Zm-24.6-138.598-9.405 56.655-5.306 28.935h30.146l-5.547-28.935-9.405-56.655h-.483Zm58.903 138.598V159.707h33.04v170.207h-33.04Zm119.476 0-45.099-94.101-1.206.487 1.447 28.692v64.922h-30.388V159.707h24.359l44.375 97.747 1.206-.486-2.653-29.908v-67.353h30.388v170.207h-22.429Zm48.952-170.207h57.881v29.178H701.17l-.723 1.459 38.587 71c7.878 14.265 11.818 25.126 11.818 32.583 0 16.372-5.387 28.368-16.159 35.987h-63.91v-28.206h49.922l.724-1.459-43.411-78.538c-6.271-11.348-9.406-20.587-9.406-27.72 0-16.858 6.994-28.287 20.982-34.284Z" stroke="#FFEC44" stroke-width="2" mask="url(#c)"/><path d="M782.854 188.885h-36.417v-29.178H852.07v29.178h-36.417v141.029h-32.799V188.885Z" stroke="#FFEC44" stroke-width="2" mask="url(#c)"/><path d="M924.145 159.707c11.254 9.239 19.615 21.64 25.082 37.202 5.466 15.562 8.2 31.61 8.2 48.144 0 16.373-2.653 31.934-7.959 46.686-5.306 14.751-13.747 27.476-25.323 38.175h-49.682c-11.576-10.699-20.017-23.424-25.323-38.175-5.305-14.752-7.958-30.313-7.958-46.686 0-16.534 2.733-32.582 8.2-48.144 5.466-15.562 13.827-27.963 25.081-37.202h49.682Zm-33.523 142.001h17.364c4.02-4.701 7.396-12.32 10.129-22.857 2.895-10.698 4.342-21.964 4.342-33.798 0-11.833-1.367-22.937-4.1-33.312-2.734-10.536-6.11-18.155-10.13-22.856h-17.605c-4.02 4.701-7.476 12.32-10.37 22.856-2.734 10.375-4.1 21.479-4.1 33.312 0 11.834 1.366 23.1 4.1 33.798 2.894 10.537 6.35 18.156 10.37 22.857Zm73.555-142.001h64.153c10.13 3.404 18.73 9.726 25.8 18.965 7.24 9.078 10.86 20.263 10.86 33.556 0 21.721-8.52 37.688-25.57 47.901l24.36 69.785h-33.76l-20.5-62.004h-12.784v62.004h-32.559V159.707Zm32.559 29.178v51.791h20.744c2.73-.648 5.7-3.404 8.92-8.267 3.38-5.025 5.06-10.861 5.06-17.507 0-6.646-1.44-12.482-4.34-17.507-2.73-5.025-5.46-7.862-8.2-8.51h-22.184Zm135.114 63.22 12.78-53.251 10.37-39.147h30.15L1196 329.914h-31.59l-4.59-92.885h-1.2l-17.37 68.569h-19.77l-17.37-68.569h-1.2l-4.58 92.885h-31.6l10.85-170.207h30.15l10.37 39.147 12.78 53.251h.97Z" stroke="#FFEC44" stroke-width="2" mask="url(#c)"/><path d="M964.177 159.707h64.153c10.13 3.404 18.73 9.726 25.8 18.965 7.24 9.078 10.86 20.263 10.86 33.556 0 21.721-8.52 37.688-25.57 47.901l24.36 69.785h-33.76l-20.5-62.004h-12.784v62.004h-32.559V159.707Zm32.559 29.178v51.791h20.744c2.73-.648 5.7-3.404 8.92-8.267 3.38-5.025 5.06-10.861 5.06-17.507 0-6.646-1.44-12.482-4.34-17.507-2.73-5.025-5.46-7.862-8.2-8.51h-22.184Zm135.114 63.22 12.78-53.251 10.37-39.147h30.15L1196 329.914h-31.59l-4.59-92.885h-1.2l-17.37 68.569h-19.77l-17.37-68.569h-1.2l-4.58 92.885h-31.6l10.85-170.207h30.15l10.37 39.147 12.78 53.251h.97Z" stroke="#FFEC44" stroke-width="2" mask="url(#c)"/><path d="M49 385.5c6.35-4.382 79.714-134.133 111-169.5 23-26 43.45-4 55.009 19.034 15.006 29.902 28.398 48.254 47.032 69.41 12.086 13.723 31.331 30.549 50.154 34.128 15.08 2.868 37.814 2.42 49.578-8.921 10.942-10.548 26.016-27.519 26.73-43.333.316-7.015-.771-14.401-10.06-8.638-4.093 2.54-8.317 7.19-10.893 11.095-3.45 5.23-5.12 8.667-7.774 15.001-4.901 11.694-6.194 26.212-6.194 39.186 0 7.842-2.176 19.683 8.191 24.455 5.201 1.722 10.385 1.51 15.308-4.198 3.071-3.56 3.83-8.136 3.661-12.61-.36-9.581-18.375-12.037-26.585-9.529-3.885 1.08-4.533 2.755 0 4.785 2.932 1.313 6.899 2.249 10.069 2.249 3.898 0 8.093-.201 11.963-.788 6.102-.925 12.415-3.323 17.854-6.246 7.417-3.411 8.859-5.304 10.325-5.634.09-.089-4.397 7.094-4.45 10.419-.69 6.117 1.03 12.254 3.864 15.175 16.316 13.89 30.382-26.008 16.705-27.212 0 0-4.937.436-7.816 1.948-2.878 1.512-5.323 3.561-2.756 4.283 4.372 1.231 13.014 1.983 18.876 1.021 1.954-.487 6.56-1.896 8.753-2.922 2.875-1.344 6.598-2.886 9.035-4.33 1.019-.603-3.013 5.171-3.907 9.134-2.504 11.101-.489 20.513 9.281 20.257 7.516 0 13.09-7.23 15.445-13.53 1.395-3.73 1.901-12.66-2.658-14.657-2.482-1.087-11.81-2.716-13.764 3.126-1.303 3.895 6.406 3.884 10.059 3.884 3.653 0 12.16-.962 12.16-.962s3.384-.712 9.203-1.516c11.373-1.572 29.136-3.144 29.136-3.144s-12.437-4.222-14.302-.751c-3.291 6.126 7.214 5.486 11.84 10.55 7.591 8.312-22.718 27.191-22.718 9.842 0-6.38 18.318-4.245 24.011-4.461 5.846-.221 10.6-1.537 17.028-3.973 7.713-2.923 16.394-15.226 18.697-21.54 1.433-3.927 2.88-10.907 3.553-17.795.223-2.285.579-8.926-.673-9.758-1.728-1.149-4.445 9.264-5.183 13.776-1.569 9.582-3.405 23.51-3.405 33.233 0 6.179-.642 11.585 4.557 16.708 2.962 2.919 8.639 2.386 13.604.48 7.417-2.846 12.931-7.997 16.317-12.334 3.551-4.549 8-9.425 7.645-15.365-.26-4.355-5.173-5.993-10.612-1.535-3.477 2.851-6.428 7.796-4.261 20.015 2.778 8.245 5.569 11.707 10.135 12.757 7.487 1.722 12.217-2.023 15.66-6.384 3.438-4.356 5.892-11.101 5.892-16.569v-7.009c0-3.837-1.566-4.096-3.198-2.81-4.897 3.861 4.61 8.283 8.9 9.258 2.472.561 5.22 1.199 8.525 1.199 4.085 0 4.825-1.199 6.179-3.635.907-.715.882-5.409 0-6.278-1.971-1.942-4.657 2.582-5.309 3.354-2.748 3.249-4.45 8.148-5.934 12.181-1.075 2.923-2.732 6.898-2.732 10.309 0 5.098 1.39 6.384 3.117 8.106 4.679 3.444 9.331 2.296 14.399 0 6.335-2.87 9.791-4.592 15.55-8.106 15.55-9.115 93.8-56.78 122.215-38.868 22.873 11.299 58.891-14.643 110.797-29.596 23.062-6.644 41.062-10.794 91.862 9.166m-434.718 17.826h34.286" stroke="#FC4545" stroke-width="2.5" stroke-linecap="round"/></svg>