<svg width="840" height="395" fill="none" xmlns="http://www.w3.org/2000/svg"><path fill-rule="evenodd" clip-rule="evenodd" d="M840 0H0v304.755l70.708 7.612h12.92c.763 0 1.27-.013 1.808-.027h.009c.417-.011.854-.022 1.443-.028 1.055-.011 2.378.007 3.756.265a11.871 11.871 0 0 1 5.433 2.522l16.601 1.787c2.75-.284 5.942-.488 9.312-.015 3.07.431 6.013 1.106 8.617 1.703l.006.001c.705.161 1.385.317 2.036.461l11.565 1.245h20.784c1.505 0 3.192-.109 5.207-.239l.313-.02c2.064-.134 4.415-.279 6.766-.262 4.46.031 10.164.619 14.739 4.135.072.03.293.121.729.237.747.198 1.73.368 2.927.518 1.04.13 2.094.227 3.18.327l.473.044c1.15.107 2.493.236 3.603.434 1.773.317 3.529.572 5.404.845l.022.003c1.839.267 3.793.551 5.808.911 1.73.309 3.535.746 5.169 1.155l14.715 1.585h6.499c.937 0 1.971-.017 3.06-.034h.006c2.413-.038 5.09-.081 7.567.041l.335.015.311.013.004.001h.001c.997.042 2.567.109 4.078.237.97.083 2.036.199 3.046.373.898.155 2.207.428 3.41.989 1.912.89 4.169.967 8.028.876l.566-.014c3.356-.086 8.1-.208 12.642 1.671 2.969 1.229 6.572 1.645 11.123 1.858.845.04 1.738.072 2.665.106 3.685.134 7.91.287 11.831.999 2.899.526 5.648.619 9.019.732l.014.001 1.546.053c2.423.089 4.177 1.228 4.97 1.82 8.682.443 17.308.814 26.127.814 4.911 0 9.209 1.707 12.359 2.959l.14.055c.439.175.857.34 1.256.496l15.821 1.703c4.131-.034 8.5.023 12.599.553 2.073.268 3.981.548 5.796.815 4.874.717 9.066 1.333 13.914 1.333 4.954 0 10.135 1.024 15.045 2.398l43.072 4.637h15.747c2.562 0 4.812.674 6.216 1.095l.121.036c1.676.501 2.225.627 2.66.627 7.618 0 14.629.864 21.576 1.72l2.475.304.005.001h.002c10.413 1.279 20.904 2.567 31.368 4.149 3.35.507 7.086.536 11.193.404 1.309-.043 2.7-.104 4.126-.168h.001c2.803-.124 5.739-.254 8.437-.254 6.641 0 13.214.452 19.544.888l.076.005c6.422.442 12.595.865 18.754.865 5.423 0 10.126 1.451 13.941 2.628l.246.075C631.447 369.08 634.559 370 638 370c7.765 0 15.414 1.017 22.685 2.098 1.119.166 2.226.333 3.324.499 6.166.932 12.033 1.818 17.897 2.216.718.048 1.438-.029 2.748-.169l.416-.044.429-.045c1.545-.161 3.975-.389 6.494.213.72.172 1.738.24 3.254.203.378-.009.935-.034 1.562-.062h.015l.01-.001h.006c1.122-.05 2.462-.109 3.401-.109 3.591 0 7.976 1.249 11.29 2.193l.479.136c4.034 1.145 6.789 1.872 8.49 1.872 2.886 0 5.842.707 8.464 1.518 2.629.814 5.364 1.879 7.859 2.85l.104.041c.845.329 1.664.648 2.459.951l74.943 8.068L840 395v-21.753c-1.67-.464-3.217-1.204-4.453-1.829l-.172-.09a23.05 23.05 0 0 0-2.682-.027c-.64.031-1.152.04-1.587.049h-.003c-.82.015-1.366.025-1.977.164l-.056.013c-.185.045-.742.179-1.393.286-.069 6.473-5.329 11.7-11.808 11.7-6.521 0-11.808-5.296-11.808-11.83 0-6.533 5.287-11.829 11.808-11.829 3.395 0 6.456 1.435 8.61 3.733a3.493 3.493 0 0 1 3.04-.877c.152.028.291.05.417.063.127.013.223.016.292.014h.003c1.043-.507 2.018-.397 2.44-.324.349.06.658.156.891.242.448-.01.759-.024 1.046-.064 1.667-.233 3.355-.075 4.623.062.37-.048.733-.05 1.077-.018a6.243 6.243 0 0 1 1.692.424v-55.247a1.975 1.975 0 0 0-.809-.179c-1.798 0-3.616-.387-5.244-.734-.472-.1-.928-.197-1.363-.28-2.039-.391-3.842-.549-5.649.053a7.521 7.521 0 0 1-1.845.347 11.778 11.778 0 0 1-9.221 4.439c-6.521 0-11.808-5.296-11.808-11.829 0-6.534 5.287-11.83 11.808-11.83 5.199 0 9.612 3.365 11.19 8.039l.181-.002c2.312 0 4.534.288 6.696.568l.928.119c1.726.218 3.355.138 5.136.044v-63.513c-.828-.13-1.646-.273-2.45-.414h-.002c-.77-.135-1.527-.267-2.267-.383-.882-.138-1.844-.153-2.894-.126-.356.01-.738.025-1.131.041h-.002c-.696.027-1.424.056-2.094.056-.332 0-.792.111-1.403.34-.386.146-.684.275-1 .412-.146.064-.295.129-.459.198-1.986 3.733-5.911 6.275-10.429 6.275-6.521 0-11.808-5.297-11.808-11.83s5.287-11.829 11.808-11.829c4.471 0 8.361 2.488 10.366 6.158.373.072.729.143 1.071.213 1.543.311 2.831.57 4.321.57.266 0 .553-.08 1.079-.269l.12-.043c.459-.167 1.122-.407 1.856-.473 1.45-.13 3.199-.206 4.768-.032.23.026.435.098.55.141v-56.024c-1.373-.176-2.662-.46-3.673-.698a11.206 11.206 0 0 1-1.975-.676 22.45 22.45 0 0 1-1.11-.538h-.001l-.072-.037c-.167-.085-.278-.14-.357-.178a9.762 9.762 0 0 0-.297-.01l-.329-.005h-.023l-.38-.006a19.356 19.356 0 0 1-1.037-.044 8.471 8.471 0 0 1-.478-.049 7.105 7.105 0 0 1-2.95-.18 18.916 18.916 0 0 1-1.353-.449l-.026-.009-.201-.074c-.217-.025-.43-.057-.634-.091a11.777 11.777 0 0 1-9.235 4.456c-6.521 0-11.808-5.296-11.808-11.829s5.287-11.83 11.808-11.83c4.922 0 9.14 3.016 10.914 7.304l.184.041c.111.023.158.03.163.03a10.84 10.84 0 0 1 2.523.576c.969-.07 1.738.07 2.023.122h.001l.125.024c.092.003.193.004.338.006.149.002.343.004.62.01.542.011 1.467.038 2.452.228 1.498.288 2.766.938 3.311 1.217l.088.045c.339.173.477.243.598.296.276.065.539.124.791.177V88.386a6.022 6.022 0 0 1-1.265-.223c.002 0 .002 0 0 0a4.681 4.681 0 0 0-.345-.067 36.088 36.088 0 0 0-.456-.074l-.043-.006c-.163-.026-.361-.057-.56-.09a18.327 18.327 0 0 1-1.134-.219 7.493 7.493 0 0 1-2.66 1.747 8.211 8.211 0 0 1-2.71.535l-.023.001-.03.002-.105.007-.117.007c-.182.012-.501.031-.858.033-.551.004-1.965-.01-3.465-.695-2.006 3.664-5.893 6.148-10.36 6.148-6.521 0-11.808-5.296-11.808-11.83 0-6.532 5.287-11.829 11.808-11.829 3.453 0 6.56 1.485 8.719 3.852a7.345 7.345 0 0 1 4.426 1.421 7.492 7.492 0 0 1 1.479-1.087 7.829 7.829 0 0 1 2.743-.915c2.065-.291 3.904.037 5.65.907.084.019.215.044.421.079l.326.052.367.058V0Zm-8.887 163.675-.004.001.004-.001Zm7.67-87.69.011.004-.007-.002-.004-.001Z" fill="#fff"/></svg>