<svg width="1269" height="7625" fill="none" xmlns="http://www.w3.org/2000/svg"><path d="M332.848 7012.79c13.632 0 31.408 1.98 48.925 5.76 46.227 9.95 73.119 28.81 197.85 41.83 124.732 13.02 260.757-22.04 379.037-44.08 118.28-22.04 124.73 0 189.25 0 64.51 0 97.89-51.22 115.09-98.3 17.2-47.08-13.08-154.52-72.57-197.5-60.21-43.5-136.15-72.29-215.107-86.64-78.955-14.36-166.044-29.17-262.366-46.58-76.939-13.91-186.448-.97-331.184-79.78C278.009 6451 210.5 6414 136 6319c-83.5-122-108.37-245.4-62.133-327 46.236-81.59 132.245-84.5 237.612-74 123.106 12.27 181.165 39.73 319.324 27 173.64-16 272.05-36.23 373.087-94.5 96.22-55.5 99.53-176.5 70.96-212.5-31.74-40-64.51-79.5-248.366-79.5-183.854 0-405.876 79.5-547.26 45-164.501-40.14-230.624-132-263.416-238l-6.989-26m324.029 1673.29c-4.57 0-9.14 0-15.054 1.01-5.914 1-7.527 1.74-13.441 4m28.495-5.01c3.763 0 15.054 3.51 37.097 8.02s35.332 5.09 46.237 11.52c11.318 6.67 9.14 19.03 0 28.05-9.14 9.01-26.882 13.52-39.248 15.53-12.365 2-36.66 4.22-50 2.5-19.434-2.5-28.495-5.4-35.434-10.41-6.939-5.01-13.932-13.33-13.932-24.5s10.118-17.68 20.871-22.69c1.976-.92 3.972-2.41 5.914-3.01m0 0c-4.731 1.81-12.24 9.52-13.853 14.53-1.613 5.01-3.113 10.03-1.5 15.67 1.613 5.64 7 10.5 17 15.5s37.063 7.9 58.569 7.4c21.505-.5 33.48-3.89 39.931-7.4 6.451-3.51 12.283-8 13.5-14 1.217-6-.5-10-9.5-15.5s-26.727-9.69-43.931-11.69c-45.254-5.27-46.069-2.81-58.569 0-9.315 2.1-18.379 10.42-21.002 13.02-6.714 6.67-16.129 15.03-12.365 35.57 3.763 20.53-16.289 47.53 7.367 88.1 18.925 32.46-19.594 88-41.635 125-22.041 37-76.199 91-44.619 185.5C225.325 7564 295.763 7607 411.343 7621c115.581 14 260.315-30 337.727-32.5" stroke="#FC4545" stroke-width="2"/><path d="M178.835 29.526C155.079 2.942 93.998 60.128 85.083 70.373c-17.546 20.163-34.234 40.889-41.187 67.172-3.127 11.823-5.583 25.218 7.218 31.761 15.338 7.839 34.892 5.587 50.953 1.783 35.295-8.359 79.873-30.155 76.174-72.522-1.763-20.197-11.37-39.828-34.053-39.828-31.153 0-65.388 19.996-88.997 38.384-22.849 17.796-39.62 56.408-13.078 78.637 12.018 10.065 28.355 12.158 43.48 12.229 27.573.128 56.707-4.333 78.976-21.91 17.357-13.701 31.517-33.96 25.306-56.897-6.017-22.222-22.198-44.106-39.913-58.426-11.276-9.115-24.753-15.987-38.639-20.041-12.713-3.711-33.35-8.867-46.282-2.972-21.456 9.781-3.898 60.698 2.463 72.013 20.023 35.614 56.027 56.707 94.432 67.512 9.29 2.614 51.981 14.833 60.294.424 3.78-6.552-3.943-19.575-6.794-25.136-5.967-11.644-15.089-20.295-24.966-28.703-21.695-18.468-46.464-24.299-74.986-23.354-17.89.593-34.572 1.772-48.32 14.776-11.677 11.047-13.726 26.28-16.22 41.017-2.423 14.322-7.877 40.814 1.02 54.605 7.423 11.506 25.082 3.891 34.053-.425 36.056-17.346 63.324-48.796 86.195-80.76 15.62-21.83 33.847-48.299 38.214-75.665.975-6.111 2.255-21.717-5.52-25.306-7.866-3.63-21.158 7.065-26.071 10.785Zm0 0c-20.695 15.67-39.354 34.8-56.897 53.84C108.42 98.038 95.75 113.488 87.121 131.6c-2.847 5.976-17.536 36.017-5.775 40.932 7.958 3.326 19.236 1.396 27.175-.17 21.547-4.25 42.687-12.63 60.803-25.136 12.311-8.499 26.198-19.687 31.166-34.478 4.813-14.328-2.095-31.057-9.086-43.395-12.732-22.468-35.059-37.318-60.974-38.47-26.304-1.168-100.665 8.016-75.749 52.397 2.238 3.987 7.416 11.892 12.059 13.333 11.348 3.52 32.735.024 41.441-1.19 20.878-2.91 62.109-10.673 82.883-14.945 11.925-2.453 41.651-3.974 33.968-13.418-3.361-4.131-9.217-6.334-14.266-7.303-7.862-1.509-15.292-.357-23.099 1.019-20.903 3.684-41.709 7.853-62.671 11.21-17.484 2.799-35.045 5.382-52.651 7.303-2.506.273-4.55-.108-6.454 1.698-12.029 11.412-34.478 26.774-34.478 45.008 0 4.512.806 5.301 5.435 6.284 22.693 4.823 46.526 1.892 69.465.85" stroke="#FC4545" stroke-width="2" stroke-linecap="round"/><path fill-rule="evenodd" clip-rule="evenodd" d="M558.84 12.252c146.463-13.28 318.366-17.15 445.34.005 87.97 11.885 147.02 32.854 183.67 59.25 36.7 26.432 50.93 58.321 49.17 91.856-1.77 33.457-19.45 68.391-46.23 101.043-26.79 32.667-62.76 63.14-101.26 87.686-41.39 26.382-214.244 131.773-254.072 152.297a7329.574 7329.574 0 0 0-21.414 11.118c-35.586 18.515-96.181 50.044-126.617 64.397-25.696 12.118-56.13 24.317-88.717 37.165-4.079 1.608-8.191 3.226-12.332 4.855-28.958 11.395-59.327 23.345-89.413 36.244-53.081 22.756-82.166 32.145-119.368 44.155-15.013 4.847-31.349 10.121-51.117 16.872-55.271 18.875-100.17 36.586-144.422 62.913-59.553 35.429-99.192 72.827-130.814 128.137C33.325 941.587 13.931 1003.4 6.112 1073.8c-7.818 70.39-4.046 149.2 24.216 214.55 29.218 67.56 80.027 124.76 128.415 167.74 48.382 42.97 94.283 71.68 113.599 82.28 98.294 53.96 204.223 91.08 271.791 108.91 39.708 10.48 138.55 27.35 223.552 30.53 32.935 1.24 63.722.41 88.164-3.61 7.259-19.53 17.053-35.43 26.337-45.08 5.605-5.83 11.162-9.53 15.976-10.2 2.447-.34 4.723.11 6.665 1.47 1.926 1.35 3.426 3.55 4.476 6.53 3.994 11.33 2.453 20.66-3.613 28.13-6.005 7.39-16.338 12.83-29.657 16.73-5.693 1.67-11.959 3.06-18.708 4.21-1.379 3.78-2.661 7.7-3.825 11.74-14.51 50.37-10.507 118.79 55.463 168.72 66.353 50.22 109.837 76.76 142.667 96.66l1.99 1.21c31.75 19.24 53.6 32.48 76.93 55.72 136.35 135.84 128.4 342.01 19.85 438.95-23.14 20.67-55.41 36.71-90.33 48.58-26.31 8.94-54.16 15.53-80.808 19.93 21.828 12.19 43.518 28.26 62.908 48.14 34.33 35.18 61.5 82.29 69.58 140.8 8.08 58.52-2.95 128.37-44.86 209.02-30.48 58.64-82.692 103.88-144.548 138.62-61.858 34.73-133.416 58.98-202.67 75.6-69.258 16.62-136.246 25.61-188.984 29.82-26.369 2.1-49.183 3-66.944 3.06-17.693.06-30.447-.72-36.696-2.01-18.932-2.45-36.027-5.43-52.149-8.32-2.081-.38-4.145-.75-6.195-1.12-13.849-2.5-27.034-4.87-40.157-6.74-30.107-4.3-59.843-5.91-96.222-.14-18.462 2.94-39.092 9.34-57.783 18.19-18.702 8.86-35.384 20.14-46.02 32.79-38.497 45.77-67.387 95.3-59.434 173.43l.003.03v.02c1.331 28.73 16.318 72.51 40.661 110.47 19.788 30.85 45.63 57.66 75.14 69.49 13.923-14.89 29.371-28.5 46.171-40.23 14.947-10.44 37.759-24.5 58.231-33.6 10.247-4.55 26.998-10.59 43.5-12.48 16.444-1.87 33.012.35 42.406 12.79l.045.06.035.07c6.936 12.76 2.954 27.71-8.309 40.88-11.275 13.18-29.975 24.78-53.036 31.06-49.679 13.54-82.231 12.72-108.314 9.09-6.9-.96-13.64-2.76-20.194-5.28a316.963 316.963 0 0 0-13.744 15.85c-18.585 22.93-30.233 41.32-40.308 73.67-10.096 32.41-13.626 52.1-14.871 84.22.004 61.51 19.32 109.84 51.393 148.67 32.094 38.85 77 68.25 128.235 91.78 51.234 23.53 108.739 41.17 165.982 56.56 23.575 6.33 47.121 12.29 70.163 18.13 32.862 8.31 64.698 16.37 94.129 24.9 24.347 7.05 50.289 14.23 77.231 21.69 62.746 17.37 130.923 36.24 197.053 58.5 94.526 31.83 185.02 70.63 249.67 121.99l.03.02.03.03c70.97 66.01 104.6 177.45 109.31 292.38 4.71 114.95-19.5 233.64-64.5 314.34-84.16 150.92-260.971 216.54-482.174 180.5-26.123-4.26-53.003-9.07-80.355-13.96-82.777-14.81-169.867-30.39-253.297-33.75-110.976-4.46-215.222 12.72-293.962 81.97-27.469 24.16-51.338 66.28-65.838 112.79-14.497 46.5-19.576 97.21-9.632 138.48a.997.997 0 0 1-.738 1.2.998.998 0 0 1-1.206-.74c-10.056-41.73-4.899-92.82 9.667-139.54 14.563-46.71 38.585-89.21 66.426-113.69 79.309-69.75 184.184-86.94 295.364-82.47 83.581 3.37 170.87 18.98 253.68 33.8 27.323 4.89 54.159 9.69 80.212 13.94 220.69 35.95 396.493-29.56 480.103-179.5 44.78-80.31 68.95-198.62 64.25-313.29-4.7-114.68-38.25-225.48-108.65-290.97-64.36-51.13-154.568-89.83-249.028-121.63-66.075-22.25-134.161-41.09-196.884-58.46-26.958-7.46-52.926-14.65-77.318-21.71-29.416-8.52-61.178-16.56-93.999-24.87-23.045-5.83-46.612-11.8-70.256-18.15-57.274-15.4-114.909-33.08-166.297-56.68-51.387-23.6-96.587-53.14-128.943-92.32-32.373-39.19-51.851-87.98-51.851-149.96v-.02l.001-.02c1.252-32.31 4.815-52.18 14.96-84.76 10.168-32.64 21.96-51.25 40.664-74.33a318.819 318.819 0 0 1 13.306-15.38c-29.783-12.2-55.659-39.26-75.366-69.98-24.465-38.15-39.614-82.25-40.974-111.43-8.018-78.85 21.215-128.9 59.896-174.89 10.891-12.95 27.854-24.38 46.695-33.3 18.853-8.94 39.665-15.4 58.325-18.36 36.631-5.82 66.576-4.19 96.818.13 13.156 1.87 26.375 4.25 40.213 6.75 2.056.37 4.125.74 6.21 1.12 16.126 2.89 33.194 5.86 52.09 8.31l.037.01.037.01c6.008 1.24 18.587 2.03 36.321 1.97 17.703-.06 40.466-.96 66.792-3.06 52.654-4.19 119.536-13.17 188.676-29.76 69.144-16.6 140.512-40.79 202.158-75.41 61.648-34.61 113.517-79.61 143.747-137.79 41.76-80.35 52.67-149.78 44.66-207.82-8.01-58.04-34.96-104.77-69.03-139.69-19.92-20.41-42.262-36.78-64.677-49.01a542.584 542.584 0 0 1-22.539 3.12c-33.948 3.97-64.271 4.22-84.538 1.11-10.097-1.55-17.859-3.95-22.298-7.26-2.238-1.67-3.725-3.65-4.139-5.94-.416-2.3.286-4.72 1.989-7.19l.061-.09.078-.07c7.908-7.43 19.99-11.46 34.595-12.31 14.621-.85 31.879 1.5 50.278 6.93 15.105 4.46 31.002 11.01 46.87 19.62 27.32-4.39 55.99-11.08 83.01-20.26 34.79-11.83 66.78-27.76 89.64-48.18 107.56-96.06 115.73-300.89-19.93-436.04-23.16-23.07-44.83-36.21-76.65-55.48l-1.9-1.16c-32.86-19.91-76.404-46.5-142.834-96.77-66.814-50.57-70.846-119.96-56.178-170.87 1.068-3.71 2.236-7.32 3.487-10.82-24.482 3.9-54.997 4.67-87.455 3.45-85.144-3.19-184.132-20.08-223.987-30.6-67.696-17.86-173.782-55.04-272.244-109.09-19.432-10.66-65.458-39.45-113.965-82.54-48.501-43.08-99.543-100.5-128.921-168.44C.04 1223.35-3.714 1144.16 4.124 1073.58c7.838-70.56 27.285-132.67 45.384-164.328 31.823-55.663 71.736-93.292 131.527-128.863 44.431-26.433 89.485-44.197 144.798-63.087 19.824-6.77 36.183-12.051 51.205-16.901 37.168-11.998 66.147-21.354 119.139-44.072 30.114-12.91 60.511-24.871 89.465-36.265 4.143-1.63 8.256-3.248 12.334-4.856 32.594-12.85 62.969-25.026 88.597-37.112 30.396-14.335 90.922-45.827 126.515-64.347 9.078-4.723 16.533-8.602 21.454-11.138 39.734-20.476 212.508-125.819 253.908-152.206 38.37-24.454 74.16-54.794 100.8-87.267 26.64-32.489 44.04-67.024 45.77-99.88 1.73-32.777-12.13-64.045-48.34-90.128-36.26-26.12-94.94-47.026-182.76-58.891C877.153-2.887 705.419.97 559.021 14.244 430.239 25.92 382.713 40.838 336.027 55.49c-6.36 1.997-12.705 3.988-19.237 5.966-18.187 5.506-40.461 14.967-64.867 25.334-12.087 5.134-24.697 10.49-37.593 15.699-38.851 15.69-80.217 29.996-117.213 32.508a1 1 0 0 1-.136-1.996c36.653-2.488 77.762-16.682 116.6-32.367 12.795-5.167 25.353-10.5 37.417-15.625 24.476-10.396 46.922-19.93 65.212-25.467 6.529-1.977 12.873-3.968 19.234-5.964 46.748-14.673 94.411-29.632 223.396-41.327ZM973.149 2516.45c-14.973-7.93-29.929-14.01-44.166-18.21-18.238-5.39-35.259-7.68-49.595-6.85-14.301.82-25.823 4.75-33.263 11.69-1.462 2.16-1.897 4.02-1.608 5.62.294 1.62 1.376 3.2 3.367 4.68 4.021 3 11.36 5.35 21.405 6.89 20.019 3.07 50.145 2.85 84.003-1.12 6.499-.76 13.133-1.66 19.857-2.7ZM186.901 3549.43c6.183 2.32 12.522 3.98 18.996 4.88 25.829 3.59 58.108 4.42 107.513-9.04 22.752-6.2 41.076-17.61 52.041-30.43 10.957-12.81 14.441-26.83 8.107-38.56-8.727-11.5-24.286-13.8-40.538-11.95-16.222 1.85-32.765 7.81-42.913 12.32-20.317 9.03-43.015 23.01-57.899 33.41-16.457 11.49-31.616 24.8-45.307 39.37Zm671.23-1875.61c6.241-1.1 12.045-2.41 17.34-3.96 13.173-3.86 23.041-9.15 28.666-16.07 5.563-6.85 7.079-15.42 3.279-26.21-.959-2.72-2.254-4.51-3.739-5.55-1.468-1.03-3.217-1.41-5.241-1.13-4.126.57-9.287 3.86-14.808 9.6-8.889 9.25-18.359 24.49-25.497 43.32Z" fill="#FC4545"/></svg>