<svg width="36" height="41" fill="none" xmlns="http://www.w3.org/2000/svg"><path d="M17.57 18.088c-2.824-2.412-5.248-5.099-7.96-7.592-.621-.57-1.189-1.216-2.167-1.48-.746-.2-1.185-.675-1.705-1.07-.062-.047-.275-.163-.218-.113.433.384.95.715 1.388 1.099a93.583 93.583 0 0 1 4.755 4.5c.788.798 1.523 1.637 2.405 2.37.567.47 1.332.768 1.909 1.225.272.215.654.333.898.568.004.004.15.12.135.132-.077.058-.148-.028-.21-.053a3.497 3.497 0 0 1-.696-.367c-1.574-1.025-2.722-2.433-3.91-3.731-1.504-1.641-2.841-3.394-4.38-5.01C7.273 8 6.7 7.28 5.78 7.021c-.765-.215-1.11-.95-1.506-1.444-.344-.427-.787-.787-1.223-1.151-.423-.355.485.937.737 1.4.164.302.125.454.039.858-.168.781.044 1.374.363 1.96.186.342.344.704.564 1.026.037.055.391.344.224.124-.815-1.072-1.68-2.102-2.365-3.254-.447-.752-.85-1.528-1.267-2.296-.087-.16-.278-.374-.306-.575-.017-.12.766-.202.823-.205.936-.048 1.815.265 2.661.37 1.061.13 2.084.297 2.971.64.195.075.341.22.56.268.183.04-.418 0-.627 0-1.07-.004-2.033-.164-2.946-.387-.35-.085-.585-.156-1.048-.044-.653.157-.884.597-.744.94.612 1.49 1.544 2.85 2.311 4.262" stroke="#222" stroke-width=".8" stroke-linecap="round"/><path d="M17.117 32.883c.014-.005.004-.059-.03-.159-.03-.11-.04-.175-.032-.195l-.103-.51.04-.287-.204-.725a.704.704 0 0 1-.07-.168l-.033-.109-.026-.062-.3-1.19-.161-.915a.184.184 0 0 0-.114-.038c-.226-.012-.442.127-.649.418l-.81.646a2.102 2.102 0 0 1-.045.129l.004.01c-.005.027-.041.058-.108.094a.62.62 0 0 0-.117.074l-.134.178a.179.179 0 0 1-.029.05l-.056.072a.797.797 0 0 1-.074.116l-.563.444.021.053.013-.03.001-.025c-.242-.07-.38-.157-.414-.257a.262.262 0 0 0-.096-.083l-.056-.136.027-.404c.041-.058.074-.088.098-.09l.374-.427.563-.418.052-.022.08-.046a.286.286 0 0 0 .107-.094l.29-.219c.034-.113.1-.172.195-.18l.085-.06.079-.106.333-.2c.1-.075.205-.168.314-.28l.142-.07.136-.057.246-.177-.315-2.754-.049-.766a.434.434 0 0 1 .03-.135c-.097-.27-.161-.67-.193-1.197l-.011-.056c0-.041-.029-.177-.084-.407l-.074-.326-.122-.232c.018-.154.064-.26.139-.315l.082-.157.15-.112.761.149.052.064.138.066c.101.203.148.326.142.37l-.028.257-.04.52c-.01.095-.01.193 0 .295l.018.25.013.266c.006.152.014.24.022.26a4.168 4.168 0 0 0-.05.352c.032.094.046.276.045.547.002.261.027.439.075.534l-.028.404.058.64.05.384c.007.054.02.147.042.277l.01.143c.014.01.019.033.016.067l-.007.04c-.01.037.065.038.223.005l.328-.125c.05-.02.157-.057.323-.11.02-.009.107-.048.257-.12.095-.047.158-.061.19-.042l.55-.217.196-.057a.67.67 0 0 0 .239-.075l.1-.054c-.028.011.046-.008.223-.056.227-.063.32-.077.277-.042l.32-.085.299-.05.05.089-.027.084-.11.206c-.003.034-.195.122-.577.266a.745.745 0 0 1-.151.05l-.262.11a.705.705 0 0 1-.192.068l-.032.013-.058.036-.073.03c.006.015.012.02.019.017l-.034-.022-.396.288-1.563.873c-.014.047.002.142.046.288.013.01.026.042.04.094l.028.098a.61.61 0 0 0 .027.358c.007.038.022.093.044.165l.012.118.047.14c.061.188.078.246.049.177.041.08.052.125.031.134l.055.603.155.488c.009.021.022.073.04.155l.081.372c.073.33.122.506.147.528.013.01.023.015.03.012l-.03-.012.12.465a.955.955 0 0 1 .062.294l.085.382.257.556.085.087-.04.14a.333.333 0 0 1 .041.068.332.332 0 0 1-.033.125l-.717.52a.618.618 0 0 1-.152-.071.16.16 0 0 0-.014-.093c-.019-.025-.026-.042-.022-.052l-.257-.409c-.06-.261-.111-.522-.154-.782Zm6.549-6.073c-.024-.195-.054-.305-.09-.331l.064-.321-.057-.43c-.165-.317-.397-.49-.696-.52-.026-.023-.047-.034-.064-.036l-.375.28a.234.234 0 0 1-.14.107l-.177.369a.194.194 0 0 1-.07.066l-.22.828a1.759 1.759 0 0 0-.158.386c-.112.497-.17.8-.174.908l-.05 1.114c.07.387.115.68.132.878.014.051.029.098.046.14.03.07.068.131.115.185l.219.437c.044.047.105.046.183-.003.177-.106.332-.253.467-.44a5.94 5.94 0 0 0 .316-.537l.113-.318.106-.277c-.012-.028.017-.106.087-.233l.042-.25a.079.079 0 0 0 .065-.052c.021-.165.077-.344.168-.538.032-.356.064-.612.099-.765a.595.595 0 0 1 .061-.087l-.012-.56Zm4.073 3.286-.302.102-.44-.026c-.22.06-.362.074-.424.043-.204.003-.443-.061-.719-.192-.377-.178-.6-.281-.67-.31l-.255-.348-.27-.206-.27-.38a.232.232 0 0 1-.038-.093l-.055-.1a.28.28 0 0 1-.091-.073 1.03 1.03 0 0 1-.075.203c-.036.13-.072.24-.109.328l-.082.305-.057.245a1.09 1.09 0 0 0-.109.18.777.777 0 0 1-.1.288c.014.035-.01.077-.07.127l-.183.445-.18.394a7.981 7.981 0 0 0-.384.345c-.28.272-.62.458-1.019.56-.217.009-.429-.145-.634-.46-.067-.103-.12-.2-.158-.29l-.113-.359-.215-1.162c-.02-.05-.034-.17-.04-.364a10.519 10.519 0 0 1-.008-.93l.084-.416.063-.468.15-.554.227-.513.182-.505c.041-.058.076-.114.103-.166l.114-.404.293-.417a1.48 1.48 0 0 0 .228-.218c.391-.22.639-.352.744-.396l.114-.048.13-.042c.208-.07.448-.056.719.044.07.052.127.148.168.286a.67.67 0 0 0 .097.144l.066.218.201.48.105.4c.069.085.115.303.138.654a.667.667 0 0 1 .07.081l.029.48c-.02.032-.018.085.004.157.12.384.187.594.201.629.023.055.05.147.078.274.026.12.05.209.073.264l.363.488.626.439.762.296.76.087.147.086a.44.44 0 0 0 .082.138.104.104 0 0 1-.032.1.228.228 0 0 0-.019.13Zm2.865-7.151c-.006-.153-.074-.383-.202-.69l-.074-.178-.078-.127a1.91 1.91 0 0 0-.326-.134 1.551 1.551 0 0 0-.29.072l-.363.274-.31.523-.03.221a.722.722 0 0 0-.064.174l-.18.42-.03.195a2.233 2.233 0 0 0-.11.206l-.02.66a2.056 2.056 0 0 1-.116.367l-.016 1.345-.038.115.055 1.192.103.13c0 .04.018.061.052.064l.297-.112.334.094.177-.43c.069-.168.174-.396.316-.684l.053-.109.684-2.127c.011-.169.048-.327.109-.475a.277.277 0 0 0-.019-.103l.019-.72.067-.163Zm-3.5 2.97.015.007-.001-.061a.456.456 0 0 0-.039-.18 3.629 3.629 0 0 1 0-.884l.307-.117.025-.059c.091-.055.14-.107.143-.158l.274-.962c-.023-.113.014-.26.111-.439.12-.222.198-.349.234-.38a.45.45 0 0 0 .042-.165c.096-.261.18-.44.255-.536l.283-.266a.364.364 0 0 0 .148-.086c.06-.05.105-.08.133-.092a.646.646 0 0 1 .216-.041l.383-.172c.022-.026.034-.047.035-.064l.509-.016.382.062c.142.047.229.117.26.21l.055.162.151.157.2.802c.1.18.125.565.078 1.158a.748.748 0 0 0-.052.23l-.1.35-.185.703-.485 1.369-.076.142-.273.728-.13.19c-.195.531-.363.855-.503.97l-.244.594c-.012.03-.043.091-.094.186l-.053.108-.008.04-.016.02.015.006-.026-.002c.015.035.014.064 0 .086l-.034.039a.369.369 0 0 0-.035.063.451.451 0 0 1-.17.12.794.794 0 0 1-.248.055c-.032.021-.045.048-.04.078-.033-.076-.002.087.093.49l-.01.004.009.23.241 1.077a.35.35 0 0 1 0 .148.136.136 0 0 0-.008.04l.071.08.16.708.238.895.086.53a.41.41 0 0 1 .059.257l.18.256c.005.031.021.07.048.115.005.031-.015.052-.06.062l-.075.29-.105.19-.59.148-.127-.217-.082-.198-.035-.465a1.308 1.308 0 0 0-.08-.397l-.098-.413-.023-.26-.085-.235a1.808 1.808 0 0 0-.052-.212c-.013-.01-.016-.018-.009-.02l-.47-1.892-.145-.848-.072-.142-.083-.408-.042-.363c.018-.114.002-.27-.049-.47l-.026-.064c-.003-.006-.008-.009-.015-.006l-.11-.998c.049-.159.027-.477-.066-.954l.005-.076-.01-.082-.092-.575-.013-.18Z" fill="#000"/></svg>