<svg width="220" height="24" fill="none" xmlns="http://www.w3.org/2000/svg"><g clip-path="url(#a)"><mask id="b" style="mask-type:luminance" maskUnits="userSpaceOnUse" x="0" y="0" width="220" height="24"><path d="M220 0H0v24h220V0Z" fill="#fff"/></mask><g mask="url(#b)" fill="#fff"><path d="m23.524.591-8.005 10.16L7.514.59H0l12.281 15.576v7.475h6.477v-7.475L31.038.59h-7.514Zm32.482 2.576C53.297 1.055 49.363 0 44.204 0s-9.093 1.056-11.8 3.167c-2.64 2.066-3.958 5.01-3.958 8.833 0 3.823 1.32 6.767 3.957 8.834C35.111 22.944 39.045 24 44.204 24c5.16 0 9.093-1.056 11.802-3.166 2.638-2.067 3.957-5.012 3.957-8.834s-1.32-6.767-3.957-8.834ZM44.204 18.08c-5.779 0-8.668-2.026-8.668-6.08 0-4.053 2.89-6.08 8.668-6.08 5.78 0 8.669 2.027 8.669 6.08 0 4.054-2.89 6.08-8.669 6.08ZM92.25 12c0-3.822-1.317-6.766-3.955-8.834C85.586 1.056 81.653 0 76.493 0c-5.16 0-9.093 1.056-11.801 3.167-2.639 2.066-3.958 5.01-3.957 8.833 0 3.823 1.319 6.767 3.957 8.834C67.4 22.944 71.333 24 76.493 24s9.094-1.056 11.802-3.166c2.638-2.067 3.957-5.012 3.956-8.834Zm-15.757 6.08c-5.779 0-8.669-2.026-8.669-6.08 0-4.053 2.89-6.08 8.67-6.08 5.778 0 8.668 2.027 8.668 6.08 0 4.054-2.89 6.08-8.669 6.08Zm20.912 2.752c2.708 2.11 6.642 3.166 11.801 3.166s9.094-1.056 11.802-3.166c2.638-2.067 3.957-5.012 3.956-8.834 0-3.822-1.318-6.766-3.956-8.833C118.299 1.055 114.365 0 109.206 0s-9.093 1.056-11.8 3.167c-2.64 2.066-3.959 5.01-3.958 8.833.001 3.823 1.32 6.767 3.957 8.832Zm11.801-14.914c5.78 0 8.669 2.027 8.669 6.08-.001 4.054-2.89 6.08-8.669 6.08-5.778 0-8.668-2.026-8.668-6.08-.001-4.053 2.889-6.08 8.668-6.078v-.002ZM220 6.09V.565h-22.822V23.6H220v-5.526h-16.082v-3.432h15.122v-5.12h-15.122V6.09H220Zm-95.327 0h9.559V23.6h7.577V6.09h9.752V.565h-26.888V6.09ZM161.016.565h-7.534V23.6h7.534V.565Zm18.037 12.165L169.072.565h-5.853V23.6h6.808V12.346l9.027 10.596 9.027-10.596V23.6h6.808V.565h-5.854l-9.982 12.165Z"/></g></g><defs><clipPath id="a"><path fill="#fff" d="M0 0h220v24H0z"/></clipPath></defs></svg>