<svg width="62" height="124" fill="none" xmlns="http://www.w3.org/2000/svg"><path d="M36.137 67.669H25.912c-2.844 5.905-4.266 11.1-4.266 15.588 0 4.37.533 8.444 1.6 12.223 1.066 3.78 2.251 6.436 3.555 7.972h9.158c3.2-5.55 6.01-11.984 6.01-18.952 0-7.085-2.75-12.58-5.832-16.831ZM34.969 47l9 .12c6.755 3.425 9.637 8.503 13.311 15.235 3.793 6.613 4.689 13.935 4.689 20.902 0 16.652-5.637 29.878-16.41 40.743H17.735C6.969 114 2.469 106.5.469 91-.648 82.346.358 70.208 2.135 63.24 4.032 56.273 5.073 51.106 6.97 46.5 8.865 41.895 11 36 14.002 28.343L26.8 0h18.402l-19.29 49.361c4.384-2.716 4.908-2.36 9.056-2.36Z" fill="#FC4545"/></svg>