<svg width="68" height="125" fill="none" xmlns="http://www.w3.org/2000/svg"><path d="M45.088 124.6H22.784c-6.408-2.729-11.807-7.239-16.198-13.528C2.196 104.783 0 97.603 0 89.534c0-13.053 5.043-22.903 15.13-29.548v-.712C7.06 52.391 3.026 43.788 3.026 33.464c0-7.832 2.195-14.715 6.586-20.648C14.122 6.764 19.462 2.492 25.632 0h16.43c6.17 2.492 11.392 6.645 15.664 12.46 4.39 5.815 6.586 12.638 6.586 20.47 0 10.324-4.094 18.987-12.282 25.988v.712c10.205 6.764 15.308 16.495 15.308 29.192 0 7.95-2.255 15.249-6.764 21.894-4.39 6.527-9.553 11.155-15.486 13.884ZM30.972 71.556c-4.153 3.441-6.23 8.485-6.23 15.13 0 3.679.653 7.18 1.958 10.502 1.424 3.323 2.967 5.577 4.628 6.764h4.682c1.661-1.187 3.145-3.441 4.45-6.764 1.424-3.323 2.136-6.823 2.136-10.502 0-6.645-2.077-11.689-6.23-15.13h-5.394ZM32.04 21.36c-1.661 1.187-3.145 3.145-4.45 5.874-1.305 2.61-1.958 5.518-1.958 8.722 0 5.933 2.077 10.858 6.23 14.774h3.614c4.153-3.916 6.23-8.84 6.23-14.774 0-3.204-.653-6.111-1.958-8.722-1.305-2.73-2.789-4.687-4.45-5.874H32.04Z" fill="#FC4545"/></svg>