<svg width="14" height="25" fill="none" xmlns="http://www.w3.org/2000/svg"><path d="M9.19 24.465H4.888c-1.236-.526-2.278-1.396-3.125-2.609-.846-1.213-1.27-2.598-1.27-4.154 0-2.518.973-4.418 2.918-5.7v-.137c-1.556-1.327-2.334-2.987-2.334-4.978 0-1.51.423-2.838 1.27-3.983.87-1.167 1.9-1.991 3.09-2.472h3.17c1.19.481 2.196 1.282 3.02 2.404.847 1.121 1.27 2.437 1.27 3.948 0 1.991-.789 3.662-2.368 5.013v.137c1.968 1.305 2.952 3.181 2.952 5.63a7.362 7.362 0 0 1-1.304 4.223c-.847 1.26-1.843 2.152-2.987 2.678Zm-2.723-10.23c-.801.663-1.202 1.636-1.202 2.917 0 .71.126 1.385.378 2.026.275.64.572 1.076.893 1.305h.903c.32-.23.606-.664.858-1.305a5.08 5.08 0 0 0 .412-2.026c0-1.281-.4-2.254-1.202-2.918h-1.04Zm.206-9.683c-.32.23-.606.607-.858 1.133a3.709 3.709 0 0 0-.378 1.683c0 1.144.4 2.094 1.202 2.85h.697c.8-.756 1.201-1.706 1.201-2.85 0-.618-.125-1.18-.377-1.683-.252-.526-.538-.904-.859-1.133h-.628Z" fill="#B8E97D"/></svg>