<svg width="319" height="4343" fill="none" xmlns="http://www.w3.org/2000/svg"><path d="M57.5 42.5C75.5 41 88 34.452 109 27s40.5-11 50-13 39.5-7.5 67.5-4.5 47 12.5 61.5 25 31 44.151 29 80.5-16 78.66-55 104c-39 25.34-83 23.5-122.5 33s-69 18-99 36.5-56 52-56 101.5 8.577 80 23 117.5S50 584 105.5 611 211 638.5 257 674.787 307.5 737 307.5 767.5c0 30.5-13 61.624-34 85-21 23.376-38.5 40.52-72 63.26C168 938.5 103 959 71 983c-32 24-48.5 46.04-59 72s-8 71.98 4.5 104.24C29 1191.5 44 1207 63 1225c19 18 159 106.8 194 144.15 35 37.35 42.5 60.67 47 76.85 4.5 16.18 9 50.5 9 77.95 0 27.46-5.5 61.55-19 98.05s-62 106.5-92 141.5-119 84-126.5 181 153 119 179.5 208-32.5 161.61-100 188C87.5 2366.89 49.191 2394 22 2437c-27.191 43-19.5 125 42.5 188s121 87.5 175 143 68.5 136 71 156.5S331.314 3064 271 3134s-287.5 23.5-287.5 23.5 15 204 116 271S340 3512 315.5 3672 22.5 3645.5 3 3826s185 183.98 258 263.49c73 79.51 55.5 158.72 33 185.36-22.5 26.65-65 44.63-100.5 54.15-35.5 9.52-89.5 14-110 13.5s-50.5-1.98-62-11.5 19-15 32.5-15 37 4.5 37 11.5-15.5 10.5-23.5 10.5-23-1.5-23-1.5-20.5-2-17-12.5" stroke="#FC4545" stroke-width=".8"/><path d="M83.963 5.153C75.433-4.425 53.5 16.178 50.299 19.869 44 27.134 38.007 34.601 35.511 44.07c-1.123 4.26-2.005 9.086 2.591 11.443 5.508 2.825 12.529 2.013 18.296.643 12.673-3.012 28.68-10.865 27.351-26.129-.633-7.277-4.082-14.35-12.227-14.35-11.186 0-23.479 7.205-31.956 13.83-8.204 6.411-14.226 20.323-4.696 28.332 4.316 3.626 10.182 4.38 15.612 4.405 9.901.046 20.362-1.56 28.358-7.893 6.233-4.937 11.317-12.236 9.087-20.5-2.16-8.006-7.97-15.89-14.332-21.05-4.049-3.284-8.888-5.76-13.873-7.22-4.565-1.337-11.976-3.195-16.619-1.07-7.704 3.523-1.4 21.868.884 25.944 7.19 12.831 20.118 20.431 33.908 24.324 3.336.942 18.665 5.344 21.65.153 1.357-2.36-1.416-7.053-2.44-9.056-2.143-4.195-5.418-7.313-8.965-10.342-7.79-6.653-16.683-8.754-26.924-8.414-6.424.214-12.414.639-17.35 5.324-4.194 3.98-4.93 9.468-5.825 14.778-.87 5.16-2.828 14.704.366 19.673 2.666 4.145 9.006 1.402 12.228-.153 12.946-6.25 22.737-17.58 30.95-29.097 5.608-7.865 12.153-17.401 13.721-27.26.35-2.203.81-7.825-1.982-9.118-2.825-1.308-7.597 2.545-9.361 3.886Zm0 0c-7.431 5.645-14.13 12.537-20.43 19.397-4.854 5.286-9.403 10.853-12.502 17.379-1.022 2.153-6.296 12.976-2.073 14.747 2.857 1.198 6.907.503 9.757-.061 7.737-1.532 15.328-4.55 21.833-9.057 4.42-3.062 9.407-7.093 11.19-12.422 1.728-5.162-.752-11.189-3.262-15.634-4.572-8.095-12.589-13.445-21.894-13.86-9.445-.421-36.145 2.888-27.199 18.878.804 1.436 2.663 4.284 4.33 4.803 4.075 1.268 11.754.01 14.88-.428 7.497-1.049 22.301-3.846 29.76-5.385 4.282-.884 14.956-1.432 12.198-4.834-1.207-1.488-3.31-2.282-5.123-2.631-2.823-.544-5.49-.129-8.294.367-7.505 1.327-14.976 2.83-22.503 4.039-6.278 1.008-12.584 1.939-18.906 2.63-.9.1-1.633-.038-2.317.613-4.319 4.111-12.38 9.646-12.38 16.215 0 1.626.29 1.91 1.952 2.264 8.148 1.738 16.706.682 24.942.306" stroke="#FC4545" stroke-width=".8" stroke-linecap="round"/></svg>