<svg width="768" height="5511" fill="none" xmlns="http://www.w3.org/2000/svg"><g clip-path="url(#a)"><path d="m434.625 4218.72-19.117-24.81 29.498-4.94-10.381 29.75Zm37.615-7.08-20.703-23.46 29.108-6.95-8.405 30.41Zm38.121-9.78-22.019-22.16 28.657-8.69-6.638 30.85Zm40.435-15.57-25.253-18.2 26.891-13.34-1.638 31.54Zm37.041-21.27-27.29-14.82 25.038-16.68 2.252 31.5Zm34.296-29.23-30.139-6.96 10.416-10.93 9.447-11.9 10.276 29.79Z" fill="#C7FE84"/><path fill-rule="evenodd" clip-rule="evenodd" d="m9.824 3784.82-4.13-18.32-1.141.37 4.132 18.33.002.02.004.01c9.713 37.46 24.373 72.46 48.814 101.65 24.444 29.18 58.634 52.51 107.349 66.69 41.93 12.21 95.763 4.24 152.596-6.74 8.976-1.72 18.028-3.54 27.122-5.35 48.535-9.7 98.255-19.63 143.976-19.63 54.319 0 86.245 6.96 106.915 17.4 20.634 10.43 30.093 24.32 39.458 38.41 4.133 6.21 6.546 19.41 7.841 31.52 1.295 12.1-4.407 41.51-4.407 41.51-5.457 29.25-27.895 63.79-56.167 83.24-59.621 41.03-117.699 55.28-220.338 66.57-40.787 4.48-69.742 1.88-97.595-2.91-9.578-1.65-19.039-3.56-28.813-5.54-18.63-3.76-38.396-7.76-62.272-10.6-31.153-3.7-59.525-5.05-83.546 1.75-24.055 6.82-43.75 21.83-57.51 50.8-27.506 57.91-12.645 145.27 36.762 231.39l.011.01.012.02c44.127 67.13 84.137 93.28 145.49 133.14 64.293 41.76 116.932 47.07 158.353 51.24 13.779 1.39 26.317 2.66 37.628 5.1 28.549 6.15 55.709 11.85 81.579 17.27 25.759 5.4 50.24 10.53 73.539 15.58 46.616 10.11 91.425 30.38 126.934 60.99 17.453 15.04 30.667 41.42 38.246 68.22 3.784 13.39 6.161 26.87 6.953 39.05.792 12.2 0 23.04-2.501 31.22-10.151 33.14-29.745 68.87-67.488 68.87-12.765 0-21.621-1.74-30.466-3.48-4.351-.85-8.691-1.7-13.492-2.35-14.538-1.95-33.032-1.94-68.04 5.84-11.998 2.67-24.297 5.6-36.815 8.59-60.511 14.44-126.1 30.09-187.112 22.49-52.157-6.5-75.282-15.03-94.075-21.97-7.771-2.87-14.801-5.46-22.837-7.52-10.389-2.68-36.988-6.03-45.096-6.03h-.008c-2.702 0-5.445 0-8.991.72-3.251.66-4.368 1.17-7.201 2.47-.265.12-.544.25-.84.39-.635.23-1.26.63-1.84 1.03-.133.08-.263.18-.392.27-.457.31-.888.6-1.321.84-3.193 1.78-6.349 3.85-8.709 6.51-2.332 2.61-3.914 5.84-3.971 9.91a23.93 23.93 0 0 0-1.525 3.03c-1.673 4.03-2.517 9.27-1.385 16.65.537 3.49.229 7.3-.349 11.55-.181 1.34-.388 2.71-.603 4.14-.466 3.09-.964 6.39-1.286 9.88-.948 10.26-.405 22.33 6.665 36.8 2.713 5.55 3.385 12.12 2.631 19.32-.756 7.2-2.936 14.99-5.886 22.92-4.647 12.49-11.161 25.21-16.91 36.45-1.556 3.04-3.056 5.97-4.448 8.76-1.981 3.96-4.414 8.22-7.047 12.83-14.581 25.54-35.291 61.8-19.386 118.59 9.372 33.45 24.525 57.83 45.931 75.08 21.393 17.23 65.037 29.25 99.255 34.19 34.255 4.95 72.801-.35 108.462-7.09 9.944-1.89 19.658-3.87 28.994-5.79 24.189-4.96 45.83-9.4 62.307-10.03l-.039-1.41c-16.564.64-38.334 5.1-62.563 10.07-9.317 1.91-18.997 3.89-28.884 5.76-35.65 6.74-74.056 12.02-108.135 7.1-34.116-4.93-77.555-16.91-98.735-33.97-21.168-17.06-36.172-41.16-45.471-74.36-16.759-59.84 4.629-91.72 19.199-117.25 2.651-4.65 5.111-8.96 7.128-13 1.378-2.76 2.869-5.67 4.418-8.7 5.754-11.24 12.323-24.08 17.005-36.66 2.973-7.99 5.203-15.92 5.978-23.31.776-7.4.1-14.31-2.782-20.21-6.916-14.15-7.439-25.91-6.512-35.94.318-3.44.803-6.66 1.266-9.72.217-1.44.428-2.84.615-4.22.582-4.28.921-8.29.345-12.03-1.092-7.12-.265-12.06 1.281-15.77.18-.43.37-.86.568-1.26.675 7.1 4.576 12.4 8.379 15.68 4.229 3.65 9.713 5.7 21.22 7.47 7.974 1.23 38.454 1.59 45.778.18 3.677-.71 8.164-1.87 12.419-3.65 4.245-1.79 8.313-4.21 11.106-7.5 2.771-3.26 4.539-7.19 4.711-10.97.173-3.85-1.303-7.44-4.826-9.92-3.309-2.33-6.961-3.58-11.381-4.65-1.973-.48-4.11-.93-6.443-1.42l-.848-.17c-2.669-.56-5.597-1.18-8.846-1.97-6.201-1.52-27.006-4.81-30.535-5.82l-.19-.05c6.582.56 30.088 3.75 37.475 5.65 7.921 2.04 14.9 4.61 22.636 7.47 18.819 6.94 42.125 15.54 94.401 22.05 61.209 7.62 127.016-8.08 187.527-22.52 12.502-2.99 24.777-5.92 36.74-8.58 34.927-7.76 53.303-7.75 67.687-5.82 4.7.63 8.993 1.48 13.321 2.32 8.897 1.75 17.914 3.52 30.773 3.52 38.542 0 58.407-36.53 68.6-69.8 2.583-8.43 3.37-19.5 2.566-31.8-.804-12.32-3.199-25.91-7.012-39.4-7.621-26.96-20.948-53.64-38.672-68.91-35.687-30.76-80.667-51.1-127.414-61.24-23.286-5.05-47.786-10.18-73.562-15.59-25.877-5.42-53.041-11.11-81.558-17.26-11.439-2.47-24.061-3.74-37.899-5.14-41.397-4.17-93.677-9.45-157.727-51.06-61.337-39.84-101.152-65.87-145.113-132.74-49.318-85.97-63.86-172.69-36.697-229.88 13.577-28.58 32.976-43.37 56.753-50.11 23.813-6.75 52.013-5.43 83.156-1.72 23.841 2.83 43.529 6.81 62.131 10.57 9.785 1.97 19.27 3.89 28.903 5.55 27.926 4.81 56.976 7.41 97.872 2.92 102.68-11.29 160.97-25.57 220.82-66.74 28.615-19.7 51.213-54.61 56.729-84.16 0 0 5.743-29.73 4.431-42-1.313-12.25-3.774-25.73-8.089-32.22-9.395-14.13-19.008-28.26-39.926-38.83-20.885-10.54-52.997-17.51-107.376-17.51-45.829 0-95.664 9.96-144.196 19.65-9.088 1.82-18.13 3.63-27.091 5.36-56.873 10.98-110.467 18.88-152.127 6.75-48.542-14.13-82.527-37.35-106.792-66.33-24.264-28.97-38.843-63.74-48.518-101.05Zm127.784 1189.44c.079 7.45 4.008 13.05 7.991 16.49 3.976 3.43 9.206 5.45 20.679 7.21 7.799 1.2 38.14 1.6 45.438.19 3.634-.71 8.048-1.84 12.216-3.59 4.178-1.76 8.056-4.1 10.668-7.17 2.632-3.1 4.209-6.71 4.36-10.05.148-3.28-1.078-6.4-4.246-8.63-3.138-2.2-6.638-3.42-11.016-4.48-1.955-.47-4.074-.92-6.409-1.41l-.85-.17a27.89 27.89 0 0 0-.957-.2c1.361.34 2.689.71 3.971 1.11 4.576 1.4 8.594 3.13 11.328 5.13 2.685 1.95 4.373 3.7 5.278 5.57.925 1.92.987 3.88.61 6.1-.391 2.3-1.518 4.27-3.001 5.97-1.482 1.69-3.348 3.13-5.277 4.38-3.933 2.55-11.12 4.95-23.878 5.31-6.385.17-29.639-2.2-35.995-3.11-6.33-.91-11.9-2.31-14.957-4.14-5.935-3.54-9.327-7.08-10.354-11.37-.96-4-.146-7.57.753-10.94-.961.97-1.701 1.81-2.134 2.32-.146.17-.294.34-.442.52-1.255 1.48-2.594 3.06-3.776 4.96Zm8.314-9.65a9.77 9.77 0 0 0-.697 1.77c-.957 3.54-1.781 6.89-.881 10.64.879 3.67 3.857 6.98 9.746 10.5 2.856 1.7 8.242 3.08 14.569 3.99 6.301.9 29.498 3.27 35.827 3.1 12.671-.36 19.643-2.74 23.34-5.14 1.884-1.22 3.649-2.59 5.025-4.17 1.374-1.56 2.331-3.29 2.659-5.22.343-2.01.257-3.59-.476-5.11-.754-1.56-2.233-3.16-4.869-5.09-2.586-1.88-6.47-3.56-11.007-4.96-4.527-1.39-9.663-2.48-14.727-3.18-13.378-1.86-36.192-4.29-40.529-4.08-3.272.16-5.144.72-7.49 1.42-.75.22-1.549.46-2.457.7-2.643.71-5.284 2.49-7.479 4.35-.188.15-.374.32-.554.48Zm2.162-3.41c.133-.17.269-.35.408-.52 1.558-1.93 3.295-3.53 4.572-4.1.305-.15.591-.28.861-.4 2.811-1.29 3.839-1.76 6.972-2.4 3.444-.69 6.102-.7 8.802-.7.488 0 1.269.14 2.413.43 1.132.28 2.573.68 4.364 1.19l.517.15c3.53 1 24.35 4.31 30.567 5.82.722.18 1.429.35 2.12.5-1.696-.31-3.409-.6-5.112-.83-13.377-1.86-36.275-4.31-40.715-4.09-3.401.17-5.405.77-7.78 1.47-.739.22-1.513.46-2.377.69-1.954.52-3.875 1.57-5.612 2.79Zm-3.055 2.44a43 43 0 0 0-4.036 4.14c-.149.17-.301.35-.455.53-.873 1.03-1.821 2.15-2.738 3.42.453-2.65 1.682-4.87 3.407-6.81 1.712-1.93 3.897-3.55 6.259-5-.931 1.18-1.793 2.47-2.437 3.72Z" fill="#FC4545"/><path d="M108.231 18.27C93.854 1.82 56.888 37.204 51.492 43.543c-10.618 12.476-20.718 25.3-24.926 41.563-1.892 7.315-3.378 15.603 4.369 19.652 9.282 4.85 21.116 3.457 30.836 1.103 21.36-5.172 48.34-18.658 46.101-44.873-1.067-12.497-6.881-24.644-20.609-24.644-18.854 0-39.573 12.373-53.861 23.75-13.828 11.012-23.979 34.903-7.915 48.657 7.273 6.228 17.16 7.523 26.314 7.567 16.688.079 34.32-2.681 47.797-13.557 10.504-8.477 19.074-21.013 15.315-35.205-3.642-13.75-13.434-27.29-24.156-36.151-6.824-5.64-14.98-9.893-23.384-12.4-7.694-2.297-20.184-5.488-28.01-1.84-12.985 6.052-2.36 37.557 1.49 44.558 12.119 22.037 33.908 35.088 57.151 41.774 5.622 1.617 31.459 9.178 36.49.262 2.288-4.054-2.386-12.112-4.112-15.553-3.611-7.205-9.131-12.557-15.109-17.76-13.13-11.427-28.12-15.035-45.382-14.45-10.827.367-20.923 1.096-29.243 9.142-7.067 6.836-8.307 16.261-9.816 25.38-1.467 8.862-4.768 25.254.617 33.787 4.492 7.119 15.18 2.408 20.609-.263 21.821-10.733 38.324-30.193 52.165-49.97 9.453-13.508 20.484-29.886 23.127-46.818.59-3.782 1.365-13.438-3.34-15.659-4.761-2.246-12.805 4.371-15.779 6.673Zm0 0c-12.524 9.695-23.817 21.532-34.434 33.313-8.18 9.078-15.849 18.638-21.071 29.846-1.723 3.697-10.613 22.285-3.495 25.327 4.816 2.058 11.642.863 16.446-.106 13.04-2.629 25.834-7.815 36.798-15.553 7.451-5.258 15.855-12.181 18.862-21.333 2.913-8.866-1.268-19.217-5.499-26.85C108.133 29.01 94.62 19.822 78.937 19.11c-15.92-.723-60.923 4.96-45.844 32.42 1.355 2.467 4.488 7.359 7.298 8.25 6.868 2.178 19.812.015 25.08-.736 12.636-1.8 37.589-6.604 50.161-9.247 7.217-1.518 25.208-2.46 20.558-8.303-2.034-2.556-5.578-3.919-8.634-4.519-4.758-.933-9.255-.22-13.979.631-12.651 2.28-25.243 4.86-37.929 6.936-10.581 1.732-21.21 3.33-31.865 4.519-1.516.169-2.754-.067-3.906 1.05-7.28 7.062-20.866 16.567-20.866 27.85 0 2.791.489 3.28 3.29 3.888 13.734 2.984 28.158 1.17 42.04.526" stroke="#FC4545" stroke-width="2" stroke-linecap="round"/><path fill-rule="evenodd" clip-rule="evenodd" d="M330.384 8.081c86.674-9.367 188.402-12.097 263.542.004 52.059 8.383 87.003 23.175 108.692 41.795 21.718 18.645 30.139 41.14 29.098 64.795-1.048 23.601-11.51 48.244-27.358 71.277-15.854 23.043-37.14 44.539-59.924 61.854-24.493 18.61-126.784 92.953-150.354 107.431a4127.235 4127.235 0 0 0-12.672 7.842c-21.059 13.061-56.918 35.301-74.93 45.426-15.205 8.548-33.216 17.153-52.5 26.216a7112.995 7112.995 0 0 1-7.298 3.425c-17.136 8.038-35.108 16.468-52.912 25.567-31.412 16.052-48.624 22.675-70.64 31.147-8.884 3.419-18.551 7.139-30.249 11.902-32.709 13.314-59.279 25.807-85.466 44.379-35.242 24.991-58.7 51.372-77.413 90.388-10.604 22.109-22.08 65.712-26.708 115.372-4.627 49.654-2.394 105.247 14.33 151.345 17.291 47.657 47.359 88.006 75.993 118.324 28.632 30.31 55.795 50.56 67.226 58.04 58.168 38.06 120.854 64.25 160.84 76.83 23.498 7.39 81.99 19.29 132.293 21.53 19.49.88 37.709.29 52.173-2.54 4.296-13.78 10.092-25 15.586-31.8 3.317-4.12 6.605-6.73 9.454-7.2 1.448-.24 2.795.08 3.944 1.04 1.14.95 2.028 2.5 2.649 4.6 2.364 8 1.452 14.58-2.138 19.85-3.554 5.21-9.668 9.05-17.55 11.8-3.369 1.18-7.077 2.16-11.071 2.97-.816 2.66-1.575 5.43-2.264 8.28-8.587 35.53-6.218 83.79 32.822 119.02 39.266 35.42 64.999 54.14 84.427 68.18l1.178.85c18.789 13.58 31.719 22.92 45.525 39.31 80.689 95.82 75.984 241.25 11.747 309.64-13.694 14.58-32.791 25.89-53.455 34.26-15.57 6.31-32.051 10.96-47.821 14.06 12.918 8.6 25.753 19.94 37.228 33.96 20.316 24.82 36.394 58.05 41.176 99.32 4.781 41.28-1.746 90.55-26.547 147.45-18.038 41.36-48.936 73.27-85.541 97.78-36.606 24.5-78.952 41.6-119.935 53.33-40.986 11.72-80.628 18.06-111.837 21.03-15.604 1.48-29.105 2.12-39.616 2.16-10.47.04-18.018-.51-21.716-1.42-11.203-1.73-21.32-3.83-30.86-5.87a340.24 340.24 0 0 1-3.666-.79c-8.196-1.76-15.998-3.43-23.764-4.75-17.817-3.03-35.414-4.17-56.942-.1-10.926 2.07-23.134 6.59-34.195 12.83-11.067 6.25-20.94 14.21-27.234 23.13-22.781 32.29-39.878 67.23-35.171 122.34l.001.02.001.02c.787 20.26 9.656 51.14 24.062 77.92 11.71 21.76 27.003 40.68 44.466 49.02 8.239-10.5 17.381-20.1 27.323-28.38 8.845-7.36 22.345-17.28 34.46-23.7 6.064-3.21 15.977-7.47 25.742-8.8 9.731-1.32 19.536.24 25.095 9.02l.027.04.02.05c4.105 9 1.748 19.55-4.917 28.84-6.672 9.29-17.738 17.48-31.385 21.91-29.399 9.55-48.663 8.97-64.098 6.41-4.083-.68-8.072-1.95-11.95-3.73-2.82 3.63-5.533 7.36-8.134 11.19-10.998 16.17-17.891 29.14-23.853 51.96-5.975 22.86-8.064 36.75-8.8 59.41.002 43.39 11.433 77.48 30.413 104.87 18.992 27.41 45.567 48.15 75.886 64.75 30.319 16.59 64.35 29.04 98.225 39.89 13.951 4.47 27.885 8.67 41.521 12.79 19.447 5.86 38.286 11.55 55.703 17.57 14.408 4.97 29.76 10.04 45.704 15.3 37.131 12.25 77.477 25.56 116.611 41.26 55.939 22.46 109.491 49.83 147.749 86.06l.018.01.018.02c41.998 46.56 61.9 125.18 64.687 206.25 2.787 81.08-11.54 164.81-38.17 221.73-49.804 106.46-154.436 152.75-285.339 127.33-15.459-3.01-31.366-6.4-47.553-9.85-48.985-10.45-100.523-21.44-149.895-23.81-65.673-3.14-127.364 8.98-173.96 57.83-16.256 17.04-30.38 46.75-38.962 79.56-8.58 32.8-11.585 68.57-5.7 97.68.077.38-.119.76-.436.85-.318.09-.638-.14-.714-.52-5.951-29.44-2.9-65.48 5.72-98.43 8.619-32.95 22.834-62.93 39.31-80.2 46.933-49.2 108.996-61.33 174.79-58.18 49.461 2.38 101.117 13.39 150.122 23.85 16.169 3.45 32.05 6.83 47.468 9.83 130.599 25.36 234.635-20.85 284.114-126.62 26.499-56.65 40.803-140.11 38.021-221-2.781-80.89-22.635-159.05-64.296-205.25-38.087-36.07-91.47-63.36-147.369-85.8-39.102-15.69-79.394-28.98-116.512-41.23-15.953-5.27-31.32-10.34-45.755-15.32-17.408-6.01-36.204-11.68-55.627-17.54-13.637-4.11-27.583-8.33-41.575-12.8-33.894-10.87-68.001-23.34-98.411-39.99-30.41-16.64-57.158-37.48-76.306-65.12-19.157-27.64-30.684-62.06-30.684-105.78v-.03c.741-22.79 2.85-36.81 8.853-59.79 6.018-23.02 12.996-36.15 24.065-52.43 2.521-3.71 5.147-7.33 7.874-10.85-17.625-8.61-32.938-27.7-44.6-49.37-14.478-26.91-23.443-58.02-24.248-78.6-4.745-55.62 12.555-90.93 35.445-123.37 6.445-9.13 16.484-17.2 27.633-23.49 11.157-6.3 23.473-10.86 34.516-12.95 21.677-4.1 39.398-2.95 57.295.09 7.785 1.32 15.608 3 23.797 4.76 1.216.27 2.441.53 3.675.79 9.543 2.04 19.643 4.14 30.825 5.87h.022l.022.01c3.556.88 11 1.43 21.494 1.39 10.476-.04 23.947-.68 39.526-2.16 31.16-2.95 70.739-9.29 111.654-20.99 40.918-11.71 83.152-28.77 119.633-53.2 36.482-24.41 67.177-56.15 85.066-97.19 24.713-56.68 31.169-105.66 26.429-146.6-4.74-40.94-20.689-73.91-40.85-98.54-11.789-14.4-25.01-25.94-38.275-34.57-4.523.86-8.981 1.59-13.338 2.2-20.09 2.8-38.035 2.98-50.028.78-5.975-1.09-10.568-2.78-13.195-5.12-1.324-1.18-2.204-2.57-2.449-4.19-.247-1.62.169-3.33 1.177-5.07l.036-.06.046-.05c4.68-5.24 11.83-8.09 20.472-8.69 8.653-.6 18.866 1.06 29.754 4.89 8.939 3.15 18.346 7.77 27.736 13.84 16.168-3.09 33.134-7.81 49.124-14.29 20.588-8.34 39.519-19.58 53.047-33.99 63.651-67.76 68.486-212.24-11.794-307.58-13.706-16.27-26.53-25.54-45.36-39.14l-1.124-.81c-19.446-14.05-45.215-32.8-84.526-68.27-39.539-35.67-41.925-84.62-33.245-120.53a145.22 145.22 0 0 1 2.063-7.63c-14.488 2.75-32.546 3.29-51.754 2.43-50.386-2.25-108.965-14.16-132.55-21.58-40.061-12.6-102.84-38.83-161.108-76.95-11.499-7.52-38.737-27.83-67.442-58.23-28.702-30.388-58.907-70.892-76.293-118.817-16.838-46.409-19.059-102.27-14.42-152.057 4.638-49.773 16.146-93.586 26.857-115.917 18.832-39.265 42.451-65.809 77.834-90.901 26.294-18.646 52.956-31.177 85.689-44.502 11.731-4.775 21.412-8.501 30.302-11.922 21.995-8.463 39.144-15.063 70.503-31.088 17.821-9.107 35.809-17.544 52.944-25.582 2.452-1.15 4.886-2.291 7.299-3.425 19.288-9.065 37.263-17.654 52.429-26.179 17.988-10.112 53.806-32.327 74.869-45.391 5.372-3.331 9.784-6.068 12.696-7.857 23.514-14.444 125.758-88.753 150.257-107.366 22.707-17.25 43.887-38.652 59.651-61.559 15.765-22.918 26.062-47.279 27.086-70.456 1.024-23.12-7.178-45.177-28.606-63.576C680.468 32.6 645.742 17.853 593.772 9.483c-75.018-12.08-176.646-9.36-263.281.003-76.21 8.237-104.335 18.76-131.962 29.096a1030.566 1030.566 0 0 1-11.385 4.209c-10.762 3.884-23.944 10.558-38.387 17.87-7.152 3.622-14.615 7.4-22.246 11.074-22.991 11.068-47.47 21.16-69.364 22.932-.326.026-.609-.268-.63-.656-.023-.389.223-.725.55-.752 21.69-1.755 46.017-11.768 69-22.832 7.572-3.645 15.004-7.408 22.143-11.022 14.484-7.333 27.767-14.059 38.591-17.965 3.864-1.394 7.618-2.798 11.382-4.207 27.665-10.35 55.871-20.902 132.201-29.152ZM575.563 1774.55c-8.861-5.59-17.712-9.88-26.137-12.84-10.793-3.81-20.865-5.42-29.349-4.84-8.463.58-15.281 3.36-19.684 8.25-.865 1.52-1.123 2.84-.952 3.97.174 1.14.814 2.25 1.993 3.3 2.379 2.11 6.722 3.77 12.667 4.86 11.847 2.16 29.674 2.01 49.711-.79 3.846-.54 7.772-1.17 11.751-1.91Zm-465.284 728.67c3.659 1.64 7.409 2.81 11.241 3.44 15.285 2.54 34.387 3.12 63.624-6.37 13.464-4.38 24.308-12.43 30.797-21.47 6.484-9.04 8.546-18.93 4.797-27.2-5.164-8.11-14.372-9.73-23.989-8.43-9.6 1.31-19.39 5.51-25.395 8.69-12.023 6.37-25.456 16.23-34.264 23.57-9.738 8.1-18.709 17.49-26.811 27.77Zm397.219-1323.06c3.693-.78 7.128-1.7 10.261-2.8 7.796-2.72 13.635-6.45 16.964-11.33 3.292-4.83 4.189-10.88 1.94-18.49-.567-1.92-1.333-3.18-2.212-3.92-.869-.72-1.904-.99-3.102-.79-2.441.4-5.496 2.72-8.763 6.77-5.26 6.52-10.864 17.27-15.088 30.56Z" fill="#FC4545"/></g><defs><clipPath id="a"><path fill="#fff" d="M0 0h768v5511H0z"/></clipPath></defs></svg>