<svg width="267" height="131" fill="none" xmlns="http://www.w3.org/2000/svg"><path d="m3.29 13.658 254.99 7.299 4.168 19.848-9.479-.272L9.007 33.55 3.29 13.658Z" fill="#8FFE09" fill-opacity=".2"/><path d="m12.465 43.158 246.019-22.294 3.764 19.363-9.234.471-235.073 22.42-5.476-19.96Z" fill="#8FFE09" fill-opacity=".2"/><path d="m12.457 43.66 248.762 7.036 4.076 19.844-9.249-.262-238.004-6.731-5.585-19.887Z" fill="#8FFE09" fill-opacity=".2"/><path d="M1.647 69.515 261.12 50.899l4.114 19.554-9.277.471L7.338 89.454l-5.69-19.939Z" fill="#8FFE09" fill-opacity=".2"/><path d="m1.906 69.103 259.373 12.51 4.169 19.925-9.643-.465L7.65 89.103l-5.744-20Z" fill="#8FFE09" fill-opacity=".2"/><path d="m61.659 100.591 199.455-18.639 4.232 19.55-7.918.398-190.835 18.033-4.934-19.342Z" fill="#8FFE09" fill-opacity=".2"/><path d="m61.654 100.448 168.202-36.217 4.927 17.245-6.129 1.637-161.995 36.846-5.005-19.511Z" fill="#8FFE09" fill-opacity=".2"/></svg>