<svg width="49" height="64" fill="none" xmlns="http://www.w3.org/2000/svg"><path d="m14.343 1.262 1.407-.209 1.422 1.5 1.968-.634 1.422 1.5 2.391-.526 1.422 1.5 1.968-.634 1.422 1.5 2.391-.525 1.422 1.5 1.544-.743 1.422 1.5 1.968-.634 1.422 1.5 1.968-.634 1.422 1.5 1.967-.634 1.423 1.5 1.967-.634 1.422 1.5-6.75 26.42-33.896-8.66 6.886-26.953Z" fill="#F2F2F2" fill-opacity=".3"/><path d="m14.343 1.262 1.407-.209 1.422 1.5 1.968-.634 1.422 1.5 2.391-.526 1.422 1.5 1.968-.634 1.422 1.5 2.391-.525 1.422 1.5 1.544-.743 1.422 1.5 1.968-.634 1.422 1.5 1.968-.634 1.422 1.5 1.967-.634 1.423 1.5 1.967-.634 1.422 1.5-6.75 26.42-33.896-8.66 6.886-26.953Z" fill="#F2F2F2" fill-opacity=".3"/><path d="m34.755 62.704-1.402.187-1.433-1.456-1.956.59-1.434-1.456-2.38.482-1.433-1.456-1.956.59-1.434-1.456-2.38.482-1.433-1.456-1.533.698-1.433-1.456-1.956.59-1.434-1.456-1.956.59-1.434-1.456-1.956.59-1.433-1.456-1.956.59-1.434-1.456 6.468-25.318 33.897 8.66-6.599 25.83Z" fill="#F2F2F2" fill-opacity=".3"/><path d="m34.755 62.704-1.402.187-1.433-1.456-1.956.59-1.434-1.456-2.38.482-1.433-1.456-1.956.59-1.434-1.456-2.38.482-1.433-1.456-1.533.698-1.433-1.456-1.956.59-1.434-1.456-1.956.59-1.434-1.456-1.956.59-1.433-1.456-1.956.59-1.434-1.456 6.468-25.318 33.897 8.66-6.599 25.83Z" fill="#F2F2F2" fill-opacity=".3"/></svg>