<svg width="92" height="97" fill="none" xmlns="http://www.w3.org/2000/svg"><path fill="#C7FE84" d="m10.791 25.199 60.702-7.705 7.705 60.702L18.496 85.9z"/><path d="m28.032 8.013.635-.356.952.458.825-.66.953.457 1.047-.686.953.458.825-.662.953.459 1.047-.687.953.458.602-.636.953.459.825-.662.953.458.825-.661.952.458.825-.661.953.458.825-.661.953.458 1.583 13.855-17.777 2.031-1.615-14.135Z" fill="#F2F2F2" fill-opacity=".3"/><path d="m28.032 8.013.635-.356.952.458.825-.66.953.457 1.047-.686.953.458.825-.662.953.459 1.047-.687.953.458.602-.636.953.459.825-.662.953.458.825-.661.952.458.825-.661.953.458.825-.661.953.458 1.583 13.855-17.777 2.031-1.615-14.135Z" fill="#F2F2F2" fill-opacity=".3"/><path d="m48.971 33.663-.636.345-.95-.435-.827.638-.95-.435-1.05.663-.95-.434-.828.637-.95-.434-1.05.663-.95-.435-.605.613-.95-.435-.828.638-.95-.435-.828.638-.95-.435-.827.638-.95-.435-.828.638-.95-.435-1.517-13.278 17.777-2.03 1.547 13.545Z" fill="#F2F2F2" fill-opacity=".3"/><path d="m48.971 33.663-.636.345-.95-.435-.827.638-.95-.435-1.05.663-.95-.434-.828.637-.95-.434-1.05.663-.95-.435-.605.613-.95-.435-.828.638-.95-.435-.828.638-.95-.435-.827.638-.95-.435-.828.638-.95-.435-1.517-13.278 17.777-2.03 1.547 13.545Z" fill="#F2F2F2" fill-opacity=".3"/></svg>