<svg width="1297" height="13197" fill="none" xmlns="http://www.w3.org/2000/svg"><g clip-path="url(#a)"><path d="m885.064 5107.47-27.812-46.12 52.064-1.97-24.252 48.09Zm72.992-5.69-33.214-42.4 51.437-8.29-18.223 50.69Zm68.274-16.35-38.378-37.78 49.948-14.81-11.57 52.59Zm70.48-26.55-44.01-31.03 46.87-22.75-2.86 53.78Zm65.79-41.26-48.95-22.46 41.92-30.93 7.03 53.39Zm52.93-48.83-52.53-11.86 18.15-18.63 16.47-20.3 17.91 50.79ZM451.893 9079.11l-52.088-13.69 35.961-37.7 16.127 51.39Zm37.894-41.85-52.213-13.24 35.633-38.01 16.58 51.25Zm38.114-38.55-51.799-14.76 36.731-36.95 15.068 51.71Zm37.797-38.41-51.116-16.96 38.285-35.34 12.831 52.3Zm42.737-39.08-50.563-18.56 39.365-34.12 11.198 52.68Zm42.605-38.72-50.416-18.94 20.532-15.97 19.089-17.85 10.795 52.76Z" fill="#C7FE84"/><path d="M212.286 28.73c-23.756-26.583-84.837 30.603-93.752 40.848-17.546 20.163-34.235 40.889-41.187 67.172-3.127 11.823-5.583 25.218 7.218 31.761 15.338 7.839 34.892 5.587 50.953 1.783 35.295-8.359 79.873-30.155 76.174-72.522-1.763-20.197-11.37-39.828-34.053-39.828-31.153 0-65.388 19.996-88.998 38.384-22.848 17.796-39.62 56.408-13.078 78.637 12.019 10.065 28.356 12.158 43.48 12.229 27.574.128 56.708-4.333 78.977-21.91 17.357-13.701 31.517-33.96 25.306-56.897-6.017-22.222-22.198-44.106-39.913-58.426-11.276-9.115-24.753-15.987-38.639-20.041-12.713-3.711-33.351-8.867-46.282-2.972-21.456 9.781-3.898 60.698 2.463 72.013 20.023 35.614 56.027 56.707 94.432 67.512 9.29 2.614 51.981 14.833 60.294.424 3.78-6.552-3.943-19.575-6.794-25.136-5.967-11.644-15.089-20.295-24.966-28.703-21.695-18.468-46.464-24.299-74.986-23.354-17.89.593-34.572 1.772-48.32 14.776-11.677 11.047-13.726 26.28-16.22 41.017-2.423 14.322-7.878 40.814 1.02 54.605 7.423 11.506 25.081 3.891 34.053-.425 36.056-17.346 63.324-48.796 86.195-80.76 15.62-21.83 33.847-48.299 38.214-75.665.975-6.111 2.255-21.718-5.52-25.306-7.866-3.63-21.158 7.065-26.071 10.785Zm0 0c-20.695 15.671-39.354 34.8-56.897 53.84-13.518 14.673-26.188 30.123-34.817 48.236-2.847 5.976-17.536 36.017-5.775 40.932 7.958 3.326 19.236 1.396 27.175-.17 21.547-4.25 42.687-12.63 60.803-25.136 12.311-8.499 26.198-19.687 31.166-34.478 4.813-14.328-2.095-31.057-9.086-43.395-12.732-22.468-35.059-37.317-60.974-38.47-26.304-1.168-100.665 8.016-75.75 52.397 2.239 3.987 7.416 11.892 12.06 13.333 11.348 3.52 32.735.024 41.441-1.19 20.878-2.91 62.109-10.673 82.883-14.945 11.925-2.453 41.651-3.974 33.968-13.418-3.361-4.131-9.217-6.334-14.266-7.303-7.862-1.509-15.292-.357-23.099 1.019-20.903 3.684-41.709 7.853-62.671 11.21-17.484 2.799-35.046 5.382-52.652 7.303-2.505.273-4.55-.108-6.454 1.698-12.028 11.412-34.478 26.774-34.478 45.008 0 4.512.807 5.301 5.435 6.284 22.694 4.823 46.527 1.892 69.466.85" stroke="#FC4545" stroke-width="2" stroke-linecap="round"/><path fill-rule="evenodd" clip-rule="evenodd" d="M592.291 11.456c146.463-13.28 318.366-17.15 445.339.005 87.97 11.885 147.02 32.854 183.67 59.25 36.7 26.433 50.93 58.321 49.17 91.856-1.77 33.457-19.45 68.391-46.23 101.043-26.79 32.667-62.76 63.14-101.26 87.686-41.39 26.382-214.243 131.773-254.071 152.297a7329.574 7329.574 0 0 0-21.414 11.118c-35.586 18.515-96.181 50.044-126.618 64.397-25.695 12.118-56.129 24.317-88.716 37.165-4.079 1.608-8.191 3.226-12.332 4.855-28.958 11.395-59.327 23.345-89.413 36.244-53.081 22.756-82.166 32.145-119.368 44.155-15.013 4.847-31.349 10.121-51.117 16.872-55.271 18.875-100.17 36.586-144.422 62.913-59.553 35.429-99.192 72.827-130.814 128.137C66.776 940.791 47.382 1002.6 39.563 1073c-7.818 70.39-4.046 149.2 24.216 214.55 29.218 67.56 80.027 124.76 128.415 167.74 48.382 42.97 94.283 71.68 113.599 82.28 98.294 53.96 204.223 91.08 271.791 108.91 39.708 10.48 138.55 27.35 223.552 30.53 32.935 1.24 63.722.41 88.164-3.61 7.259-19.53 17.053-35.43 26.337-45.08 5.605-5.83 11.162-9.53 15.976-10.2 2.447-.34 4.723.11 6.665 1.47 1.926 1.35 3.426 3.55 4.476 6.53 3.994 11.33 2.453 20.66-3.613 28.13-6.005 7.39-16.338 12.83-29.657 16.73-5.693 1.67-11.959 3.06-18.708 4.21-1.379 3.78-2.661 7.7-3.825 11.74-14.51 50.37-10.507 118.79 55.463 168.72 66.356 50.22 109.836 76.76 142.666 96.66l1.99 1.21c31.75 19.24 53.6 32.48 76.93 55.72 136.35 135.84 128.4 342.01 19.85 438.95-23.14 20.67-55.41 36.71-90.33 48.58-26.31 8.94-54.16 15.53-80.81 19.93 21.83 12.19 43.52 28.26 62.91 48.14 34.33 35.18 61.5 82.29 69.58 140.8 8.08 58.52-2.95 128.37-44.86 209.02-30.48 58.64-82.69 103.88-144.547 138.62-61.858 34.73-133.416 58.98-202.67 75.6-69.259 16.62-136.246 25.61-188.984 29.82-26.369 2.1-49.183 3-66.944 3.06-17.693.06-30.447-.72-36.696-2.01-18.932-2.45-36.027-5.43-52.149-8.32-2.081-.38-4.145-.75-6.195-1.12-13.849-2.5-27.034-4.87-40.157-6.74-30.107-4.3-59.843-5.91-96.222-.14-18.462 2.94-39.092 9.34-57.783 18.19-18.702 8.86-35.384 20.14-46.02 32.79-38.497 45.77-67.387 95.3-59.434 173.43l.002.03.002.02c1.33 28.73 16.317 72.51 40.66 110.47 19.788 30.85 45.63 57.66 75.14 69.49 13.923-14.89 29.371-28.5 46.171-40.23 14.947-10.44 37.759-24.5 58.231-33.6 10.247-4.55 26.998-10.59 43.5-12.48 16.444-1.87 33.013.35 42.406 12.79l.045.06.035.07c6.936 12.76 2.954 27.71-8.309 40.88-11.275 13.18-29.975 24.78-53.036 31.06-49.679 13.54-82.231 12.72-108.314 9.09-6.9-.96-13.64-2.76-20.194-5.28a316.963 316.963 0 0 0-13.744 15.85c-18.585 22.93-30.233 41.32-40.308 73.67-10.096 32.41-13.626 52.1-14.871 84.22.004 61.51 19.32 109.84 51.393 148.67 32.094 38.85 77 68.25 128.235 91.78 51.234 23.53 108.739 41.17 165.982 56.56 23.575 6.33 47.121 12.29 70.163 18.13 32.862 8.31 64.698 16.37 94.129 24.9 24.347 7.05 50.289 14.23 77.231 21.69 62.746 17.37 130.923 36.24 197.053 58.5 94.529 31.83 185.019 70.63 249.669 121.99l.03.02.03.03c70.97 66.01 104.6 177.45 109.31 292.38 4.71 114.95-19.5 233.64-64.5 314.34-84.16 150.92-260.97 216.54-482.173 180.5-26.123-4.26-53.003-9.07-80.355-13.96-82.777-14.81-169.867-30.39-253.297-33.75-110.976-4.46-215.222 12.72-293.962 81.97-27.47 24.16-51.338 66.28-65.838 112.79-14.498 46.5-19.576 97.21-9.632 138.48a.997.997 0 0 1-.738 1.2.998.998 0 0 1-1.206-.74c-10.056-41.73-4.899-92.82 9.667-139.54 14.563-46.71 38.585-89.21 66.426-113.69 79.309-69.75 184.184-86.94 295.364-82.47 83.581 3.37 170.87 18.98 253.68 33.8 27.323 4.89 54.159 9.69 80.212 13.94 220.69 35.95 396.492-29.56 480.102-179.5 44.78-80.31 68.95-198.62 64.25-313.29-4.7-114.68-38.25-225.48-108.65-290.97-64.36-51.13-154.57-89.83-249.027-121.63-66.075-22.25-134.161-41.09-196.884-58.46-26.958-7.46-52.926-14.65-77.318-21.71-29.416-8.52-61.178-16.56-93.999-24.87-23.045-5.83-46.612-11.8-70.256-18.15-57.274-15.4-114.909-33.08-166.297-56.68-51.387-23.6-96.587-53.14-128.943-92.32-32.373-39.19-51.851-87.98-51.851-149.96v-.02l.001-.02c1.252-32.31 4.815-52.18 14.96-84.76 10.168-32.64 21.96-51.25 40.664-74.33a318.819 318.819 0 0 1 13.306-15.38c-29.783-12.2-55.659-39.26-75.366-69.98-24.465-38.15-39.614-82.25-40.974-111.43-8.019-78.85 21.215-128.9 59.896-174.89 10.891-12.95 27.854-24.38 46.695-33.3 18.853-8.94 39.665-15.4 58.325-18.36 36.631-5.82 66.576-4.19 96.818.13 13.156 1.87 26.375 4.25 40.213 6.75 2.056.37 4.125.74 6.21 1.12 16.126 2.89 33.194 5.86 52.09 8.31l.037.01.037.01c6.008 1.24 18.587 2.03 36.321 1.97 17.703-.06 40.466-.96 66.792-3.06 52.654-4.19 119.536-13.17 188.676-29.76 69.144-16.6 140.512-40.79 202.158-75.41 61.646-34.61 113.516-79.61 143.746-137.79 41.76-80.35 52.67-149.78 44.66-207.82-8.01-58.04-34.96-104.77-69.03-139.69-19.92-20.41-42.26-36.78-64.68-49.01a541.709 541.709 0 0 1-22.535 3.12c-33.948 3.97-64.272 4.22-84.538 1.11-10.097-1.55-17.859-3.95-22.298-7.26-2.238-1.67-3.725-3.65-4.139-5.94-.416-2.3.286-4.72 1.989-7.19l.061-.09.078-.07c7.908-7.43 19.99-11.46 34.595-12.31 14.621-.85 31.879 1.5 50.278 6.93 15.105 4.46 31.002 11.01 46.869 19.62 27.32-4.39 55.99-11.08 83.01-20.26 34.79-11.83 66.78-27.76 89.64-48.18 107.56-96.06 115.73-300.89-19.93-436.04-23.16-23.07-44.83-36.21-76.65-55.48l-1.9-1.16c-32.86-19.91-76.4-46.5-142.833-96.77-66.814-50.57-70.846-119.96-56.178-170.87 1.068-3.71 2.236-7.32 3.487-10.82-24.482 3.9-54.997 4.67-87.455 3.45-85.144-3.19-184.132-20.08-223.987-30.6-67.696-17.86-173.782-55.04-272.244-109.09-19.432-10.66-65.458-39.45-113.965-82.54-48.501-43.08-99.543-100.5-128.922-168.44-28.453-65.79-32.206-144.98-24.368-215.56 7.838-70.56 27.284-132.666 45.384-164.324 31.823-55.663 71.736-93.292 131.527-128.863 44.431-26.433 89.485-44.197 144.798-63.087 19.824-6.77 36.183-12.051 51.205-16.901 37.168-11.998 66.147-21.354 119.139-44.072 30.114-12.91 60.511-24.871 89.465-36.265 4.143-1.63 8.256-3.248 12.334-4.856 32.594-12.85 62.969-25.026 88.597-37.112 30.396-14.335 90.922-45.827 126.515-64.347 9.078-4.723 16.533-8.602 21.454-11.138 39.734-20.476 212.507-125.819 253.907-152.206 38.37-24.454 74.16-54.794 100.8-87.267 26.64-32.489 44.04-67.024 45.77-99.88 1.73-32.777-12.13-64.045-48.34-90.128-36.26-26.12-94.94-47.026-182.76-58.89-126.766-17.127-298.5-13.27-444.898.004C463.69 25.125 416.164 40.042 369.479 54.696c-6.361 1.996-12.706 3.987-19.238 5.965-18.187 5.506-40.461 14.968-64.867 25.334-12.087 5.134-24.697 10.49-37.593 15.699-38.851 15.69-80.217 29.996-117.213 32.508a1.001 1.001 0 0 1-.136-1.996c36.653-2.488 77.762-16.682 116.6-32.367 12.795-5.167 25.353-10.5 37.417-15.625 24.476-10.396 46.922-19.93 65.212-25.467 6.529-1.977 12.873-3.968 19.234-5.964 46.748-14.672 94.412-29.632 223.396-41.327ZM1006.6 2515.65c-14.973-7.93-29.929-14.01-44.166-18.21-18.238-5.39-35.259-7.68-49.595-6.85-14.301.82-25.823 4.75-33.263 11.69-1.462 2.16-1.897 4.02-1.608 5.62.294 1.62 1.376 3.2 3.367 4.68 4.021 3 11.36 5.35 21.405 6.89 20.019 3.07 50.145 2.85 84.003-1.12 6.499-.76 13.133-1.66 19.857-2.7ZM220.352 3548.63c6.183 2.32 12.521 3.98 18.996 4.88 25.829 3.59 58.108 4.42 107.513-9.04 22.752-6.2 41.076-17.61 52.041-30.43 10.957-12.81 14.441-26.83 8.107-38.56-8.727-11.5-24.286-13.8-40.538-11.95-16.222 1.85-32.765 7.81-42.913 12.32-20.317 9.03-43.015 23.01-57.899 33.41-16.457 11.49-31.616 24.8-45.307 39.37Zm671.23-1875.61c6.241-1.1 12.045-2.41 17.34-3.96 13.173-3.86 23.041-9.15 28.666-16.07 5.563-6.85 7.079-15.42 3.279-26.21-.959-2.72-2.254-4.51-3.739-5.55-1.468-1.03-3.217-1.41-5.241-1.13-4.126.57-9.287 3.86-14.808 9.6-8.889 9.25-18.359 24.49-25.497 43.32Z" fill="#FC4545"/><path d="M42.5 5339.5c15.5 56.5 62.527 110.1 107.5 129 44.973 18.9 115 37 172.5 37s107.5-16.74 190-26.87c82.5-10.13 142.646-14.13 213-14.13 55.642 0 117 5.56 165.5 14.13s81 15.87 112.5 26.87c31.5 11 72.5 23 97.5 41.5s95 73 96 152.5-30.5 147-88 214-165.5 114-259 150-158.5 51.73-244 83.5c-85.5 31.77-168 64.5-209.5 83.5s-85.5 48-111.5 71-65 67-90 106-46.5 86.5-55 134.5-6 106 17.5 156 57 85.5 85.5 110 78 41.5 120 49.5 82 0 97-20 9-47-16.5-65-68-14.5-97.5-7-75.708 28.7-106 52-55 40-82.5 75-56.5 83.5-60 146.5 24 133 60 178.5 102 101.5 168 134 108.5 44.5 171.5 61 116.257 30.43 178.331 47.88C707.664 7469.48 771.5 7489 795 7496c23.5 7 71.678 23.9 101 36 86.528 35.71 150.5 76 206.07 123.72 55.57 47.73 63.43 59.78 86.93 88.78 23.5 29 43.5 73 57 107s21.5 70 27 105 11 83.5 11 154.5" stroke="#FC4545" stroke-width="2" stroke-linecap="round"/><path d="M1284 8110c0 103-26.78 171.22-83 253-44.52 64.75-139.5 138.52-198.25 183.26C944 8591 840 8669.5 789.5 8709.5c-50.5 40-106 85.5-158.5 129.52-52.5 44.01-89.5 78.48-125 114.48s-58 61-87 91-73 82-98.5 113-83.712 108.18-117.5 172c-51.916 98.06-80.468 171.66-88.5 285-3.524 49.73-4.5 157 11.5 222.5s54.5 139 88 189.5 107.077 102.6 165.5 161c37.182 37.2 94.263 127.9 70.652 192.8-23.926 65.8-95.652 111.2-120.152 142.7-24.5 31.5-52 88.5-39 152s59.5 120 101 153 131.5 57.5 221 81 208.823 61.4 291.5 107c86.321 47.6 186 132 233 181s119.8 154.2 139.5 233m0 0c21 97.5 20 168.5 15 230.5s-9 86-14 115.5-17 76.5-36 113.5-57.5 101-142.5 108.5-195-90.5-132-90.5 60 135.5 13 182.5-161 121.5-249.5 154-254.607 83.4-379.024 169.3c-91.225 62.9-192.905 159.7-241.476 244.7s-76.191 166.7-92.903 242.5c-21.463 97.4-18.977 196.2-10.02 294.7" stroke="#FC4545" stroke-width="2" stroke-linecap="round"/></g><defs><clipPath id="a"><path fill="#fff" d="M0 0h1297v13197H0z"/></clipPath></defs></svg>