<svg width="320" height="397" fill="none" xmlns="http://www.w3.org/2000/svg"><path fill="#FC4545" d="M0 0h320v397H0z"/><path fill-rule="evenodd" clip-rule="evenodd" d="M300 30H20v108.786l23.57 2.717h4.306c.254 0 .424-.004.603-.009l.003-.001c.139-.003.284-.008.48-.01.352-.003.793.003 1.253.095.697.14 1.286.444 1.81.9l5.534.638c.917-.101 1.981-.174 3.105-.005 1.023.154 2.004.395 2.872.608h.002l.678.165 3.855.444H75c.502 0 1.065-.039 1.736-.085l.104-.007a29.31 29.31 0 0 1 2.256-.094c1.486.011 3.388.221 4.913 1.476.024.011.097.044.243.085.249.071.576.131.975.185.347.046.698.081 1.06.117l.158.015c.383.039.83.084 1.201.155.59.113 1.176.204 1.801.302l.008.001a54.03 54.03 0 0 1 1.936.325c.576.11 1.178.266 1.723.412l4.905.566h2.166c.312 0 .657-.006 1.02-.012h.002c.804-.014 1.697-.029 2.522.015l.112.005.104.005h.001c.332.015.856.039 1.36.085.323.029.678.07 1.015.133.299.055.736.153 1.137.353.637.317 1.389.345 2.676.312l.188-.005c1.119-.03 2.7-.074 4.214.597.99.439 2.191.587 3.708.663.282.014.579.026.888.038 1.229.048 2.637.102 3.944.356.966.188 1.883.221 3.006.262h.005l.515.019c.808.032 1.393.438 1.657.65 2.894.158 5.769.291 8.709.291 1.637 0 3.07.609 4.12 1.056l.046.019c.147.063.286.122.419.177l5.274.608c1.377-.012 2.833.008 4.199.197.691.096 1.327.196 1.932.292 1.625.255 3.022.475 4.638.475 1.652 0 3.379.366 5.015.856l14.358 1.656h5.249c.854 0 1.604.24 2.072.39l.04.013c.559.179.742.224.887.224 2.539 0 4.876.309 7.192.614l.825.109h.001c3.471.456 6.969.916 10.457 1.481 1.117.181 2.362.191 3.731.144.436-.015.9-.037 1.375-.06.935-.044 1.914-.091 2.813-.091 2.214 0 4.405.162 6.514.318l.026.001c2.141.158 4.198.309 6.251.309 1.808 0 3.376.518 4.647.938l.082.027c1.352.446 2.39.775 3.537.775 2.588 0 5.138.363 7.561.749l1.108.178c2.056.333 4.011.649 5.966.791.239.017.479-.01.916-.06l.139-.016.142-.016c.516-.057 1.326-.139 2.165.076.24.061.58.086 1.085.072.126-.003.312-.012.521-.022h.008c.374-.018.822-.039 1.135-.039 1.197 0 2.658.446 3.763.783l.16.048c1.344.409 2.263.669 2.83.669.962 0 1.947.252 2.821.542.876.29 1.788.67 2.62 1.017l.034.014c.282.118.555.232.82.34l24.981 2.88L300 171v-7.765c-.557-.166-1.072-.43-1.484-.653l-.058-.032a7.2 7.2 0 0 0-.894-.01 16.28 16.28 0 0 1-.529.018c-.273.005-.456.009-.66.058l-.018.005c-.062.016-.248.064-.465.102-.023 2.311-1.776 4.177-3.936 4.177-2.173 0-3.936-1.891-3.936-4.223s1.763-4.223 3.936-4.223c1.132 0 2.152.513 2.87 1.333a1.112 1.112 0 0 1 1.014-.313c.05.01.097.017.139.022a.614.614 0 0 0 .097.005h.001c.348-.181.673-.142.813-.116.117.022.22.056.297.087.15-.003.253-.009.349-.023.556-.083 1.118-.027 1.541.022.123-.017.244-.018.359-.006.221.022.419.09.564.151v-19.721a.624.624 0 0 0-.27-.064c-.599 0-1.205-.138-1.748-.262-.157-.036-.309-.07-.454-.1-.68-.139-1.281-.196-1.883.019a2.342 2.342 0 0 1-.615.124c-.721.966-1.83 1.585-3.074 1.585-2.173 0-3.936-1.891-3.936-4.223s1.763-4.223 3.936-4.223c1.733 0 3.204 1.201 3.73 2.87l.061-.001c.77 0 1.511.103 2.232.203l.309.042c.575.078 1.118.049 1.712.016v-22.672c-.276-.046-.549-.097-.817-.147-.257-.048-.509-.096-.756-.137a4.977 4.977 0 0 0-.965-.045c-.118.003-.246.009-.377.014-.232.01-.475.021-.698.021-.111 0-.264.039-.468.121a6.344 6.344 0 0 0-.333.147 8.056 8.056 0 0 1-.153.07c-.662 1.333-1.971 2.24-3.477 2.24-2.173 0-3.936-1.89-3.936-4.222 0-2.332 1.763-4.223 3.936-4.223 1.491 0 2.787.888 3.456 2.198l.357.076c.514.111.943.204 1.44.204.089 0 .184-.029.36-.096l.039-.016c.154-.059.375-.145.619-.168.484-.047 1.067-.074 1.59-.012a.7.7 0 0 1 .183.051v-20a11.27 11.27 0 0 1-1.224-.248 3.57 3.57 0 0 1-.659-.242 7.416 7.416 0 0 1-.37-.191l-.024-.014-.119-.063a3.365 3.365 0 0 0-.209-.005h-.007l-.127-.003a6.153 6.153 0 0 1-.346-.015 2.556 2.556 0 0 1-.159-.018 2.21 2.21 0 0 1-.983-.064 4.579 4.579 0 0 1-.451-.16l-.009-.004-.067-.026a4.026 4.026 0 0 1-.211-.033c-.721.97-1.832 1.591-3.079 1.591-2.173 0-3.936-1.89-3.936-4.223 0-2.332 1.763-4.222 3.936-4.222 1.641 0 3.047 1.076 3.638 2.607a3.004 3.004 0 0 0 .116.026c.362.039.647.133.841.205.323-.025.579.025.674.043l.042.009.113.002.207.004c.18.004.489.013.817.081.499.103.922.335 1.104.434l.029.017c.113.061.159.086.199.105.092.023.18.044.264.063v-23.39a1.902 1.902 0 0 1-.422-.08c.001 0 .001 0 0 0a1.054 1.054 0 0 0-.115-.024 9.948 9.948 0 0 0-.152-.026l-.014-.003-.187-.032a5.748 5.748 0 0 1-.378-.078l-.062.066a2.492 2.492 0 0 1-1.728.749h-.017l-.035.003-.039.003a4.611 4.611 0 0 1-.286.012 2.57 2.57 0 0 1-1.155-.249c-.669 1.308-1.965 2.195-3.454 2.195-2.173 0-3.936-1.89-3.936-4.223 0-2.332 1.763-4.222 3.936-4.222 1.151 0 2.187.53 2.907 1.375a2.334 2.334 0 0 1 1.475.507 2.495 2.495 0 0 1 1.407-.715 2.931 2.931 0 0 1 1.884.324 2.612 2.612 0 0 0 .249.047l.122.02V30Zm-2.962 58.426h-.002.002Zm2.556-31.302.004.001h-.002l-.002-.001Z" fill="#fff"/><path fill-rule="evenodd" clip-rule="evenodd" d="M300 169.5 20 126v138.682l23.57 2.718h4.306c.254 0 .424-.005.603-.01h.003c.139-.004.284-.008.48-.01a6 6 0 0 1 1.253.095 3.837 3.837 0 0 1 1.81.9l5.534.638c.917-.102 1.981-.174 3.105-.006 1.023.154 2.004.395 2.872.608l.002.001c.235.057.461.113.678.164l3.855.445H75c.502 0 1.065-.039 1.736-.086l.104-.007a29.845 29.845 0 0 1 2.256-.093c1.486.011 3.388.221 4.913 1.476.024.011.097.043.243.084.249.071.576.132.975.185.347.047.698.081 1.06.117l.158.016c.383.038.83.084 1.201.155.59.113 1.176.204 1.801.301l.008.001c.613.096 1.264.197 1.936.325.576.111 1.178.267 1.723.413l4.905.565h2.166c.312 0 .657-.005 1.02-.012h.002c.804-.013 1.697-.028 2.522.015l.112.006.104.004h.001c.332.015.856.039 1.36.085.323.03.678.071 1.015.133.299.056.736.153 1.137.353.637.318 1.389.346 2.676.313l.188-.005c1.119-.031 2.7-.074 4.214.596.99.439 2.191.588 3.708.664.282.014.579.026.888.037 1.229.048 2.637.103 3.944.357.966.188 1.883.221 3.006.262h.005l.515.019c.808.031 1.393.438 1.657.649 2.894.159 5.769.291 8.709.291 1.637 0 3.07.609 4.12 1.056l.046.02.419.177 5.274.608c1.377-.013 2.833.008 4.199.197.691.096 1.327.196 1.932.291 1.625.256 3.022.476 4.638.476 1.652 0 3.379.365 5.015.856l14.358 1.655h5.249c.854 0 1.604.241 2.072.391l.04.013c.559.179.742.224.887.224 2.539 0 4.876.308 7.192.614l.825.108.001.001c3.471.456 6.969.916 10.457 1.481 1.117.18 2.362.191 3.731.144.436-.015.9-.037 1.375-.06.935-.044 1.914-.091 2.813-.091 2.214 0 4.405.162 6.514.317l.026.002c2.141.158 4.198.309 6.251.309 1.808 0 3.376.518 4.647.938l.082.027c1.352.446 2.39.774 3.537.774 2.588 0 5.138.364 7.561.749l1.108.179c2.056.332 4.011.649 5.966.79.239.018.479-.01.916-.06l.139-.016.142-.016c.516-.057 1.326-.138 2.165.076.24.062.58.086 1.085.073.126-.003.312-.012.521-.022h.008l.001-.001c.374-.017.822-.038 1.135-.038 1.197 0 2.658.445 3.763.782l.16.049c1.344.409 2.263.668 2.83.668.962 0 1.947.252 2.821.542.876.291 1.788.671 2.62 1.017l.034.015c.282.117.555.231.82.339l24.981 2.881 8.557.918v-7.765c-.557-.166-1.072-.43-1.484-.653l-.058-.032a7.011 7.011 0 0 0-.894-.01c-.213.011-.384.014-.529.017-.273.006-.456.009-.66.059l-.018.005a6.058 6.058 0 0 1-.465.102c-.023 2.31-1.776 4.176-3.936 4.176-2.173 0-3.936-1.89-3.936-4.223 0-2.332 1.763-4.222 3.936-4.222 1.132 0 2.152.512 2.87 1.332.263-.261.634-.39 1.014-.313a1.02 1.02 0 0 0 .236.028h.001c.348-.181.673-.142.813-.116.117.021.22.056.297.086.15-.003.253-.008.349-.022.556-.084 1.118-.027 1.541.022.123-.017.244-.018.359-.007.221.022.419.09.564.152v-19.722a.623.623 0 0 0-.27-.063c-.599 0-1.205-.138-1.748-.262-.157-.036-.309-.071-.454-.1-.68-.14-1.281-.196-1.883.019a2.425 2.425 0 0 1-.615.124c-.721.966-1.83 1.584-3.074 1.584-2.173 0-3.936-1.89-3.936-4.223 0-2.332 1.763-4.222 3.936-4.222 1.733 0 3.204 1.201 3.73 2.869h.061c.77 0 1.511.102 2.232.202l.309.043c.575.078 1.118.049 1.712.016v-22.672c-.276-.047-.549-.098-.817-.148a47.746 47.746 0 0 0-.756-.137 5.14 5.14 0 0 0-.965-.045l-.377.015c-.232.01-.475.02-.698.02-.111 0-.264.04-.468.122-.129.051-.228.098-.333.147l-.153.07c-.662 1.333-1.971 2.24-3.477 2.24-2.173 0-3.936-1.891-3.936-4.223s1.763-4.222 3.936-4.222c1.491 0 2.787.888 3.456 2.198.124.025.243.051.357.076.514.111.943.203 1.44.203.089 0 .184-.028.36-.096l.039-.015c.154-.06.375-.146.619-.169.484-.046 1.067-.073 1.59-.011a.748.748 0 0 1 .183.05v-19.999a11.12 11.12 0 0 1-1.224-.248 3.642 3.642 0 0 1-.659-.242c-.145-.069-.284-.145-.37-.192l-.024-.013-.119-.064a5.565 5.565 0 0 0-.099-.003l-.11-.002h-.007l-.127-.002a6.281 6.281 0 0 1-.346-.016 2.466 2.466 0 0 1-.159-.018c-.23.037-.579.057-.983-.064a4.474 4.474 0 0 1-.451-.16l-.009-.003-.067-.026a5.86 5.86 0 0 1-.211-.033c-.721.969-1.832 1.591-3.079 1.591-2.173 0-3.936-1.891-3.936-4.223s1.763-4.223 3.936-4.223c1.641 0 3.047 1.077 3.638 2.607l.062.015.054.011c.362.039.647.133.841.205a2.44 2.44 0 0 1 .716.052c.031.002.065.002.113.003l.207.003c.18.004.489.014.817.082.499.103.922.334 1.104.434l.029.016c.113.062.159.087.199.106.092.023.18.044.264.063v-23.391a1.857 1.857 0 0 1-.422-.08c-.005-.001-.036-.009-.115-.024l-.152-.026-.014-.002-.187-.032a5.803 5.803 0 0 1-.378-.078l-.062.066a2.479 2.479 0 0 1-.824.557 2.575 2.575 0 0 1-.904.191l-.007.001h-.01l-.035.003-.039.002c-.061.004-.167.011-.286.012a2.567 2.567 0 0 1-1.155-.248c-.669 1.308-1.965 2.195-3.454 2.195-2.173 0-3.936-1.891-3.936-4.223s1.763-4.223 3.936-4.223c1.151 0 2.187.53 2.907 1.375.464-.002.954.125 1.41.458l.065.049a2.499 2.499 0 0 1 1.407-.714 2.931 2.931 0 0 1 1.884.324 5.5 5.5 0 0 0 .249.046l.122.021V169.5Zm-2.962 44.822-.002.001.002-.001Zm2.556-31.301.004.001-.002-.001h-.002Z" fill="#fff"/></svg>