<svg width="1140" height="426" fill="none" xmlns="http://www.w3.org/2000/svg"><path fill="#FC4545" d="M0 0h1140v426H0z"/><path fill-rule="evenodd" clip-rule="evenodd" d="M957 19H231v273.893l61.112 6.842h11.166c.66 0 1.099-.012 1.563-.024h.003l.005-.001c.361-.009.738-.02 1.247-.025.912-.01 2.056.007 3.246.238 1.808.352 3.336 1.118 4.696 2.267l14.348 1.606c2.377-.255 5.136-.438 8.049-.013 2.652.387 5.196.994 7.447 1.53l.005.001c.609.145 1.197.285 1.759.415l9.996 1.119h17.963c1.301 0 2.76-.098 4.501-.215l.27-.019c1.784-.119 3.816-.25 5.848-.235 3.855.028 8.785.556 12.739 3.716.062.028.253.11.63.214.645.178 1.495.331 2.529.465.899.116 1.811.204 2.749.294l.409.04c.994.096 2.154.211 3.114.39 1.532.284 3.05.514 4.67.759l.019.002c1.59.241 3.279.496 5.02.819 1.496.278 3.055.671 4.468 1.039l12.718 1.424h5.617c.809 0 1.703-.015 2.644-.031h.006c2.085-.034 4.399-.072 6.54.037l.289.014.269.012h.005a80.92 80.92 0 0 1 3.524.214c.838.074 1.76.178 2.632.335.777.139 1.908.385 2.948.888 1.652.8 3.603.87 6.938.788l.489-.013c2.901-.077 7.001-.187 10.926 1.502 2.567 1.104 5.68 1.478 9.614 1.67.731.036 1.502.065 2.303.095 3.185.12 6.837.258 10.226.898 2.505.473 4.881.556 7.794.658l.013.001c.433.015.877.03 1.336.048 2.094.079 3.61 1.103 4.296 1.635 7.503.398 14.959.732 22.581.732 4.245 0 7.959 1.534 10.682 2.659l.121.05c.379.156.74.305 1.085.445l13.674 1.531c3.57-.031 7.347.02 10.889.496 1.791.241 3.441.493 5.009.733 4.213.644 7.836 1.198 12.026 1.198 4.282 0 8.76.92 13.004 2.155l37.226 4.168h13.61c2.214 0 4.159.605 5.372.983l.105.033c1.448.45 1.923.564 2.299.564 6.584 0 12.643.776 18.648 1.546l2.138.273.005.001h.002c9 1.149 18.067 2.307 27.11 3.729 2.896.455 6.125.482 9.675.362 1.13-.038 2.333-.093 3.566-.15h.001c2.422-.112 4.96-.229 7.292-.229 5.739 0 11.42.407 16.891.798l.066.005c5.55.397 10.886.777 16.208.777 4.688 0 8.752 1.304 12.049 2.362l.213.068c3.506 1.123 6.195 1.951 9.169 1.951 6.712 0 13.323.914 19.607 1.885.967.149 1.924.3 2.873.449 5.329.837 10.4 1.634 15.467 1.991.621.044 1.243-.026 2.376-.151l.359-.04.371-.041c1.335-.144 3.436-.349 5.612.192.623.154 1.502.216 2.813.182.327-.008.808-.03 1.35-.055l.013-.001h.014c.97-.045 2.127-.098 2.939-.098 3.104 0 6.894 1.122 9.758 1.97l.414.123c3.486 1.029 5.867 1.682 7.338 1.682 2.494 0 5.049.635 7.315 1.365 2.272.731 4.636 1.688 6.792 2.561l.09.037c.731.295 1.439.582 2.126.854l64.772 7.252L957 374v-19.55c-1.444-.417-2.781-1.082-3.848-1.644a8.078 8.078 0 0 1-.149-.081 19.257 19.257 0 0 0-2.318-.024c-.554.028-.996.036-1.372.044h-.003c-.708.013-1.18.022-1.708.147a16.097 16.097 0 0 1-1.252.269c-.06 5.818-4.606 10.515-10.206 10.515-5.636 0-10.206-4.76-10.206-10.631 0-5.872 4.57-10.632 10.206-10.632 2.934 0 5.579 1.29 7.441 3.355a2.945 2.945 0 0 1 2.628-.789c.131.026.251.045.36.057.11.012.193.015.252.013h.003a3.342 3.342 0 0 1 2.109-.291c.302.054.568.14.77.217.387-.008.656-.021.905-.057 1.44-.21 2.899-.067 3.995.055.32-.042.633-.045.931-.016a5.22 5.22 0 0 1 1.462.382v-49.653a1.648 1.648 0 0 0-.699-.16c-1.554 0-3.126-.348-4.533-.66-.408-.09-.802-.178-1.178-.252-1.762-.351-3.32-.494-4.882.048a6.33 6.33 0 0 1-1.594.312c-1.871 2.432-4.746 3.989-7.97 3.989-5.636 0-10.206-4.76-10.206-10.632 0-5.871 4.57-10.631 10.206-10.631 4.493 0 8.308 3.024 9.671 7.225l.157-.002c1.998 0 3.919.259 5.787.51l.802.107c1.492.197 2.9.124 4.439.04v-57.082c-.716-.116-1.423-.245-2.118-.371h-.001a101.1 101.1 0 0 0-1.959-.345c-.763-.124-1.594-.138-2.501-.113-.308.009-.639.022-.978.037h-.002c-.602.025-1.231.051-1.81.051-.286 0-.684.099-1.212.305a17.7 17.7 0 0 0-.865.37c-.126.057-.255.116-.397.178-1.716 3.355-5.108 5.639-9.013 5.639-5.636 0-10.206-4.76-10.206-10.631 0-5.872 4.57-10.632 10.206-10.632 3.864 0 7.226 2.237 8.959 5.535.322.064.63.129.926.191 1.333.279 2.447.513 3.734.513.23 0 .478-.072.933-.242l.103-.039c.397-.15.97-.366 1.605-.425 1.253-.116 2.764-.185 4.12-.029.2.023.377.088.476.127v-50.351c-1.187-.158-2.301-.413-3.174-.627a9.36 9.36 0 0 1-1.707-.608 18.522 18.522 0 0 1-.96-.483h-.001l-.062-.033-.309-.161a8.355 8.355 0 0 0-.256-.008l-.284-.005h-.02l-.329-.005a15.836 15.836 0 0 1-.896-.04 7.605 7.605 0 0 1-.414-.044 5.916 5.916 0 0 1-2.549-.161 12.627 12.627 0 0 1-1.169-.404l-.023-.008a6.993 6.993 0 0 0-.174-.066 10.673 10.673 0 0 1-.547-.083c-1.87 2.441-4.751 4.005-7.982 4.005-5.636 0-10.206-4.759-10.206-10.631s4.57-10.632 10.206-10.632c4.254 0 7.899 2.711 9.432 6.564l.16.037c.095.021.136.027.141.028a9.091 9.091 0 0 1 2.18.517 6.554 6.554 0 0 1 1.748.11h.002l.108.021c.079.003.167.004.292.005l.535.009c.469.01 1.268.034 2.12.205 1.295.259 2.39.843 2.861 1.094l.076.041c.293.155.413.218.517.266.239.058.467.111.684.159V98.436a5.03 5.03 0 0 1-1.094-.201c.002 0 .003 0 0 0a4.405 4.405 0 0 0-.297-.06c-.113-.02-.236-.04-.394-.066l-.037-.006a40.978 40.978 0 0 1-.485-.081c-.235-.04-.576-.1-.98-.197a6.532 6.532 0 0 1-2.299 1.57 6.86 6.86 0 0 1-2.342.481l-.02.001-.026.002-.091.006-.101.007c-.157.01-.433.028-.741.03-.477.002-1.699-.01-2.995-.626-1.734 3.294-5.094 5.526-8.954 5.526-5.636 0-10.206-4.76-10.206-10.631 0-5.872 4.57-10.632 10.206-10.632 2.984 0 5.669 1.334 7.536 3.461a6.176 6.176 0 0 1 3.825 1.278 6.489 6.489 0 0 1 3.649-1.8c1.785-.261 3.374.033 4.883.816.072.017.186.04.364.07l.282.048.317.052V19Zm-7.681 147.1c.01-.002.008-.002-.003.001l.003-.001Zm6.629-78.809.009.003-.005-.002-.004-.001Z" fill="#fff"/></svg>