<svg width="35" height="37" fill="none" xmlns="http://www.w3.org/2000/svg"><path d="M26.497 34.548c-.198.209-.379.645-.543 1.31l-1.24.347a15.72 15.72 0 0 1-1.245-.568c-1.06-.575-1.499-1.519-1.319-2.83-.395-.458-.819-1.199-1.27-2.222-.546-1.317-.901-2.105-1.067-2.366a32.36 32.36 0 0 1-1.078-1.496c-.424-.766-.873-1.872-1.346-3.32a1916 1916 0 0 1-1.286-2.813c-1.884 1.406-3.452 2.669-4.704 3.787-1.192.957-2.368 1.91-3.528 2.86-1.336 1.12-2.387 2.178-3.151 3.172-.425.06-.737.17-.936.33-.505-.153-1.152-.018-1.941.404-.444-.266-.853-1.06-1.227-2.38-.036-.141.003-.315.115-.521.438-.807 1.024-1.242 1.759-1.305.915-.5 2.234-1.277 3.956-2.334 1.159-1 2.941-2.425 5.348-4.277.01-.018 1.244-.77 3.702-2.253-.38-1.518-1.142-3.464-2.29-5.837a140.218 140.218 0 0 0-1.72-3.56l-1.462-2.18c-.752-1.088-1.3-1.702-1.645-1.841-.517-.183-.408-.975.324-2.376l.26-.478c.184-.338.3-.578.35-.721.51-.113.822-.173.94-.183.223 0 .561.075 1.013.223.258.091.484.19.679.296.583.317.942.791 1.075 1.422.155.643.304 1.271.447 1.884.412 1.147.662 1.745.748 1.792.77 1.366 1.83 3.46 3.18 6.284.049.22.137.548.265.982.3.892.723 1.815 1.269 2.768l2.985-2.17c.112-.206.368-.42.768-.64.537-.267.853-.436.947-.506.592-.626 1.546-1.506 2.86-2.638.756-.513 2.064-1.71 3.926-3.591.435-.08.757-.208.966-.386.495.171 1.158.058 1.99-.34.435.284.801 1.078 1.1 2.383.037.19-.006.398-.128.623-.388.713-.975 1.123-1.76 1.23-.906.48-2.236 1.229-3.992 2.243-.356.244-2.16 1.633-5.414 4.168l-3.483 2.7c.144.662.464 1.516.96 2.563.64 1.345 1.03 2.2 1.167 2.567.551 1.563 1.946 3.815 4.184 6.756.06.252.368.869.926 1.852-.059.212-.204.607-.434 1.186Z" fill="#FC4545"/></svg>