<svg width="1304" height="5167" fill="none" xmlns="http://www.w3.org/2000/svg"><path d="M844.5 5082c-43.5 41-136.039 79.68-238.5 82.5-272.5 7.5-368.447-55.5-417.5-143s-41.5-199-11.5-256 128-176.42 232-242.5c104-66.08 213.5-107 353.5-148s323.84-147.71 403.34-245.71S1284.5 3934.5 1284.5 3829c0-105.5-70-243.5-234.5-317.5-131.6-59.2-421.833-168.17-641-201-68.5-13.67-408-71.2-408-308C1 2735 252.5 2632 409 2591s499.844-119 672.84-267c173-148 235.66-250 218.16-398s-255.17-213-378.5-207.5c-142.5 8.17-639.501 73.5-830-110.5-59-56.99-104.116-260.08 20.5-358.5 157-124 323.048-127.5 481.5-146.5 221-26.5 504.99-102 559-154 94-90.5 165.41-220.5 147.5-415-20-217.2-423.5-203.5-731-303S189 61.5 133.5 1" stroke="#FC4545" stroke-width="2"/></svg>